o Benchy
v 0.4375 0.164062 0.765625
v -0.4375 0.164062 0.765625
v 0.5 0.09375 0.6875
v -0.5 0.09375 0.6875
v 0.546875 0.054688 0.578125
v -0.546875 0.054688 0.578125
v 0.351562 -0.023438 0.617188
v -0.351562 -0.023438 0.617188
v 0.351562 0.03125 0.71875
v -0.351562 0.03125 0.71875
v 0.351562 0.132812 0.78125
v -0.351562 0.132812 0.78125
v 0.273438 0.164062 0.796875
v -0.273438 0.164062 0.796875
v 0.203125 0.09375 0.742188
v -0.203125 0.09375 0.742188
v 0.15625 0.054688 0.648438
v -0.15625 0.054688 0.648438
v 0.078125 0.242188 0.65625
v -0.078125 0.242188 0.65625
v 0.140625 0.242188 0.742188
v -0.140625 0.242188 0.742188
v 0.242188 0.242188 0.796875
v -0.242188 0.242188 0.796875
v 0.273438 0.328125 0.796875
v -0.273438 0.328125 0.796875
v 0.203125 0.390625 0.742188
v -0.203125 0.390625 0.742188
v 0.15625 0.4375 0.648438
v -0.15625 0.4375 0.648438
v 0.351562 0.515625 0.617188
v -0.351562 0.515625 0.617188
v 0.351562 0.453125 0.71875
v -0.351562 0.453125 0.71875
v 0.351562 0.359375 0.78125
v -0.351562 0.359375 0.78125
v 0.4375 0.328125 0.765625
v -0.4375 0.328125 0.765625
v 0.5 0.390625 0.6875
v -0.5 0.390625 0.6875
v 0.546875 0.4375 0.578125
v -0.546875 0.4375 0.578125
v 0.625 0.242188 0.5625
v -0.625 0.242188 0.5625
v 0.5625 0.242188 0.671875
v -0.5625 0.242188 0.671875
v 0.46875 0.242188 0.757812
v -0.46875 0.242188 0.757812
v 0.476562 0.242188 0.773438
v -0.476562 0.242188 0.773438
v 0.445312 0.335938 0.78125
v -0.445312 0.335938 0.78125
v 0.351562 0.375 0.804688
v -0.351562 0.375 0.804688
v 0.265625 0.335938 0.820312
v -0.265625 0.335938 0.820312
v 0.226562 0.242188 0.820312
v -0.226562 0.242188 0.820312
v 0.265625 0.15625 0.820312
v -0.265625 0.15625 0.820312
v 0.351562 0.242188 0.828125
v -0.351562 0.242188 0.828125
v 0.351562 0.117188 0.804688
v -0.351562 0.117188 0.804688
v 0.445312 0.15625 0.78125
v -0.445312 0.15625 0.78125
v 0 0.429688 0.742188
v 0 0.351562 0.820312
v 0 -0.679688 0.734375
v 0 -0.320312 0.78125
v 0 -0.1875 0.796875
v 0 -0.773438 0.71875
v 0 0.40625 0.601562
v 0 0.570312 0.570312
v 0 0.898438 -0.546875
v 0 0.5625 -0.851562
v 0 0.070312 -0.828125
v 0 -0.382812 -0.351562
v 0.203125 -0.1875 0.5625
v -0.203125 -0.1875 0.5625
v 0.3125 -0.4375 0.570312
v -0.3125 -0.4375 0.570312
v 0.351562 -0.695312 0.570312
v -0.351562 -0.695312 0.570312
v 0.367188 -0.890625 0.53125
v -0.367188 -0.890625 0.53125
v 0.328125 -0.945312 0.523438
v -0.328125 -0.945312 0.523438
v 0.179688 -0.96875 0.554688
v -0.179688 -0.96875 0.554688
v 0 -0.984375 0.578125
v 0.4375 -0.140625 0.53125
v -0.4375 -0.140625 0.53125
v 0.632812 -0.039062 0.539062
v -0.632812 -0.039062 0.539062
v 0.828125 0.148438 0.445312
v -0.828125 0.148438 0.445312
v 0.859375 0.429688 0.59375
v -0.859375 0.429688 0.59375
v 0.710938 0.484375 0.625
v -0.710938 0.484375 0.625
v 0.492188 0.601562 0.6875
v -0.492188 0.601562 0.6875
v 0.320312 0.757812 0.734375
v -0.320312 0.757812 0.734375
v 0.15625 0.71875 0.757812
v -0.15625 0.71875 0.757812
v 0.0625 0.492188 0.75
v -0.0625 0.492188 0.75
v 0.164062 0.414062 0.773438
v -0.164062 0.414062 0.773438
v 0.125 0.304688 0.765625
v -0.125 0.304688 0.765625
v 0.203125 0.09375 0.742188
v -0.203125 0.09375 0.742188
v 0.375 0.015625 0.703125
v -0.375 0.015625 0.703125
v 0.492188 0.0625 0.671875
v -0.492188 0.0625 0.671875
v 0.625 0.1875 0.648438
v -0.625 0.1875 0.648438
v 0.640625 0.296875 0.648438
v -0.640625 0.296875 0.648438
v 0.601562 0.375 0.664062
v -0.601562 0.375 0.664062
v 0.429688 0.4375 0.71875
v -0.429688 0.4375 0.71875
v 0.25 0.46875 0.757812
v -0.25 0.46875 0.757812
v 0 -0.765625 0.734375
v 0.109375 -0.71875 0.734375
v -0.109375 -0.71875 0.734375
v 0.117188 -0.835938 0.710938
v -0.117188 -0.835938 0.710938
v 0.0625 -0.882812 0.695312
v -0.0625 -0.882812 0.695312
v 0 -0.890625 0.6875
v 0 -0.195312 0.75
v 0 -0.140625 0.742188
v 0.101562 -0.148438 0.742188
v -0.101562 -0.148438 0.742188
v 0.125 -0.226562 0.75
v -0.125 -0.226562 0.75
v 0.085938 -0.289062 0.742188
v -0.085938 -0.289062 0.742188
v 0.398438 -0.046875 0.671875
v -0.398438 -0.046875 0.671875
v 0.617188 0.054688 0.625
v -0.617188 0.054688 0.625
v 0.726562 0.203125 0.601562
v -0.726562 0.203125 0.601562
v 0.742188 0.375 0.65625
v -0.742188 0.375 0.65625
v 0.6875 0.414062 0.726562
v -0.6875 0.414062 0.726562
v 0.4375 0.546875 0.796875
v -0.4375 0.546875 0.796875
v 0.3125 0.640625 0.835938
v -0.3125 0.640625 0.835938
v 0.203125 0.617188 0.851562
v -0.203125 0.617188 0.851562
v 0.101562 0.429688 0.84375
v -0.101562 0.429688 0.84375
v 0.125 -0.101562 0.8125
v -0.125 -0.101562 0.8125
v 0.210938 -0.445312 0.710938
v -0.210938 -0.445312 0.710938
v 0.25 -0.703125 0.6875
v -0.25 -0.703125 0.6875
v 0.265625 -0.820312 0.664062
v -0.265625 -0.820312 0.664062
v 0.234375 -0.914062 0.632812
v -0.234375 -0.914062 0.632812
v 0.164062 -0.929688 0.632812
v -0.164062 -0.929688 0.632812
v 0 -0.945312 0.640625
v 0 0.046875 0.726562
v 0 0.210938 0.765625
v 0.328125 0.476562 0.742188
v -0.328125 0.476562 0.742188
v 0.164062 0.140625 0.75
v -0.164062 0.140625 0.75
v 0.132812 0.210938 0.757812
v -0.132812 0.210938 0.757812
v 0.117188 -0.6875 0.734375
v -0.117188 -0.6875 0.734375
v 0.078125 -0.445312 0.75
v -0.078125 -0.445312 0.75
v 0 -0.445312 0.75
v 0 -0.328125 0.742188
v 0.09375 -0.273438 0.78125
v -0.09375 -0.273438 0.78125
v 0.132812 -0.226562 0.796875
v -0.132812 -0.226562 0.796875
v 0.109375 -0.132812 0.78125
v -0.109375 -0.132812 0.78125
v 0.039062 -0.125 0.78125
v -0.039062 -0.125 0.78125
v 0 -0.203125 0.828125
v 0.046875 -0.148438 0.8125
v -0.046875 -0.148438 0.8125
v 0.09375 -0.15625 0.8125
v -0.09375 -0.15625 0.8125
v 0.109375 -0.226562 0.828125
v -0.109375 -0.226562 0.828125
v 0.078125 -0.25 0.804688
v -0.078125 -0.25 0.804688
v 0 -0.289062 0.804688
v 0.257812 -0.3125 0.554688
v -0.257812 -0.3125 0.554688
v 0.164062 -0.242188 0.710938
v -0.164062 -0.242188 0.710938
v 0.179688 -0.3125 0.710938
v -0.179688 -0.3125 0.710938
v 0.234375 -0.25 0.554688
v -0.234375 -0.25 0.554688
v 0 -0.875 0.6875
v 0.046875 -0.867188 0.6875
v -0.046875 -0.867188 0.6875
v 0.09375 -0.820312 0.710938
v -0.09375 -0.820312 0.710938
v 0.09375 -0.742188 0.726562
v -0.09375 -0.742188 0.726562
v 0 -0.78125 0.65625
v 0.09375 -0.75 0.664062
v -0.09375 -0.75 0.664062
v 0.09375 -0.8125 0.640625
v -0.09375 -0.8125 0.640625
v 0.046875 -0.851562 0.632812
v -0.046875 -0.851562 0.632812
v 0 -0.859375 0.632812
v 0.171875 0.21875 0.78125
v -0.171875 0.21875 0.78125
v 0.1875 0.15625 0.773438
v -0.1875 0.15625 0.773438
v 0.335938 0.429688 0.757812
v -0.335938 0.429688 0.757812
v 0.273438 0.421875 0.773438
v -0.273438 0.421875 0.773438
v 0.421875 0.398438 0.773438
v -0.421875 0.398438 0.773438
v 0.5625 0.351562 0.695312
v -0.5625 0.351562 0.695312
v 0.585938 0.289062 0.6875
v -0.585938 0.289062 0.6875
v 0.578125 0.195312 0.679688
v -0.578125 0.195312 0.679688
v 0.476562 0.101562 0.71875
v -0.476562 0.101562 0.71875
v 0.375 0.0625 0.742188
v -0.375 0.0625 0.742188
v 0.226562 0.109375 0.78125
v -0.226562 0.109375 0.78125
v 0.179688 0.296875 0.78125
v -0.179688 0.296875 0.78125
v 0.210938 0.375 0.78125
v -0.210938 0.375 0.78125
v 0.234375 0.359375 0.757812
v -0.234375 0.359375 0.757812
v 0.195312 0.296875 0.757812
v -0.195312 0.296875 0.757812
v 0.242188 0.125 0.757812
v -0.242188 0.125 0.757812
v 0.375 0.085938 0.726562
v -0.375 0.085938 0.726562
v 0.460938 0.117188 0.703125
v -0.460938 0.117188 0.703125
v 0.546875 0.210938 0.671875
v -0.546875 0.210938 0.671875
v 0.554688 0.28125 0.671875
v -0.554688 0.28125 0.671875
v 0.53125 0.335938 0.679688
v -0.53125 0.335938 0.679688
v 0.414062 0.390625 0.75
v -0.414062 0.390625 0.75
v 0.28125 0.398438 0.765625
v -0.28125 0.398438 0.765625
v 0.335938 0.40625 0.75
v -0.335938 0.40625 0.75
v 0.203125 0.171875 0.75
v -0.203125 0.171875 0.75
v 0.195312 0.226562 0.75
v -0.195312 0.226562 0.75
v 0.109375 0.460938 0.609375
v -0.109375 0.460938 0.609375
v 0.195312 0.664062 0.617188
v -0.195312 0.664062 0.617188
v 0.335938 0.6875 0.59375
v -0.335938 0.6875 0.59375
v 0.484375 0.554688 0.554688
v -0.484375 0.554688 0.554688
v 0.679688 0.453125 0.492188
v -0.679688 0.453125 0.492188
v 0.796875 0.40625 0.460938
v -0.796875 0.40625 0.460938
v 0.773438 0.164062 0.375
v -0.773438 0.164062 0.375
v 0.601562 0 0.414062
v -0.601562 0 0.414062
v 0.4375 -0.09375 0.46875
v -0.4375 -0.09375 0.46875
v 0 0.898438 0.289062
v 0 0.984375 -0.078125
v 0 -0.195312 -0.671875
v 0 -0.460938 0.1875
v 0 -0.976562 0.460938
v 0 -0.804688 0.34375
v 0 -0.570312 0.320312
v 0 -0.484375 0.28125
v 0.851562 0.234375 0.054688
v -0.851562 0.234375 0.054688
v 0.859375 0.320312 -0.046875
v -0.859375 0.320312 -0.046875
v 0.773438 0.265625 -0.4375
v -0.773438 0.265625 -0.4375
v 0.460938 0.4375 -0.703125
v -0.460938 0.4375 -0.703125
v 0.734375 -0.046875 0.070312
v -0.734375 -0.046875 0.070312
v 0.59375 -0.125 -0.164062
v -0.59375 -0.125 -0.164062
v 0.640625 -0.007812 -0.429688
v -0.640625 -0.007812 -0.429688
v 0.335938 0.054688 -0.664062
v -0.335938 0.054688 -0.664062
v 0.234375 -0.351562 0.40625
v -0.234375 -0.351562 0.40625
v 0.179688 -0.414062 0.257812
v -0.179688 -0.414062 0.257812
v 0.289062 -0.710938 0.382812
v -0.289062 -0.710938 0.382812
v 0.25 -0.5 0.390625
v -0.25 -0.5 0.390625
v 0.328125 -0.914062 0.398438
v -0.328125 -0.914062 0.398438
v 0.140625 -0.757812 0.367188
v -0.140625 -0.757812 0.367188
v 0.125 -0.539062 0.359375
v -0.125 -0.539062 0.359375
v 0.164062 -0.945312 0.4375
v -0.164062 -0.945312 0.4375
v 0.21875 -0.28125 0.429688
v -0.21875 -0.28125 0.429688
v 0.210938 -0.226562 0.46875
v -0.210938 -0.226562 0.46875
v 0.203125 -0.171875 0.5
v -0.203125 -0.171875 0.5
v 0.210938 -0.390625 0.164062
v -0.210938 -0.390625 0.164062
v 0.296875 -0.3125 -0.265625
v -0.296875 -0.3125 -0.265625
v 0.34375 -0.148438 -0.539062
v -0.34375 -0.148438 -0.539062
v 0.453125 0.867188 -0.382812
v -0.453125 0.867188 -0.382812
v 0.453125 0.929688 -0.070312
v -0.453125 0.929688 -0.070312
v 0.453125 0.851562 0.234375
v -0.453125 0.851562 0.234375
v 0.460938 0.523438 0.429688
v -0.460938 0.523438 0.429688
v 0.726562 0.40625 0.335938
v -0.726562 0.40625 0.335938
v 0.632812 0.453125 0.28125
v -0.632812 0.453125 0.28125
v 0.640625 0.703125 0.054688
v -0.640625 0.703125 0.054688
v 0.796875 0.5625 0.125
v -0.796875 0.5625 0.125
v 0.796875 0.617188 -0.117188
v -0.796875 0.617188 -0.117188
v 0.640625 0.75 -0.195312
v -0.640625 0.75 -0.195312
v 0.640625 0.679688 -0.445312
v -0.640625 0.679688 -0.445312
v 0.796875 0.539062 -0.359375
v -0.796875 0.539062 -0.359375
v 0.617188 0.328125 -0.585938
v -0.617188 0.328125 -0.585938
v 0.484375 0.023438 -0.546875
v -0.484375 0.023438 -0.546875
v 0.820312 0.328125 -0.203125
v -0.820312 0.328125 -0.203125
v 0.40625 -0.171875 0.148438
v -0.40625 -0.171875 0.148438
v 0.429688 -0.195312 -0.210938
v -0.429688 -0.195312 -0.210938
v 0.890625 0.40625 -0.234375
v -0.890625 0.40625 -0.234375
v 0.773438 -0.140625 -0.125
v -0.773438 -0.140625 -0.125
v 1.03906 -0.101562 -0.328125
v -1.03906 -0.101562 -0.328125
v 1.28125 0.054688 -0.429688
v -1.28125 0.054688 -0.429688
v 1.35156 0.320312 -0.421875
v -1.35156 0.320312 -0.421875
v 1.23438 0.507812 -0.421875
v -1.23438 0.507812 -0.421875
v 1.02344 0.476562 -0.3125
v -1.02344 0.476562 -0.3125
v 1.01562 0.414062 -0.289062
v -1.01562 0.414062 -0.289062
v 1.1875 0.4375 -0.390625
v -1.1875 0.4375 -0.390625
v 1.26562 0.289062 -0.40625
v -1.26562 0.289062 -0.40625
v 1.21094 0.078125 -0.40625
v -1.21094 0.078125 -0.40625
v 1.03125 -0.039062 -0.304688
v -1.03125 -0.039062 -0.304688
v 0.828125 -0.070312 -0.132812
v -0.828125 -0.070312 -0.132812
v 0.921875 0.359375 -0.21875
v -0.921875 0.359375 -0.21875
v 0.945312 0.304688 -0.289062
v -0.945312 0.304688 -0.289062
v 0.882812 -0.023438 -0.210938
v -0.882812 -0.023438 -0.210938
v 1.03906 0 -0.367188
v -1.03906 0 -0.367188
v 1.1875 0.09375 -0.445312
v -1.1875 0.09375 -0.445312
v 1.23438 0.25 -0.445312
v -1.23438 0.25 -0.445312
v 1.17188 0.359375 -0.4375
v -1.17188 0.359375 -0.4375
v 1.02344 0.34375 -0.359375
v -1.02344 0.34375 -0.359375
v 0.84375 0.289062 -0.210938
v -0.84375 0.289062 -0.210938
v 0.835938 0.171875 -0.273438
v -0.835938 0.171875 -0.273438
v 0.757812 0.09375 -0.273438
v -0.757812 0.09375 -0.273438
v 0.820312 0.085938 -0.273438
v -0.820312 0.085938 -0.273438
v 0.84375 0.015625 -0.273438
v -0.84375 0.015625 -0.273438
v 0.8125 -0.015625 -0.273438
v -0.8125 -0.015625 -0.273438
v 0.726562 0 -0.070312
v -0.726562 0 -0.070312
v 0.71875 -0.023438 -0.171875
v -0.71875 -0.023438 -0.171875
v 0.71875 0.039062 -0.1875
v -0.71875 0.039062 -0.1875
v 0.796875 0.203125 -0.210938
v -0.796875 0.203125 -0.210938
v 0.890625 0.242188 -0.265625
v -0.890625 0.242188 -0.265625
v 0.890625 0.234375 -0.320312
v -0.890625 0.234375 -0.320312
v 0.8125 -0.015625 -0.320312
v -0.8125 -0.015625 -0.320312
v 0.851562 0.015625 -0.320312
v -0.851562 0.015625 -0.320312
v 0.828125 0.078125 -0.320312
v -0.828125 0.078125 -0.320312
v 0.765625 0.09375 -0.320312
v -0.765625 0.09375 -0.320312
v 0.84375 0.171875 -0.320312
v -0.84375 0.171875 -0.320312
v 1.03906 0.328125 -0.414062
v -1.03906 0.328125 -0.414062
v 1.1875 0.34375 -0.484375
v -1.1875 0.34375 -0.484375
v 1.25781 0.242188 -0.492188
v -1.25781 0.242188 -0.492188
v 1.21094 0.085938 -0.484375
v -1.21094 0.085938 -0.484375
v 1.04688 0 -0.421875
v -1.04688 0 -0.421875
v 0.882812 -0.015625 -0.265625
v -0.882812 -0.015625 -0.265625
v 0.953125 0.289062 -0.34375
v -0.953125 0.289062 -0.34375
v 0.890625 0.109375 -0.328125
v -0.890625 0.109375 -0.328125
v 0.9375 0.0625 -0.335938
v -0.9375 0.0625 -0.335938
v 1 0.125 -0.367188
v -1 0.125 -0.367188
v 0.960938 0.171875 -0.351562
v -0.960938 0.171875 -0.351562
v 1.01562 0.234375 -0.375
v -1.01562 0.234375 -0.375
v 1.05469 0.1875 -0.382812
v -1.05469 0.1875 -0.382812
v 1.10938 0.210938 -0.390625
v -1.10938 0.210938 -0.390625
v 1.08594 0.273438 -0.390625
v -1.08594 0.273438 -0.390625
v 1.02344 0.4375 -0.484375
v -1.02344 0.4375 -0.484375
v 1.25 0.46875 -0.546875
v -1.25 0.46875 -0.546875
v 1.36719 0.296875 -0.5
v -1.36719 0.296875 -0.5
v 1.3125 0.054688 -0.53125
v -1.3125 0.054688 -0.53125
v 1.03906 -0.085938 -0.492188
v -1.03906 -0.085938 -0.492188
v 0.789062 -0.125 -0.328125
v -0.789062 -0.125 -0.328125
v 0.859375 0.382812 -0.382812
v -0.859375 0.382812 -0.382812
vn 0.6617 -0.2026 0.7219
vn -0.6617 -0.2026 0.7219
vn 0.8268 -0.3051 0.4725
vn -0.8268 -0.3051 0.4725
vn 0.4076 -0.7905 0.457
vn -0.4076 -0.7905 0.457
vn 0.3791 -0.5163 0.7679
vn -0.3791 -0.5163 0.7679
vn -0.0859 -0.5222 0.8485
vn 0.0859 -0.5222 0.8485
vn -0.2664 -0.8487 0.457
vn 0.2664 -0.8487 0.457
vn -0.7824 -0.3294 0.5285
vn 0.7606 -0.34 0.5531
vn -0.4706 -0.1981 0.8598
vn 0.4706 -0.1981 0.8598
vn -0.4649 0.1958 0.8634
vn 0.4649 0.1958 0.8634
vn -0.7656 0.3223 0.5568
vn 0.7683 0.3293 0.5488
vn -0.256 0.8073 0.5317
vn 0.2487 0.8249 0.5076
vn -0.0821 0.6023 0.794
vn 0.1017 0.5518 0.8277
vn 0.3329 0.5231 0.7846
vn -0.3861 0.5446 0.7445
vn 0.4246 0.7711 0.4745
vn -0.4059 0.7641 0.5014
vn 0.8251 0.2968 0.4808
vn -0.8299 0.294 0.4742
vn 0.6888 0.1868 0.7005
vn -0.6617 0.2026 0.7219
vn 0.84 0.3436 -0.42
vn -0.7816 0.3058 -0.5437
vn 0.2074 0.8296 -0.5185
vn -0.2037 0.8146 -0.5431
vn -0.4056 0.7605 -0.507
vn 0.4381 0.7988 -0.4123
vn -0.8642 0.3143 -0.3928
vn 0.7861 0.3276 -0.5241
vn -0.7783 -0.3538 -0.5188
vn 0.7782 -0.3538 -0.5188
vn -0.4381 -0.7988 -0.4123
vn 0.4381 -0.7988 -0.4123
vn 0.2037 -0.8146 -0.5431
vn -0.2037 -0.8146 -0.5431
vn 0.7683 -0.3293 -0.5488
vn -0.7683 -0.3293 -0.5488
vn 0.4 -0.0623 0.9144
vn -0.4 -0.0623 0.9144
vn 0.3069 -0.1754 0.9354
vn -0.3069 -0.1754 0.9354
vn 0.0945 -0.1835 0.9785
vn -0.0945 -0.1835 0.9785
vn -0.0624 -0.0283 0.9977
vn 0.0624 -0.0283 0.9977
vn -0.0624 0.026 0.9977
vn 0.0624 0.026 0.9977
vn 0.0996 0.1729 0.9799
vn -0.0996 0.1729 0.9799
vn 0.3036 0.1656 0.9383
vn -0.3036 0.1656 0.9383
vn 0.4002 0.0572 0.9147
vn -0.4002 0.0572 0.9147
vn 0.1367 -0.8748 0.4648
vn -0.1054 -0.8433 0.527
vn 0.2303 -0.8656 0.4447
vn -0.1916 -0.862 0.4693
vn 0.5788 -0.5049 0.6404
vn -0.5788 -0.5049 0.6404
vn 0.7763 -0.0633 0.6272
vn -0.7763 -0.0633 0.6272
vn 0.7471 0.1132 0.655
vn -0.7471 0.1132 0.655
vn 0.3747 -0.8345 0.404
vn -0.3747 -0.8345 0.404
vn 0.3557 -0.729 0.5848
vn -0.4177 -0.5751 0.7034
vn 0.6947 -0.4197 0.5841
vn -0.6947 -0.4197 0.5841
vn 0.7028 -0.3915 0.5939
vn -0.5537 -0.2978 0.7777
vn 0.3127 0.3425 0.886
vn -0.8227 0.3606 0.4395
vn 0.5091 0.6482 0.5663
vn -0.5041 0.6448 0.5745
vn 0.5977 0.5565 0.5771
vn -0.5977 0.5565 0.5771
vn -0.0486 0.656 0.7532
vn 0.0371 0.6685 0.7428
vn -0.7104 0.2715 0.6494
vn 0.7386 0.3768 0.559
vn -0.6013 0.5262 0.6013
vn 0.5774 0.5774 0.5774
vn 0.507 -0.6281 0.5903
vn -0.5364 -0.323 0.7797
vn 0.2226 -0.4694 0.8545
vn -0.2226 -0.4694 0.8545
vn -0.0348 -0.5792 0.8144
vn 0.1073 -0.501 0.8588
vn -0.0899 -0.7843 0.6138
vn 0.077 -0.5759 0.8139
vn 0.0547 -0.1695 0.984
vn -0.0279 -0.8645 0.5019
vn 0.426 -0.0609 0.9027
vn -0.1687 -0.3128 0.9347
vn 0.3352 -0.1828 0.9243
vn -0.435 -0.1812 0.882
vn 0.3579 -0.3068 0.8819
vn -0.3223 -0.2762 0.9054
vn 0.3069 0.2113 0.928
vn -0.4815 -0.2408 0.8427
vn -0.1598 0.3903 0.9067
vn 0.1598 0.3903 0.9067
vn 0.6819 -0.2915 0.6709
vn -0.1854 -0.4956 0.8485
vn 0.0585 -0.0781 0.9952
vn -0.0585 -0.0781 0.9952
vn -0.0066 -0.2316 0.9728
vn -0.0585 -0.0845 0.9947
vn 0.1008 -0.7103 0.6966
vn -0.1008 -0.7103 0.6966
vn 0.1322 -0.5947 0.793
vn -0.1322 -0.5947 0.793
vn 0.3128 -0.1662 0.9352
vn -0.3143 -0.3928 0.8642
vn 0.3288 -0.036 0.9437
vn -0.3288 -0.036 0.9437
vn 0.3233 -0.0808 0.9429
vn -0.3233 -0.0808 0.9429
vn -0.0232 0.0511 0.9984
vn -0 0.0665 0.9978
vn -0.0043 -0.0651 0.9979
vn -0 -0.0665 0.9978
vn -0 -0 1
vn 0.8447 -0.5335 0.0445
vn -0.8447 -0.5335 0.0445
vn 0.95 0.2692 -0.1583
vn -0.95 0.2692 -0.1583
vn 0.0693 0.9004 -0.4294
vn -0.1018 0.9165 -0.387
vn -1 -0 -0
vn 0.6905 0.5492 0.4708
vn 0.4071 -0.8956 0.1791
vn -0.4319 -0.8639 0.2592
vn 0.2873 -0.5747 0.7663
vn -0.2873 -0.5747 0.7663
vn -0.6326 0.5353 0.5596
vn 0.6326 0.5353 0.5596
vn 0.0862 0.7759 0.625
vn -0.0862 0.7759 0.625
vn 0.7532 0.287 0.5918
vn -0.7639 0.2971 0.5729
vn 0.3416 -0.5409 0.7686
vn -0.3416 -0.5409 0.7686
vn 0.0502 0.2343 0.9709
vn -0.0375 0.2247 0.9737
vn -0.1304 -0.6087 0.7826
vn 0.1304 -0.6087 0.7826
vn -0.5059 0.0716 0.8596
vn 0.5059 0.0716 0.8596
vn -0.5774 -0.5774 0.5774
vn 0.5774 -0.5774 0.5774
vn 0.546 -0.431 0.7184
vn -0.3319 0.0738 0.9404
vn 0.3231 0.0311 0.9459
vn -0.2815 0.0662 0.9573
vn 0.7357 0.391 0.5531
vn -0.8753 0.2059 0.4376
vn 0.848 0.318 0.424
vn -0.8973 0.1994 0.3938
vn 0.8505 0.3798 0.3638
vn -0.8505 0.3798 0.3638
vn 0.1783 -0.4161 0.8917
vn -0.2524 -0.8655 0.4327
vn -0.1296 -0.1945 0.9723
vn 0.1296 -0.1945 0.9723
vn -0.4472 -0 0.8944
vn 0.4472 -0 0.8944
vn -0.1582 0.9494 0.2713
vn 0.1582 0.9494 0.2713
vn -0.6463 0.7337 0.2096
vn 0.6463 0.7337 0.2096
vn 1 -0 -0
vn 0.3051 -0.945 0.1181
vn -0.3051 -0.945 0.1181
vn 0.0217 -0.3031 0.9527
vn -0.0217 -0.3031 0.9527
vn 0.1353 -0.3479 0.9277
vn -0.1353 -0.3479 0.9277
vn -0.4681 -0.2239 0.8548
vn 0.4681 -0.2239 0.8548
vn -0.271 0.0271 0.9622
vn 0.271 0.0271 0.9622
vn -0.1717 -0.009 0.9851
vn 0.2595 0.1038 0.9601
vn -0.4332 -0.4874 0.7581
vn 0.6684 -0.4595 0.5849
vn -0.1599 -0.8797 0.4478
vn 0.1599 -0.8797 0.4478
vn 0.39 -0.5895 0.7074
vn -0.39 -0.5895 0.7074
vn 0.6547 -0.4589 0.6007
vn -0.6547 -0.4589 0.6007
vn 0.5378 -0.1144 0.8353
vn -0.5378 -0.1144 0.8353
vn 0.5657 0.1197 0.8159
vn -0.5774 0.1155 0.8083
vn 0.4082 0.4082 0.8165
vn -0.5214 0.6574 0.5441
vn 0.1796 0.7882 0.5886
vn -0.1796 0.7882 0.5886
vn 0.1881 0.3387 0.9219
vn -0.1881 0.3387 0.9219
vn -0.087 0.2756 0.9573
vn 0.087 0.2756 0.9573
vn 0.2804 -0.2181 0.9348
vn -0.3553 -0.5739 0.7379
vn 0.3015 -0.3015 0.9045
vn -0.3015 -0.3015 0.9045
vn -0.3766 -0.8339 0.4035
vn 0.0631 -0.3156 0.9468
vn 0.0823 -0.7822 0.6175
vn 0.2016 -0.9071 0.3696
vn -0.3707 -0.2851 0.8839
vn 0.3707 -0.2851 0.8839
vn -0.2692 -0.0577 0.9614
vn 0.4568 0.0508 0.8881
vn -0.2797 0.5245 0.8042
vn 0.2797 0.5245 0.8042
vn -0.0213 0.5546 0.8319
vn 0.0487 0.6815 0.7302
vn 0.3778 0.6342 0.6746
vn -0.3378 0.5221 0.7831
vn 0.4988 0.53 0.6858
vn -0.4988 0.53 0.6858
vn 0.5425 -0.3391 0.7686
vn -0.5425 -0.3391 0.7686
vn 0.8305 -0.0615 0.5536
vn -0.8305 -0.0615 0.5536
vn 0.7814 0.1116 0.614
vn -0.7814 0.1116 0.614
vn -0.4338 0.8888 -0.1481
vn 0.4338 0.8888 -0.1481
vn -0.8515 0.3744 -0.367
vn 0.8515 0.3744 -0.367
vn -0.2664 0.871 -0.4127
vn 0.2197 0.8626 -0.4557
vn 0.5932 0.7445 -0.3063
vn -0.5914 0.7489 -0.2991
vn 0.3714 0.8685 -0.3284
vn -0.3653 0.8833 -0.2938
vn 0.2901 0.9141 -0.2833
vn -0.2901 0.9141 -0.2833
vn 0.8873 0.1343 -0.4412
vn -0.7964 0.1323 -0.5901
vn 0.5108 -0.6649 -0.545
vn -0.5108 -0.6649 -0.545
vn 0.3695 -0.8566 -0.3601
vn -0.3695 -0.8566 -0.3601
vn 0.3617 -0.3858 -0.8487
vn -0.1649 -0.6644 -0.7289
vn 0.1952 -0.0976 -0.9759
vn -0.3011 -0.0125 -0.9535
vn -0.0107 -0.5633 -0.8262
vn -0.2562 -0.3112 -0.9152
vn 0.1533 -0.9649 -0.2134
vn -0.1533 -0.9649 -0.2134
vn 0.126 -0.9624 -0.2406
vn -0.126 -0.9624 -0.2406
vn 0.9396 0.1573 -0.3041
vn -0.9396 0.1573 -0.3041
vn 0.9278 0.1838 -0.3246
vn -0.9278 0.1838 -0.3246
vn 0.2192 0.0766 -0.9727
vn -0.2192 0.0766 -0.9727
vn 0.1211 -0.053 -0.9912
vn 0.1497 -0.3635 -0.9195
vn 0.9094 0.1371 -0.3927
vn -0.3706 -0.678 -0.6349
vn 0.9202 0.1355 -0.3672
vn -0.9202 0.1355 -0.3672
vn 0.9173 0.344 -0.2007
vn -0.9457 0.2673 -0.185
vn 0.9004 0.3642 -0.238
vn -0.9337 0.2813 -0.2215
vn 0.8945 0.4337 0.1084
vn -0.9501 0.2455 -0.1922
vn 0.1596 -0.9577 -0.2394
vn -0.1835 -0.7864 -0.5898
vn 0.3693 -0.4712 -0.801
vn -0.3727 -0.4759 -0.7966
vn 0.2986 -0.8236 -0.4821
vn -0.3263 -0.8342 -0.4446
vn 0.2995 -0.9442 -0.1368
vn -0.2995 -0.9442 -0.1368
vn 0.3287 -0.9163 -0.2291
vn -0.3287 -0.9163 -0.2291
vn 0.8305 0.3333 -0.4463
vn -0.8642 -0.4737 0.1696
vn 0.9166 -0.374 0.1414
vn -0.9166 -0.374 0.1414
vn 0.295 -0.0454 -0.9544
vn -0.4189 -0.2265 -0.8793
vn 0.1272 0.9658 0.226
vn -0.1119 0.9626 0.2468
vn 0.132 0.975 -0.1788
vn -0.132 0.975 -0.1788
vn 0.3878 0.6192 -0.6828
vn -0.3878 0.6192 -0.6828
vn 0.4951 0.8618 -0.11
vn -0.4951 0.8618 -0.11
vn 0.2561 0.6447 0.7202
vn -0.2561 0.6447 0.7202
vn 0.5966 0.7888 0.1479
vn -0.5966 0.7888 0.1479
vn 0.7125 0.6755 -0.19
vn -0.7125 0.6755 -0.19
vn 0.7104 0.1364 -0.6904
vn -0.6304 0.2517 -0.7343
vn 0.6823 0.2318 -0.6933
vn -0.6823 0.2318 -0.6933
vn 0.6574 0.7254 -0.204
vn -0.6574 0.7254 -0.204
vn 0.7289 0.6729 0.1262
vn -0.7289 0.6729 0.1262
vn 0.7791 0.4074 0.4764
vn -0.7791 0.4074 0.4764
vn 0.3669 0.884 -0.2898
vn -0.3238 0.9434 -0.072
vn 0.2854 0.6237 0.7277
vn -0.1548 0.508 0.8473
vn -0.1681 0.1005 -0.9806
vn 0.1681 0.1005 -0.9806
vn 0.2925 0.5674 0.7697
vn -0.2925 0.5674 0.7697
vn -0.1616 0.1847 0.9694
vn 0.1616 0.1847 0.9694
vn 0.8681 0.0893 -0.4883
vn -0.934 0.2255 0.2773
vn 0.9276 0.0762 0.3657
vn -0.9276 0.0762 0.3657
vn 0.975 0.2169 0.049
vn -0.975 0.2169 0.049
vn 0.9817 -0.0304 -0.1882
vn -0.9956 0.0893 -0.0288
vn 0.7466 -0.6646 0.0285
vn -0.6374 -0.7651 0.0915
vn 0.3723 -0.9243 0.0847
vn -0.372 -0.9244 0.0845
vn 0.3986 -0.8754 0.2734
vn -0.3986 -0.8754 0.2734
vn 0.6328 -0.7642 0.1247
vn -0.6328 -0.7642 0.1247
vn 0.7325 -0.6368 0.2407
vn -0.7325 -0.6368 0.2407
vn 0.2637 -0.4499 0.8533
vn -0.2637 -0.4499 0.8533
vn 0.5881 -0.307 -0.7483
vn -0.5236 -0.329 -0.7859
vn 0.4694 -0.24 -0.8498
vn -0.5396 -0.3343 -0.7727
vn 0.4463 -0.8452 -0.2941
vn -0.2144 -0.8341 -0.5082
vn 0.6973 -0.661 -0.2771
vn -0.7365 -0.6154 -0.2808
vn 0.4972 -0.4408 -0.7473
vn -0.4972 -0.4408 -0.7473
vn 0.3691 0.2855 0.8844
vn -0.3244 0.4867 0.8111
vn 0.4467 0.0975 0.8894
vn -0.4467 0.0975 0.8894
vn 0.3188 0.1993 0.9266
vn -0.1817 -0.0079 0.9833
vn 0.2076 -0.0836 0.9746
vn -0.2925 -0.0758 0.9533
vn 0.3398 0.0824 0.9369
vn -0.5847 -0.2198 0.7809
vn 0.5957 -0.385 0.7049
vn -0.5957 -0.385 0.7049
vn 0.4843 0.558 0.6738
vn -0.4843 0.558 0.6738
vn -0.2675 0.8318 0.4864
vn 0.2675 0.8318 0.4864
vn -0.8576 0.2223 0.4637
vn 0.7885 0.2366 0.5677
vn -0.5257 -0.3579 0.7717
vn 0.5242 -0.3548 0.7742
vn 0.4663 -0.5991 0.6509
vn -0.439 -0.5252 0.729
vn 0.7104 -0.4567 0.5356
vn -0.7104 -0.4567 0.5356
vn 0.7507 -0.6131 -0.2461
vn -0.6302 -0.7658 0.1282
vn -0.1788 0.2923 0.9395
vn 0.2175 0.2733 0.937
vn 0.9042 -0.3578 -0.2332
vn -0.9042 -0.3578 -0.2332
vn 0.04 0.3399 0.9396
vn -0.04 0.3399 0.9396
vn 0.2734 0.9064 0.3221
vn -0.2734 0.9064 0.3221
vn 0.448 -0.448 0.7737
vn -0.7177 0.1689 0.6755
vn 0.5534 -0.5534 0.6225
vn -0.9008 -0.4075 0.1501
vn 0.5724 -0.3122 0.7582
vn -0.5815 -0.5217 0.6243
vn 0.5597 -0.5533 0.6169
vn -0.6138 -0.2571 0.7465
vn 0.8271 0.5323 -0.1802
vn -0.8271 0.5323 -0.1802
vn 0.9227 -0.3765 -0.0825
vn -0.8717 -0.4446 -0.2063
vn 0.9972 -0.0181 -0.0725
vn -0.9972 -0.0181 -0.0725
vn 0.6895 -0.6644 0.2883
vn -0.6895 -0.6644 0.2883
vn 0.7815 -0.6176 0.0882
vn -0.793 -0.5947 0.1322
vn 0.7022 -0.7022 0.117
vn -0.7022 -0.7022 0.117
vn 0.124 0.9921 0.0207
vn -0.2408 0.9631 -0.1204
vn 0.9435 0.3145 0.1048
vn -0.9251 0.3469 0.1542
vn 0.6213 -0.7767 0.1036
vn -0.6213 -0.7767 0.1036
vn -0 1 -0
vn 0.6197 -0.6899 0.3742
vn -0.6197 -0.6899 0.3742
vn 0.2752 -0.8808 0.3853
vn -0.2752 -0.8808 0.3853
vn -0.7929 -0.5252 -0.3089
vn 0.7929 -0.5252 -0.3089
vn -0.8096 0.2429 -0.5343
vn 0.8538 0.2328 -0.4657
vn -0.5621 0.8231 -0.0803
vn 0.5433 0.6985 -0.4657
vn -0.0071 0.9899 0.1414
vn 0.1096 0.9939 -0.0157
vn 0.1046 0.0392 0.9937
vn -0.1738 0.0097 0.9847
vn 0.2461 0.0852 0.9655
vn -0.4134 0.0413 0.9096
vn 0.3009 0.0926 0.9491
vn -0.3009 0.0926 0.9491
vn 0.2104 0.0124 0.9775
vn -0.122 0.0458 0.9915
vn -0.0099 0.3867 0.9221
vn 0.0099 0.3867 0.9221
vn 0.3787 -0.0364 0.9248
vn -0.4244 -0.032 0.9049
vn 0.253 -0.1897 0.9487
vn -0.257 0.0723 0.9637
vn -0.487 0.6088 0.6262
vn 0.2981 0.7454 0.5963
vn 0.6693 0.1802 0.7208
vn -0.6693 0.1802 0.7208
vn 0.4388 -0.2008 0.8759
vn -0.4723 -0.1986 0.8588
vn 0.5786 -0.1334 0.8046
vn -0.2975 -0.4062 0.864
vn 0.5002 0.2833 0.8182
vn -0.5002 0.2833 0.8182
vn 0.298 0.5802 0.758
vn -0.298 0.5802 0.758
vn 0.0929 -0.9912 -0.0944
vn -0.0929 -0.9912 -0.0944
vn 0.4688 -0.8715 0.1442
vn -0.4688 -0.8715 0.1442
vn 0.9309 -0.2541 0.2624
vn -0.9264 -0.246 0.2851
vn 0.8465 0.5291 -0.0595
vn -0.8267 0.5627 -0.0035
vn -0.2511 0.9439 -0.2145
vn 0.2146 0.9243 -0.3157
vn -0.4841 0.8743 -0.0361
vn 0.4196 0.8851 -0.2012
vn -0.5256 -0.003 -0.8507
vn 0.547 -0.0144 -0.837
vn -0.1466 0.0104 -0.9891
vn 0.1466 0.0104 -0.9891
vn 0.4046 0.0266 -0.9141
vn -0.4046 0.0266 -0.9141
vn -0.8073 0.5901 0.0041
vn 0.733 0.6786 0.0472
vn 0.42 -0.2291 -0.8781
vn -0.42 -0.2291 -0.8781
vn -0.0687 -0.9943 -0.0818
vn 0.0687 -0.9943 -0.0818
vn 0.6713 -0.1971 0.7145
vn -0.6713 -0.1971 0.7145
vn 0.8326 -0.3017 0.4646
vn -0.8326 -0.3017 0.4646
vn 0.4258 -0.7967 0.429
vn -0.4258 -0.7967 0.429
vn 0.3265 -0.4954 0.805
vn -0.3265 -0.4954 0.805
vn -0.0649 -0.5714 0.8181
vn 0.0649 -0.5714 0.8181
vn -0.2738 -0.8315 0.4834
vn 0.2738 -0.8315 0.4834
vn -0.7606 -0.34 0.5531
vn 0.7824 -0.3294 0.5285
vn -0.4658 -0.1863 0.8651
vn 0.4658 -0.1863 0.8651
vn -0.4983 0.1812 0.8478
vn 0.4983 0.1812 0.8478
vn -0.7683 0.3293 0.5488
vn 0.7656 0.3223 0.5568
vn -0.2487 0.8249 0.5076
vn 0.256 0.8073 0.5317
vn -0.1017 0.5518 0.8277
vn 0.0821 0.6023 0.794
vn 0.3861 0.5446 0.7445
vn -0.3329 0.5231 0.7846
vn 0.4059 0.7641 0.5014
vn -0.4246 0.7711 0.4745
vn 0.8299 0.294 0.4742
vn -0.8251 0.2968 0.4808
vn 0.6617 0.2026 0.7219
vn -0.6888 0.1868 0.7005
vn 0.7816 0.3058 -0.5437
vn -0.84 0.3436 -0.42
vn 0.2037 0.8146 -0.5431
vn -0.2074 0.8296 -0.5185
vn -0.4381 0.7988 -0.4123
vn 0.4056 0.7605 -0.507
vn -0.7861 0.3276 -0.5241
vn 0.8642 0.3143 -0.3928
vn -0.8519 -0.3408 -0.3976
vn 0.8519 -0.3408 -0.3976
vn -0.4056 -0.7605 -0.507
vn 0.4056 -0.7605 -0.507
vn 0.2074 -0.8296 -0.5185
vn -0.2074 -0.8296 -0.5185
vn 0.8297 -0.3734 -0.4149
vn -0.8297 -0.3734 -0.4149
vn 0.1054 -0.8433 0.527
vn -0.1367 -0.8748 0.4648
vn 0.1916 -0.862 0.4693
vn -0.2303 -0.8656 0.4447
vn 0.5959 -0.4256 0.681
vn -0.5959 -0.4256 0.681
vn 0.7563 -0.0299 0.6535
vn -0.7563 -0.0299 0.6535
vn 0.8069 0.0689 0.5866
vn -0.8069 0.0689 0.5866
vn 0.2334 -0.7779 0.5834
vn -0.2334 -0.7779 0.5834
vn 0.4177 -0.5751 0.7034
vn -0.3557 -0.729 0.5848
vn 0.6872 -0.4191 0.5934
vn -0.6872 -0.4191 0.5934
vn 0.5537 -0.2978 0.7777
vn -0.7028 -0.3915 0.5939
vn 0.8227 0.3606 0.4395
vn -0.3127 0.3425 0.886
vn 0.5041 0.6448 0.5745
vn -0.5091 0.6482 0.5663
vn 0.6155 0.4924 0.6155
vn -0.6155 0.4924 0.6155
vn -0.0371 0.6685 0.7428
vn 0.0486 0.656 0.7532
vn -0.7386 0.3768 0.559
vn 0.7104 0.2715 0.6494
vn -0.5774 0.5774 0.5774
vn 0.6013 0.5262 0.6013
vn 0.5364 -0.323 0.7797
vn -0.507 -0.6281 0.5903
vn 0.2181 -0.4685 0.8561
vn -0.2181 -0.4685 0.8561
vn -0.1073 -0.501 0.8588
vn 0.0348 -0.5792 0.8144
vn -0.077 -0.5759 0.8139
vn 0.0899 -0.7843 0.6138
vn 0.0279 -0.8645 0.5019
vn -0.0547 -0.1695 0.984
vn 0.1687 -0.3128 0.9347
vn -0.426 -0.0609 0.9027
vn 0.435 -0.1812 0.882
vn -0.3352 -0.1828 0.9243
vn 0.3223 -0.2762 0.9054
vn -0.3579 -0.3068 0.8819
vn 0.4815 -0.2408 0.8427
vn -0.3069 0.2113 0.928
vn -0.0317 -0.1899 0.9813
vn 0.0317 -0.1899 0.9813
vn 0.1854 -0.4956 0.8485
vn -0.6819 -0.2915 0.6709
vn 0.2623 -0.3498 0.8994
vn -0.2623 -0.3498 0.8994
vn 0.0585 -0.0845 0.9947
vn 0.0066 -0.2316 0.9728
vn -0.0136 -0.6507 0.7592
vn 0.0136 -0.6507 0.7592
vn 0.2404 -0.5476 0.8014
vn -0.2404 -0.5476 0.8014
vn 0.3143 -0.3928 0.8642
vn -0.3128 -0.1662 0.9352
vn 0.2821 -0.0164 0.9592
vn -0.2821 -0.0164 0.9592
vn 0.3273 -0.1432 0.934
vn -0.3273 -0.1432 0.934
vn 0.0232 0.0511 0.9984
vn 0.0043 -0.0651 0.9979
vn 0.7826 -0.6087 -0.1304
vn -0.7826 -0.6087 -0.1304
vn 0.9448 0.1919 -0.2657
vn -0.9448 0.1919 -0.2657
vn 0.1018 0.9165 -0.387
vn -0.0693 0.9004 -0.4294
vn -0.6905 0.5492 0.4708
vn 0.4319 -0.8639 0.2592
vn -0.4071 -0.8956 0.1791
vn -0.6667 0.6667 0.3333
vn 0.6667 0.6667 0.3333
vn 0.1348 0.8086 0.5727
vn -0.1348 0.8086 0.5727
vn 0.7639 0.2971 0.5729
vn -0.7532 0.287 0.5918
vn 0.4116 -0.8575 0.3087
vn -0.4116 -0.8575 0.3087
vn 0.0375 0.2247 0.9737
vn -0.0502 0.2343 0.9709
vn 0.1304 -0.2609 0.9565
vn -0.1304 -0.2609 0.9565
vn -0.0631 -0.8206 0.5681
vn 0.0631 -0.8206 0.5681
vn 0.7325 0.2817 0.6198
vn -0.7325 0.2817 0.6198
vn 0.3319 0.0738 0.9404
vn -0.546 -0.431 0.7184
vn 0.2815 0.0662 0.9573
vn -0.3231 0.0311 0.9459
vn 0.8753 0.2059 0.4376
vn -0.7357 0.391 0.5531
vn 0.8973 0.1994 0.3938
vn -0.848 0.318 0.424
vn 0.9586 0.0664 0.2767
vn -0.9586 0.0664 0.2767
vn 0.2524 -0.8655 0.4327
vn -0.1783 -0.4161 0.8917
vn -0.1751 -0.2043 0.9631
vn 0.1751 -0.2043 0.9631
vn -0.1219 -0.1829 0.9755
vn 0.1219 -0.1829 0.9755
vn -0.1562 0.3123 0.937
vn 0.1562 0.3123 0.937
vn -0.7238 0.6857 0.0762
vn 0.7238 0.6857 0.0762
vn 0.0478 -0.287 0.9567
vn -0.0478 -0.287 0.9567
vn -0.5488 -0.3293 0.7683
vn 0.5488 -0.3293 0.7683
vn -0.4945 -0.113 0.8618
vn 0.4945 -0.113 0.8618
vn -0.2595 0.1038 0.9601
vn 0.1717 -0.009 0.9851
vn -0.6684 -0.4595 0.5849
vn 0.4332 -0.4874 0.7581
vn -0.1156 -0.6359 0.7631
vn 0.1156 -0.6359 0.7631
vn 0.4242 -0.6211 0.659
vn -0.4242 -0.6211 0.659
vn 0.4767 -0.3557 0.8039
vn -0.4767 -0.3557 0.8039
vn 0.5871 -0.0839 0.8052
vn -0.5871 -0.0839 0.8052
vn 0.5774 0.1155 0.8083
vn -0.5657 0.1197 0.8159
vn 0.5214 0.6574 0.5441
vn -0.4082 0.4082 0.8165
vn 0.3358 0.3478 0.8754
vn -0.3358 0.3478 0.8754
vn 0.1452 0.3774 0.9146
vn -0.1452 0.3774 0.9146
vn 0.0301 0.2306 0.9726
vn -0.0301 0.2306 0.9726
vn 0.3553 -0.5739 0.7379
vn -0.2804 -0.2181 0.9348
vn 0.2627 -0.2252 0.9382
vn -0.2627 -0.2252 0.9382
vn -0.0631 -0.3156 0.9468
vn 0.3766 -0.8339 0.4035
vn -0.2016 -0.9071 0.3696
vn -0.0823 -0.7822 0.6175
vn -0.3356 -0.2397 0.911
vn 0.3356 -0.2397 0.911
vn -0.4568 0.0508 0.8881
vn 0.2692 -0.0577 0.9614
vn -0.0247 0.4072 0.913
vn 0.0247 0.4072 0.913
vn -0.0487 0.6815 0.7302
vn 0.0213 0.5546 0.8319
vn 0.3378 0.5221 0.7831
vn -0.3778 0.6342 0.6746
vn 0.7895 -0.3158 0.5263
vn -0.7895 -0.3158 0.5263
vn 0.807 -0.0807 0.5851
vn -0.807 -0.0807 0.5851
vn 0.7868 0.121 0.6052
vn -0.7868 0.121 0.6052
vn -0.6357 0.6811 -0.3633
vn 0.6357 0.6811 -0.3633
vn -0.8507 0.365 -0.3783
vn 0.8507 0.365 -0.3783
vn -0.2197 0.8626 -0.4557
vn 0.2664 0.871 -0.4127
vn 0.5914 0.7489 -0.2991
vn -0.5932 0.7445 -0.3063
vn 0.3653 0.8833 -0.2938
vn -0.3714 0.8685 -0.3284
vn 0.276 0.9159 -0.2915
vn -0.276 0.9159 -0.2915
vn 0.7964 0.1323 -0.5901
vn -0.8873 0.1343 -0.4412
vn 0.5442 -0.7524 -0.3712
vn -0.5442 -0.7524 -0.3712
vn 0.4027 -0.7323 -0.5492
vn -0.4027 -0.7323 -0.5492
vn 0.1649 -0.6644 -0.7289
vn -0.3617 -0.3858 -0.8487
vn 0.3011 -0.0125 -0.9535
vn -0.1952 -0.0976 -0.9759
vn 0.2562 -0.3112 -0.9152
vn 0.0107 -0.5633 -0.8262
vn 0.0779 -0.9948 -0.0663
vn -0.0779 -0.9948 -0.0663
vn 0.1094 -0.9718 -0.2089
vn -0.1094 -0.9718 -0.2089
vn 0.815 -0.5621 -0.1405
vn -0.815 -0.5621 -0.1405
vn 0.9358 0.1396 -0.3236
vn -0.9358 0.1396 -0.3236
vn 0.1132 -0.0274 -0.9932
vn -0.1132 -0.0274 -0.9932
vn -0.1497 -0.3635 -0.9195
vn -0.1211 -0.053 -0.9912
vn 0.3706 -0.678 -0.6349
vn -0.9094 0.1371 -0.3927
vn 0.9193 0.1393 -0.3682
vn -0.9193 0.1393 -0.3682
vn 0.9457 0.2673 -0.185
vn -0.9173 0.344 -0.2007
vn 0.9337 0.2813 -0.2215
vn -0.9004 0.3642 -0.238
vn 0.9501 0.2455 -0.1922
vn -0.8945 0.4337 0.1084
vn 0.1835 -0.7864 -0.5898
vn -0.1596 -0.9577 -0.2394
vn 0.3727 -0.4759 -0.7966
vn -0.3693 -0.4712 -0.801
vn 0.3263 -0.8342 -0.4446
vn -0.2986 -0.8236 -0.4821
vn 0.262 -0.9574 -0.1217
vn -0.262 -0.9574 -0.1217
vn 0.2996 -0.9443 -0.1362
vn -0.2996 -0.9443 -0.1362
vn 0.8642 -0.4737 0.1696
vn -0.8305 0.3333 -0.4463
vn 0.6869 -0.6358 0.3521
vn -0.6869 -0.6358 0.3521
vn 0.4189 -0.2265 -0.8793
vn -0.295 -0.0454 -0.9544
vn 0.1119 0.9626 0.2468
vn -0.1272 0.9658 0.226
vn 0.1208 0.9734 -0.1947
vn -0.1208 0.9734 -0.1947
vn 0.314 0.5711 -0.7585
vn -0.314 0.5711 -0.7585
vn 0.3231 0.9288 -0.1817
vn -0.3231 0.9288 -0.1817
vn 0.0452 0.7955 0.6043
vn -0.0452 0.7955 0.6043
vn 0.6144 0.7696 0.1738
vn -0.6144 0.7696 0.1738
vn 0.6935 0.6857 -0.2212
vn -0.6935 0.6857 -0.2212
vn 0.6304 0.2517 -0.7343
vn -0.7104 0.1364 -0.6904
vn 0.3179 0.5704 -0.7574
vn -0.3179 0.5704 -0.7574
vn 0.6289 0.7624 -0.1525
vn -0.6289 0.7624 -0.1525
vn 0.7088 0.6833 0.1752
vn -0.7088 0.6833 0.1752
vn 0.6885 0.383 0.6158
vn -0.6885 0.383 0.6158
vn 0.3238 0.9434 -0.072
vn -0.3669 0.884 -0.2898
vn 0.1548 0.508 0.8473
vn -0.2854 0.6237 0.7277
vn -0.1819 0.1145 -0.9766
vn 0.1819 0.1145 -0.9766
vn -0.2638 0.9462 -0.1871
vn 0.2638 0.9462 -0.1871
vn 0.934 0.2255 0.2773
vn -0.8681 0.0893 -0.4883
vn 0.9758 0.1241 0.18
vn -0.9758 0.1241 0.18
vn 0.9613 0.1472 -0.233
vn -0.9613 0.1472 -0.233
vn 0.9956 0.0893 -0.0288
vn -0.9817 -0.0304 -0.1882
vn 0.6374 -0.7651 0.0915
vn -0.7466 -0.6646 0.0285
vn 0.372 -0.9244 0.0845
vn -0.3723 -0.9243 0.0847
vn 0.5281 -0.8354 0.1522
vn -0.5281 -0.8354 0.1522
vn 0.307 -0.5237 0.7946
vn -0.307 -0.5237 0.7946
vn 0.5236 -0.329 -0.7859
vn -0.5881 -0.307 -0.7483
vn 0.5396 -0.3343 -0.7727
vn -0.4694 -0.24 -0.8498
vn 0.2144 -0.8341 -0.5082
vn -0.4463 -0.8452 -0.2941
vn 0.7365 -0.6154 -0.2808
vn -0.6973 -0.661 -0.2771
vn 0.3244 0.4867 0.8111
vn -0.3691 0.2855 0.8844
vn 0.4649 0.2593 0.8465
vn -0.4649 0.2593 0.8465
vn 0.1817 -0.0079 0.9833
vn -0.3188 0.1993 0.9266
vn 0.2925 -0.0758 0.9533
vn -0.2076 -0.0836 0.9746
vn 0.5847 -0.2198 0.7809
vn -0.3398 0.0824 0.9369
vn 0.6509 -0.1939 0.734
vn -0.6509 -0.1939 0.734
vn 0.4075 0.7506 0.5201
vn -0.4075 0.7506 0.5201
vn -0.2655 0.8296 0.4911
vn 0.2655 0.8296 0.4911
vn -0.7885 0.2366 0.5677
vn 0.8576 0.2223 0.4637
vn -0.5242 -0.3548 0.7742
vn 0.5257 -0.3579 0.7717
vn 0.439 -0.5252 0.729
vn -0.4663 -0.5991 0.6509
vn 0.6888 -0.4428 0.574
vn -0.6888 -0.4428 0.574
vn 0.6302 -0.7658 0.1282
vn -0.7507 -0.6131 -0.2461
vn -0.2175 0.2733 0.937
vn 0.1788 0.2923 0.9395
vn 0.9046 -0.3869 -0.1792
vn -0.9046 -0.3869 -0.1792
vn 0.1782 -0.0891 0.98
vn -0.1782 -0.0891 0.98
vn -0.2335 0.8972 0.3749
vn 0.2335 0.8972 0.3749
vn 0.7177 0.1689 0.6755
vn -0.448 -0.448 0.7737
vn 0.5313 0.5844 0.6134
vn -0.5313 0.5844 0.6134
vn 0.9008 -0.4075 0.1501
vn -0.5534 -0.5534 0.6225
vn 0.5815 -0.5217 0.6243
vn -0.5724 -0.3122 0.7582
vn 0.6138 -0.2571 0.7465
vn -0.5597 -0.5533 0.6169
vn 0.8779 -0.4788 0.0076
vn -0.8779 -0.4788 0.0076
vn 0.8717 -0.4446 -0.2063
vn -0.9227 -0.3765 -0.0825
vn 0.7661 -0.6363 0.0909
vn -0.7661 -0.6363 0.0909
vn 0.793 -0.5947 0.1322
vn -0.7815 -0.6176 0.0882
vn 0.2408 0.9631 -0.1204
vn -0.124 0.9921 0.0207
vn 0.9251 0.3469 0.1542
vn -0.9435 0.3145 0.1048
vn 0.7071 -0.7071 -0
vn -0.7071 -0.7071 -0
vn -0.0157 0.9898 0.1414
vn 0.0157 0.9898 0.1414
vn 0.6266 -0.7211 0.2956
vn -0.6266 -0.7211 0.2956
vn 0.2714 -0.9022 0.3353
vn -0.2714 -0.9022 0.3353
vn -0.8651 -0.4853 -0.1266
vn 0.8651 -0.4853 -0.1266
vn -0.8538 0.2328 -0.4657
vn 0.8096 0.2429 -0.5343
vn -0.5433 0.6985 -0.4657
vn 0.5621 0.8231 -0.0803
vn -0.1096 0.9939 -0.0157
vn 0.0071 0.9899 0.1414
vn 0.1738 0.0097 0.9847
vn -0.1046 0.0392 0.9937
vn 0.4134 0.0413 0.9096
vn -0.2461 0.0852 0.9655
vn 0.3228 -0.0461 0.9453
vn -0.3228 -0.0461 0.9453
vn 0.122 0.0458 0.9915
vn -0.2104 0.0124 0.9775
vn 0.5679 0.1916 0.8005
vn -0.5679 0.1916 0.8005
vn 0.4244 -0.032 0.9049
vn -0.3787 -0.0364 0.9248
vn 0.257 0.0723 0.9637
vn -0.253 -0.1897 0.9487
vn 0.1351 -0.0225 0.9906
vn -0.1351 -0.0225 0.9906
vn -0.2981 0.7454 0.5963
vn 0.487 0.6088 0.6262
vn 0.5571 -0.1486 0.8171
vn -0.5571 -0.1486 0.8171
vn 0.4723 -0.1986 0.8588
vn -0.4388 -0.2008 0.8759
vn 0.2975 -0.4062 0.864
vn -0.5786 -0.1334 0.8046
vn 0.5771 0.2164 0.7875
vn -0.5771 0.2164 0.7875
vn 0.0931 -0.9932 -0.0692
vn -0.0931 -0.9932 -0.0692
vn 0.5161 -0.8527 -0.0812
vn -0.5161 -0.8527 -0.0812
vn 0.9264 -0.246 0.2851
vn -0.9309 -0.2541 0.2624
vn 0.8267 0.5627 -0.0035
vn -0.8465 0.5291 -0.0595
vn -0.2146 0.9243 -0.3157
vn 0.2511 0.9439 -0.2145
vn -0.4196 0.8851 -0.2012
vn 0.4841 0.8743 -0.0361
vn -0.547 -0.0144 -0.837
vn 0.5256 -0.003 -0.8507
vn -0.2556 -0.0749 -0.9639
vn 0.2556 -0.0749 -0.9639
vn -0.733 0.6786 0.0472
vn 0.8073 0.5901 0.0041
vn 0.6844 -0.1711 -0.7088
vn -0.6844 -0.1711 -0.7088
vn -0.3604 -0.8283 -0.429
vn 0.3604 -0.8283 -0.429
vt 0.84325 0.588863
vt 0.794218 0.611927
vt 0.815334 0.560948
vt 0.866314 0.937441
vt 0.889378 0.888409
vt 0.917293 0.916324
vt 0.746541 0.611927
vt 0.781622 0.527235
vt 0.866314 0.985118
vt 0.951006 0.950037
vt 0.781622 0.696619
vt 0.781622 0.950037
vt 0.833697 0.611927
vt 0.815334 0.662907
vt 0.815334 0.916325
vt 0.866314 0.897962
vt 0.84325 0.634991
vt 0.866314 0.684023
vt 0.794218 0.865345
vt 0.84325 0.888409
vt 0.866314 0.7317
vt 0.746541 0.865345
vt 0.917293 0.662907
vt 0.815334 0.814366
vt 0.781622 0.780653
vt 0.866314 0.644544
vt 0.833697 0.865345
vt 0.889378 0.634991
vt 0.93841 0.611927
vt 0.866314 0.793249
vt 0.84325 0.842281
vt 0.951006 0.696619
vt 0.866314 0.745572
vt 0.917294 0.560947
vt 0.986087 0.611927
vt 0.917294 0.814365
vt 0.951006 0.780653
vt 0.889378 0.588863
vt 0.898931 0.611927
vt 0.889378 0.842281
vt 0.866314 0.57931
vt 0.898931 0.865345
vt 0.93841 0.865345
vt 0.866314 0.539831
vt 0.951006 0.527235
vt 0.986087 0.865345
vt 0.866314 0.492154
vt 0.8476 0.593213
vt 0.885028 0.884059
vt 0.89278 0.865345
vt 0.866314 0.585461
vt 0.885028 0.846631
vt 0.885028 0.593213
vt 0.866314 0.832728
vt 0.866314 0.838879
vt 0.89278 0.611927
vt 0.8476 0.846631
vt 0.866314 0.638393
vt 0.885028 0.630641
vt 0.839848 0.865345
vt 0.8476 0.630641
vt 0.8476 0.884059
vt 0.839848 0.611927
vt 0.866314 0.891811
vt 0.866314 0.611927
vt 0.866314 0.865345
vt 0.517028 0.06849
vt 0.5 0.054411
vt 0.520711 0.060503
vt 0.482972 0.06849
vt 0.5 0.064527
vt 0.522612 0.070678
vt 0.530457 0.065062
vt 0.477388 0.070678
vt 0.479289 0.060503
vt 0.532878 0.067822
vt 0.467122 0.067822
vt 0.469543 0.065062
vt 0.544695 0.083023
vt 0.526301 0.079422
vt 0.473699 0.079422
vt 0.455305 0.083023
vt 0.565647 0.115495
vt 0.529228 0.091098
vt 0.470772 0.091098
vt 0.434353 0.115495
vt 0.586916 0.172042
vt 0.60047 0.238288
vt 0.535885 0.215568
vt 0.39953 0.238288
vt 0.413084 0.172042
vt 0.464115 0.215568
vt 0.650908 0.240294
vt 0.626605 0.208159
vt 0.349092 0.240294
vt 0.363038 0.261221
vt 0.655896 0.284413
vt 0.636962 0.261221
vt 0.344104 0.284413
vt 0.684517 0.317795
vt 0.689501 0.268805
vt 0.315483 0.317795
vt 0.340493 0.313152
vt 0.671357 0.334694
vt 0.659507 0.313152
vt 0.328643 0.334694
vt 0.350893 0.322437
vt 0.636775 0.370732
vt 0.649107 0.322437
vt 0.363225 0.370732
vt 0.386364 0.353108
vt 0.594178 0.371277
vt 0.613636 0.353108
vt 0.405822 0.371277
vt 0.581044 0.398468
vt 0.602261 0.395588
vt 0.418956 0.398468
vt 0.422649 0.373341
vt 0.532016 0.387365
vt 0.577351 0.373341
vt 0.467984 0.387365
vt 0.460183 0.354339
vt 0.5 0.38286
vt 0.539817 0.354339
vt 0.5 0.340417
vt 0.579057 0.335646
vt 0.559135 0.334326
vt 0.420943 0.335646
vt 0.59209 0.332885
vt 0.606163 0.325516
vt 0.40791 0.332885
vt 0.628251 0.311636
vt 0.393837 0.325516
vt 0.635551 0.300507
vt 0.371749 0.311636
vt 0.631484 0.283889
vt 0.364449 0.300507
vt 0.611331 0.264411
vt 0.368516 0.283889
vt 0.592372 0.254897
vt 0.388669 0.264411
vt 0.559669 0.267717
vt 0.407628 0.254897
vt 0.5 0.252445
vt 0.440331 0.267717
vt 0.544001 0.314523
vt 0.455999 0.314523
vt 0.5 0.295691
vt 0.543637 0.293371
vt 0.456363 0.293371
vt 0.550878 0.277832
vt 0.449122 0.277832
vt 0.506819 0.075382
vt 0.493181 0.075382
vt 0.511782 0.080633
vt 0.488218 0.080633
vt 0.512172 0.093457
vt 0.537536 0.127779
vt 0.513874 0.097191
vt 0.486126 0.097191
vt 0.462464 0.127779
vt 0.487828 0.093457
vt 0.5 0.157864
vt 0.514257 0.133422
vt 0.520226 0.164615
vt 0.485743 0.133422
vt 0.5 0.134352
vt 0.5 0.100063
vt 0.5 0.091346
vt 0.530258 0.180239
vt 0.517666 0.172353
vt 0.482334 0.172353
vt 0.469742 0.180239
vt 0.479774 0.164615
vt 0.523673 0.198817
vt 0.521901 0.18156
vt 0.478099 0.18156
vt 0.476327 0.198817
vt 0.508211 0.197295
vt 0.5 0.203867
vt 0.491789 0.197295
vt 0.481043 0.194728
vt 0.5 0.192167
vt 0.5 0.197278
vt 0.5 0.16517
vt 0.5 0.171718
vt 0.486462 0.176949
vt 0.508818 0.192407
vt 0.491182 0.192407
vt 0.515232 0.190709
vt 0.518957 0.194728
vt 0.484768 0.190709
vt 0.483092 0.181873
vt 0.513538 0.176949
vt 0.516908 0.181873
vt 0.5 0.186182
vt 0.544209 0.172814
vt 0.455791 0.172814
vt 0.458673 0.154899
vt 0.541327 0.154899
vt 0.578661 0.139176
vt 0.421339 0.139176
vt 0.583245 0.154155
vt 0.416755 0.154155
vt 0.509911 0.090724
vt 0.490089 0.090724
vt 0.5 0.089977
vt 0.509713 0.082236
vt 0.490287 0.082236
vt 0.505196 0.077083
vt 0.494804 0.077083
vt 0.5 0.073497
vt 0.5 0.075473
vt 0.5 0.08032
vt 0.496555 0.08084
vt 0.50666 0.083289
vt 0.503445 0.08084
vt 0.49334 0.083289
vt 0.506822 0.086791
vt 0.493178 0.086791
vt 0.5 0.085637
vt 0.562361 0.284338
vt 0.55919 0.294882
vt 0.437639 0.284338
vt 0.44081 0.294882
vt 0.56318 0.307151
vt 0.43682 0.307151
vt 0.570458 0.318697
vt 0.429542 0.318697
vt 0.430757 0.278245
vt 0.589914 0.271772
vt 0.569243 0.278245
vt 0.410086 0.271772
vt 0.60219 0.27718
vt 0.39781 0.27718
vt 0.61711 0.287175
vt 0.38289 0.287175
vt 0.618074 0.299197
vt 0.381926 0.299197
vt 0.384129 0.307438
vt 0.615871 0.307438
vt 0.401576 0.313725
vt 0.590828 0.319797
vt 0.598424 0.313725
vt 0.409172 0.319797
vt 0.58213 0.320991
vt 0.41787 0.320991
vt 0.583998 0.312892
vt 0.416002 0.312892
vt 0.421385 0.309394
vt 0.589656 0.312336
vt 0.410344 0.312336
vt 0.596347 0.309249
vt 0.403653 0.309249
vt 0.606014 0.302517
vt 0.393986 0.302517
vt 0.607735 0.29752
vt 0.392265 0.29752
vt 0.606985 0.291216
vt 0.393015 0.291216
vt 0.598275 0.283083
vt 0.401725 0.283083
vt 0.589866 0.280167
vt 0.410134 0.280167
vt 0.576352 0.284624
vt 0.423648 0.284624
vt 0.572831 0.289915
vt 0.427169 0.289915
vt 0.573307 0.303342
vt 0.578615 0.309394
vt 0.426693 0.303342
vt 0.572447 0.295716
vt 0.427553 0.295716
vt 0.529647 0.428636
vt 0.5 0.428636
vt 0.470353 0.428636
vt 0.584616 0.428636
vt 0.415384 0.428636
vt 0.397739 0.395588
vt 0.377699 0.417889
vt 0.622301 0.417889
vt 0.333786 0.388954
vt 0.666214 0.388954
vt 0.298519 0.344467
vt 0.712163 0.315527
vt 0.701481 0.344467
vt 0.287837 0.315527
vt 0.310499 0.268805
vt 0.295695 0.260225
vt 0.672947 0.22488
vt 0.704305 0.260225
vt 0.327053 0.22488
vt 0.640497 0.198841
vt 0.359503 0.198841
vt 0.625128 0.029461
vt 0.598617 0.056841
vt 0.603553 0.023452
vt 0.374872 0.029461
vt 0.401383 0.056841
vt 0.364247 0.082198
vt 0.556354 0.040906
vt 0.546781 0.009442
vt 0.396447 0.023452
vt 0.443646 0.040906
vt 0.527159 0.049514
vt 0.5 0.033223
vt 0.453219 0.009442
vt 0.472841 0.049514
vt 0.537222 0.060794
vt 0.462778 0.060794
vt 0.558499 0.065137
vt 0.441501 0.065137
vt 0.588127 0.085177
vt 0.411873 0.085177
vt 0.635753 0.082198
vt 0.607239 0.11394
vt 0.392761 0.11394
vt 0.612663 0.133675
vt 0.387337 0.133675
vt 0.394533 0.151503
vt 0.600708 0.162985
vt 0.399292 0.162985
vt 0.373395 0.208159
vt 0.859647 0.117994
vt 0.861342 0.02723
vt 0.922374 0.064228
vt 0.140353 0.117994
vt 0.138658 0.02723
vt 0.176713 0.101559
vt 0.823287 0.101559
vt 0.774604 0.010837
vt 0.225396 0.010837
vt 0.234137 0.087001
vt 0.661952 0.087561
vt 0.64701 0.028716
vt 0.338048 0.087561
vt 0.35299 0.028716
vt 0.743592 0.198572
vt 0.76641 0.233065
vt 0.256408 0.198572
vt 0.23359 0.233065
vt 0.889478 0.177602
vt 0.987633 0.154243
vt 0.110522 0.177602
vt 0.077626 0.064228
vt 0.844317 0.34737
vt 0.958963 0.357385
vt 0.899807 0.420886
vt 0.155683 0.34737
vt 0.041037 0.357385
vt 0.118831 0.309153
vt 0.903302 0.261367
vt 0.99986 0.253531
vt 0.096698 0.261367
vt 0.00014 0.253531
vt 0.012367 0.154243
vt 0.724763 0.340212
vt 0.744725 0.304629
vt 0.766113 0.319494
vt 0.255275 0.304629
vt 0.275237 0.340212
vt 0.233887 0.319494
vt 0.793427 0.280495
vt 0.826663 0.29781
vt 0.206573 0.280495
vt 0.173337 0.29781
vt 0.82362 0.254612
vt 0.855331 0.267956
vt 0.17638 0.254612
vt 0.144669 0.267956
vt 0.83586 0.225225
vt 0.868309 0.233525
vt 0.16414 0.225225
vt 0.131691 0.233525
vt 0.851288 0.181145
vt 0.813499 0.190705
vt 0.148712 0.181145
vt 0.881169 0.309153
vt 0.772263 0.37401
vt 0.744519 0.390057
vt 0.227737 0.37401
vt 0.824765 0.470987
vt 0.100193 0.420886
vt 0.792141 0.464714
vt 0.726855 0.432574
vt 0.273145 0.432574
vt 0.207859 0.464714
vt 0.255481 0.390057
vt 0.175235 0.470987
vt 0.795638 0.489991
vt 0.204362 0.489991
vt 0.786137 0.227788
vt 0.213863 0.227788
vt 0.80295 0.203415
vt 0.19705 0.203415
vt 0.765863 0.087001
vt 0.691484 0.146686
vt 0.308516 0.146686
vt 0.230666 0.128771
vt 0.780113 0.169386
vt 0.219887 0.169386
vt 0.605467 0.151503
vt 0.803789 0.171181
vt 0.196211 0.171181
vt 0.169083 0.139518
vt 0.769334 0.128771
vt 0.830917 0.139518
vt 0.464516 0.959188
vt 0.545439 0.884582
vt 0.574628 0.959188
vt 0.28571 0.959188
vt 0.204787 0.884582
vt 0.2729 0.891852
vt 0.605134 0.846978
vt 0.715894 0.897069
vt 0.145092 0.846978
vt 0.175598 0.959188
vt 0.034332 0.897069
vt 0.683874 0.757011
vt 0.066352 0.757011
vt 0.144866 0.78441
vt 0.60536 0.78441
vt 0.617867 0.719156
vt 0.132359 0.719156
vt 0.175391 0.744212
vt 0.574835 0.744212
vt 0.568728 0.682132
vt 0.181498 0.682132
vt 0.21523 0.712528
vt 0.483006 0.686791
vt 0.508539 0.641024
vt 0.26722 0.686791
vt 0.241687 0.641024
vt 0.534996 0.712528
vt 0.47888 0.719593
vt 0.271346 0.719593
vt 0.513415 0.736977
vt 0.236811 0.736977
vt 0.557599 0.789442
vt 0.192627 0.789442
vt 0.209109 0.760754
vt 0.553841 0.821849
vt 0.196385 0.821849
vt 0.524671 0.84238
vt 0.225555 0.84238
vt 0.485193 0.845321
vt 0.265033 0.845321
vt 0.770208 0.191225
vt 0.229792 0.191225
vt 0.21385 0.181127
vt 0.40961 0.674022
vt 0.408153 0.587507
vt 0.340616 0.674022
vt 0.400301 0.910556
vt 0.477326 0.891852
vt 0.349925 0.910556
vt 0.44363 0.713731
vt 0.306596 0.713731
vt 0.392812 0.710774
vt 0.429725 0.728622
vt 0.357414 0.710774
vt 0.422979 0.754609
vt 0.43264 0.746527
vt 0.320501 0.728622
vt 0.327247 0.754609
vt 0.317586 0.746527
vt 0.391578 0.815187
vt 0.427719 0.796173
vt 0.358648 0.815187
vt 0.448277 0.830976
vt 0.414155 0.878318
vt 0.301949 0.830976
vt 0.322507 0.796173
vt 0.336071 0.878318
vt 0.80258 0.199758
vt 0.19742 0.199758
vt 0.79771 0.195652
vt 0.20229 0.195652
vt 0.210391 0.184671
vt 0.78615 0.181127
vt 0.789609 0.184671
vt 0.466042 0.804091
vt 0.490498 0.816075
vt 0.284184 0.804091
vt 0.259728 0.816075
vt 0.302184 0.783921
vt 0.438745 0.76496
vt 0.448042 0.783921
vt 0.311481 0.76496
vt 0.30501 0.756351
vt 0.445216 0.756351
vt 0.300407 0.743458
vt 0.456307 0.732687
vt 0.449819 0.743458
vt 0.293919 0.732687
vt 0.475471 0.740871
vt 0.274755 0.740871
vt 0.514211 0.817769
vt 0.236015 0.817769
vt 0.527961 0.808598
vt 0.222265 0.808598
vt 0.530079 0.790754
vt 0.220147 0.790754
vt 0.51862 0.772385
vt 0.541117 0.760754
vt 0.231606 0.772385
vt 0.498668 0.755033
vt 0.251558 0.755033
vt 0.45966 0.770459
vt 0.290566 0.770459
vt 0.282197 0.756171
vt 0.468029 0.756171
vt 0.477354 0.785393
vt 0.272872 0.785393
vt 0.263059 0.769899
vt 0.504617 0.782999
vt 0.496545 0.797122
vt 0.245609 0.782999
vt 0.253681 0.797122
vt 0.513713 0.804019
vt 0.236513 0.804019
vt 0.234089 0.792591
vt 0.516137 0.792591
vt 0.574269 0.607668
vt 0.61351 0.655816
vt 0.175957 0.607668
vt 0.136716 0.655816
vt 0.644031 0.69327
vt 0.106195 0.69327
vt 0.668163 0.712097
vt 0.082063 0.712097
vt 0.676584 0.68601
vt 0.727131 0.698475
vt 0.073642 0.68601
vt 0.667013 0.640198
vt 0.729804 0.62437
vt 0.023095 0.698475
vt 0.083213 0.640198
vt 0.648152 0.594596
vt 0.721292 0.572934
vt 0.020422 0.62437
vt 0.102074 0.594596
vt 0.717709 0.538143
vt 0.630034 0.557583
vt 0.032517 0.538143
vt 0.028934 0.572934
vt 0.526877 0.539235
vt 0.120192 0.557583
vt 0.223349 0.539235
vt 0.342073 0.587507
vt 0.440865 0.334326
vt 0.186501 0.190705
vt 0.742181 0.461543
vt 0.257819 0.461543
vt 0.487167 0.769899
s 0
f 46/0/0 2/1/0 44/2/0
f 3/3/1 47/4/1 45/5/1
f 44/2/2 4/6/2 42/7/2
f 5/8/3 45/5/3 43/9/3
f 2/1/4 6/10/4 4/6/4
f 7/11/5 3/3/5 5/8/5
f 0/12/6 8/13/6 2/1/6
f 9/14/7 1/15/7 3/3/7
f 10/16/8 14/17/8 8/13/8
f 15/18/9 11/19/9 9/14/9
f 8/13/10 16/20/10 6/10/10
f 17/21/11 9/14/11 7/11/11
f 20/22/12 16/20/12 14/17/12
f 21/23/13 17/21/13 19/24/13
f 12/25/14 20/22/14 14/17/14
f 21/23/15 13/26/15 15/18/15
f 22/27/16 26/28/16 20/22/16
f 27/29/17 23/30/17 21/23/17
f 26/28/18 18/31/18 20/22/18
f 27/29/19 19/24/19 29/32/19
f 32/33/20 28/34/20 26/28/20
f 33/35/21 29/32/21 31/36/21
f 34/37/22 26/28/22 24/38/22
f 35/39/23 27/29/23 33/35/23
f 36/40/24 32/33/24 34/37/24
f 37/41/25 33/35/25 39/42/25
f 38/43/26 30/44/26 32/33/26
f 39/42/27 31/36/27 41/45/27
f 44/2/28 40/46/28 38/43/28
f 45/5/29 41/45/29 43/9/29
f 46/0/30 38/43/30 36/40/30
f 47/4/31 39/42/31 45/5/31
f 36/40/32 48/47/32 46/0/32
f 37/41/33 49/48/33 51/49/33
f 34/37/34 50/50/34 36/40/34
f 35/39/35 51/49/35 53/51/35
f 24/38/36 52/52/36 34/37/36
f 25/53/37 53/51/37 55/54/37
f 22/27/38 54/55/38 24/38/38
f 23/30/39 55/54/39 57/56/39
f 22/27/40 58/57/40 56/58/40
f 59/59/41 23/30/41 57/56/41
f 12/25/42 62/60/42 58/57/42
f 63/61/43 13/26/43 59/59/43
f 10/16/44 64/62/44 62/60/44
f 65/63/45 11/19/45 63/61/45
f 0/12/46 48/47/46 64/62/46
f 49/48/47 1/15/47 65/63/47
f 60/64/48 64/62/48 48/47/48
f 49/48/49 65/63/49 61/65/49
f 62/60/50 64/62/50 60/64/50
f 61/65/51 65/63/51 63/61/51
f 60/64/52 58/57/52 62/60/52
f 63/61/53 59/59/53 61/65/53
f 60/64/54 56/58/54 58/57/54
f 59/59/55 57/56/55 61/65/55
f 60/64/56 54/55/56 56/58/56
f 57/56/57 55/54/57 61/65/57
f 60/64/58 52/52/58 54/55/58
f 55/54/59 53/51/59 61/65/59
f 60/64/60 50/50/60 52/52/60
f 53/51/61 51/49/61 61/65/61
f 60/64/62 48/47/62 50/50/62
f 51/49/63 49/48/63 61/65/63
f 173/66/64 90/67/64 88/68/64
f 174/69/65 90/67/65 175/70/65
f 171/71/66 88/68/66 86/72/66
f 172/73/67 89/74/67 174/69/67
f 84/75/68 171/71/68 86/72/68
f 172/73/69 85/76/69 87/77/69
f 82/78/70 169/79/70 84/75/70
f 170/80/71 83/81/71 85/76/71
f 80/82/72 167/83/72 82/78/72
f 168/84/73 81/85/73 83/81/73
f 78/86/74 145/87/74 163/88/74
f 146/89/75 79/90/75 164/91/75
f 93/92/76 145/87/76 91/93/76
f 94/94/77 146/89/77 148/95/77
f 93/92/78 149/96/78 147/97/78
f 150/98/79 94/94/79 148/95/79
f 97/99/80 149/96/80 95/100/80
f 98/101/81 150/98/81 152/102/81
f 99/103/82 151/104/82 97/99/82
f 100/105/83 152/102/83 154/106/83
f 101/107/84 153/108/84 99/103/84
f 102/109/85 154/106/85 156/110/85
f 101/107/86 157/111/86 155/112/86
f 158/113/87 102/109/87 156/110/87
f 105/114/88 157/111/88 103/115/88
f 106/116/89 158/113/89 160/117/89
f 107/118/90 159/119/90 105/114/90
f 108/120/91 160/117/91 162/121/91
f 66/122/92 161/123/92 107/118/92
f 66/122/93 162/121/93 67/124/93
f 127/125/94 161/123/94 109/126/94
f 128/127/95 162/121/95 160/117/95
f 127/125/96 157/111/96 159/119/96
f 158/113/97 128/127/97 160/117/97
f 155/112/98 178/128/98 125/129/98
f 156/110/99 179/130/99 158/113/99
f 153/108/100 125/129/100 123/131/100
f 154/106/101 126/132/101 156/110/101
f 151/104/102 123/131/102 121/133/102
f 152/102/103 124/134/103 154/106/103
f 149/96/104 121/133/104 119/135/104
f 150/98/105 122/136/105 152/102/105
f 147/97/106 119/135/106 117/137/106
f 148/95/107 120/138/107 150/98/107
f 145/87/108 117/137/108 115/139/108
f 146/89/109 118/140/109 148/95/109
f 163/88/110 115/139/110 113/141/110
f 164/91/111 116/142/111 146/89/111
f 113/141/112 176/143/112 163/88/112
f 176/143/113 114/144/113 164/91/113
f 161/123/114 111/145/114 109/126/114
f 162/121/115 112/146/115 67/124/115
f 111/145/116 177/147/116 182/148/116
f 177/147/117 112/146/117 183/149/117
f 180/150/118 177/147/118 176/143/118
f 181/151/119 177/147/119 183/149/119
f 134/152/120 175/70/120 173/66/120
f 175/70/121 135/153/121 174/69/121
f 132/154/122 173/66/122 171/71/122
f 174/69/123 133/155/123 172/73/123
f 132/154/124 169/79/124 130/156/124
f 133/155/125 170/80/125 172/73/125
f 165/157/126 184/158/126 167/83/126
f 185/159/127 166/160/127 168/84/127
f 130/156/128 167/83/128 184/158/128
f 168/84/129 131/161/129 185/159/129
f 189/162/130 186/163/130 143/164/130
f 189/162/131 187/165/131 188/166/131
f 186/163/132 68/167/132 184/158/132
f 187/165/133 68/167/133 188/166/133
f 130/156/134 68/167/134 129/168/134
f 131/161/134 68/167/134 185/159/134
f 141/169/135 190/170/135 143/164/135
f 191/171/136 142/172/136 144/173/136
f 139/174/137 192/175/137 141/169/137
f 193/176/138 140/177/138 142/172/138
f 196/178/139 139/174/139 138/179/139
f 197/180/140 140/177/140 195/181/140
f 70/182/141 138/179/141 137/183/141
f 70/182/142 138/179/142 197/180/142
f 143/164/143 69/184/143 189/162/143
f 144/173/144 69/184/144 191/171/144
f 190/170/145 207/185/145 69/184/145
f 191/171/146 207/185/146 206/186/146
f 70/182/147 199/187/147 196/178/147
f 200/188/148 70/182/148 197/180/148
f 196/178/149 201/189/149 194/190/149
f 202/191/150 197/180/150 195/181/150
f 201/189/151 192/175/151 194/190/151
f 202/191/152 193/176/152 204/192/152
f 192/175/153 205/193/153 190/170/153
f 206/186/154 193/176/154 191/171/154
f 203/194/155 199/187/155 198/195/155
f 204/192/156 200/188/156 202/191/156
f 198/195/157 205/193/157 203/194/157
f 206/186/158 198/195/158 204/192/158
f 138/179/159 163/88/159 176/143/159
f 164/91/160 138/179/160 176/143/160
f 139/174/161 210/196/161 163/88/161
f 211/197/162 140/177/162 164/91/162
f 143/164/163 210/196/163 141/169/163
f 144/173/164 211/197/164 213/198/164
f 186/163/165 212/199/165 143/164/165
f 187/165/166 213/198/166 166/160/166
f 208/200/167 165/157/167 80/82/167
f 209/201/168 166/160/168 213/198/168
f 214/202/169 212/199/169 208/200/169
f 215/203/170 213/198/170 211/197/170
f 78/86/171 210/196/171 214/202/171
f 211/197/172 79/90/172 215/203/172
f 129/168/173 221/204/173 130/156/173
f 129/168/174 222/205/174 71/206/174
f 132/154/175 221/204/175 219/207/175
f 222/205/176 133/155/176 220/208/176
f 134/152/177 219/207/177 217/209/177
f 220/208/178 135/153/178 218/210/178
f 136/211/134 217/209/134 216/212/134
f 218/210/134 136/211/134 216/212/134
f 217/209/179 230/213/179 216/212/179
f 218/210/180 230/213/180 229/214/180
f 217/209/181 226/215/181 228/216/181
f 227/217/182 218/210/182 229/214/182
f 219/207/141 224/218/141 226/215/141
f 225/219/183 220/208/183 227/217/183
f 71/206/184 224/218/184 221/204/184
f 71/206/185 225/219/185 223/220/185
f 223/220/186 228/216/186 224/218/186
f 229/214/187 223/220/187 225/219/187
f 224/218/188 228/216/188 226/215/188
f 227/217/189 229/214/189 225/219/189
f 182/148/190 233/221/190 231/222/190
f 234/223/191 183/149/191 232/224/191
f 111/145/192 231/222/192 253/225/192
f 232/224/193 112/146/193 254/226/193
f 111/145/194 255/227/194 109/126/194
f 112/146/195 256/228/195 254/226/195
f 113/141/196 233/221/196 180/150/196
f 114/144/197 234/223/197 252/229/197
f 113/141/198 249/230/198 251/231/198
f 250/232/199 114/144/199 252/229/199
f 115/139/200 247/233/200 249/230/200
f 248/234/201 116/142/201 250/232/201
f 117/137/202 245/235/202 247/233/202
f 246/236/203 118/140/203 248/234/203
f 119/135/204 243/237/204 245/235/204
f 244/238/205 120/138/205 246/236/205
f 123/131/206 243/237/206 121/133/206
f 124/134/207 244/238/207 242/239/207
f 125/129/208 241/240/208 123/131/208
f 126/132/209 242/239/209 240/241/209
f 125/129/210 235/242/210 239/243/210
f 236/244/211 126/132/211 240/241/211
f 178/128/212 237/245/212 235/242/212
f 238/246/213 179/130/213 236/244/213
f 127/125/214 255/227/214 237/245/214
f 256/228/215 128/127/215 238/246/215
f 255/227/216 275/247/216 237/245/216
f 256/228/217 276/248/217 258/249/217
f 235/242/218 275/247/218 277/250/218
f 276/248/219 236/244/219 278/251/219
f 235/242/220 273/252/220 239/243/220
f 236/244/221 274/253/221 278/251/221
f 239/243/222 271/254/222 241/240/222
f 240/241/223 272/255/223 274/253/223
f 243/237/224 271/254/224 269/256/224
f 272/255/225 244/238/225 270/257/225
f 243/237/226 267/258/226 245/235/226
f 244/238/227 268/259/227 270/257/227
f 247/233/228 267/258/228 265/260/228
f 268/259/229 248/234/229 266/261/229
f 247/233/230 263/262/230 249/230/230
f 248/234/231 264/263/231 266/261/231
f 249/230/232 261/264/232 251/231/232
f 250/232/233 262/265/233 264/263/233
f 233/221/234 261/264/234 279/266/234
f 262/265/235 234/223/235 280/267/235
f 255/227/236 259/268/236 257/269/236
f 260/270/237 256/228/237 258/249/237
f 253/225/238 281/271/238 259/268/238
f 282/272/239 254/226/239 260/270/239
f 231/222/240 279/266/240 281/271/240
f 280/267/241 232/224/241 282/272/241
f 66/122/242 283/273/242 72/274/242
f 284/275/243 66/122/243 72/274/243
f 107/118/244 285/276/244 283/273/244
f 286/277/245 108/120/245 284/275/245
f 103/115/246 285/276/246 105/114/246
f 104/278/247 286/277/247 288/279/247
f 101/107/248 287/280/248 103/115/248
f 102/109/249 288/279/249 290/281/249
f 99/103/250 289/282/250 101/107/250
f 100/105/251 290/281/251 292/283/251
f 99/103/252 293/284/252 291/285/252
f 294/286/253 100/105/253 292/283/253
f 95/100/254 293/284/254 97/99/254
f 96/287/255 294/286/255 296/288/255
f 95/100/256 297/289/256 295/290/256
f 298/291/257 96/287/257 296/288/257
f 93/92/258 299/292/258 297/289/258
f 300/293/259 94/94/259 298/291/259
f 308/294/260 337/295/260 307/296/260
f 308/297/261 338/298/261 328/299/261
f 307/296/262 335/300/262 306/301/262
f 307/302/263 336/303/263 338/298/263
f 306/301/264 339/304/264 305/305/264
f 306/306/265 340/307/265 336/303/265
f 88/68/266 305/305/266 339/304/266
f 305/305/267 89/74/267 340/307/267
f 86/72/268 339/304/268 333/308/268
f 340/307/269 87/77/269 334/309/269
f 84/75/270 333/308/270 329/310/270
f 334/309/271 85/76/271 330/311/271
f 82/78/272 329/310/272 331/312/272
f 330/311/273 83/81/273 332/313/273
f 329/310/274 337/295/274 331/312/274
f 338/298/275 330/311/275 332/313/275
f 333/308/276 335/300/276 329/310/276
f 334/309/277 336/303/277 340/307/277
f 331/312/278 327/314/278 325/315/278
f 332/313/279 328/299/279 338/298/279
f 80/82/280 331/312/280 325/315/280
f 332/313/281 81/85/281 326/316/281
f 341/317/282 214/202/282 208/200/282
f 342/318/283 215/203/283 344/319/283
f 325/315/284 208/200/284 80/82/284
f 326/316/285 209/201/285 342/318/285
f 214/202/286 345/320/286 78/86/286
f 215/203/287 346/321/287 344/319/287
f 345/320/288 91/93/288 78/86/288
f 346/321/289 92/322/289 300/293/289
f 323/323/290 303/324/290 76/325/290
f 324/326/291 303/327/291 352/328/291
f 351/329/292 77/330/292 303/324/292
f 352/328/293 77/331/293 350/332/293
f 77/330/294 347/333/294 304/334/294
f 348/335/295 77/331/295 304/336/295
f 304/334/296 327/314/296 308/294/296
f 328/299/297 304/336/297 308/297/297
f 327/314/298 341/317/298 325/315/298
f 328/299/299 342/318/299 348/335/299
f 295/290/300 317/337/300 309/338/300
f 318/339/301 296/288/301 310/340/301
f 315/341/302 76/325/302 75/342/302
f 316/343/303 76/344/303 324/326/303
f 357/345/304 302/346/304 301/347/304
f 358/348/305 302/349/305 356/350/305
f 302/346/306 353/351/306 74/352/306
f 354/353/307 302/349/307 74/354/307
f 74/352/308 315/341/308 75/342/308
f 316/343/309 74/354/309 75/355/309
f 291/356/310 361/357/310 363/358/310
f 362/359/311 292/360/311 364/361/311
f 363/358/312 367/362/312 365/363/312
f 368/364/313 364/361/313 366/365/313
f 365/363/314 369/366/314 371/367/314
f 370/368/315 366/365/315 372/369/315
f 371/367/316 375/370/316 373/371/316
f 376/372/317 372/369/317 374/373/317
f 377/374/318 375/370/318 313/375/318
f 378/376/319 376/372/319 374/373/319
f 315/341/320 373/371/320 377/374/320
f 374/373/321 316/343/321 378/376/321
f 353/351/322 371/367/322 373/371/322
f 372/369/323 354/353/323 374/373/323
f 355/377/324 365/363/324 371/367/324
f 366/365/325 356/350/325 372/369/325
f 357/345/326 363/358/326 365/363/326
f 364/361/327 358/348/327 366/365/327
f 291/356/328 359/378/328 289/379/328
f 292/360/329 360/380/329 364/361/329
f 359/378/330 301/347/330 73/381/330
f 360/380/331 301/382/331 358/348/331
f 283/383/332 287/384/332 289/379/332
f 288/385/333 284/386/333 290/387/333
f 283/383/334 359/378/334 73/381/334
f 360/380/335 284/386/335 73/388/335
f 72/389/336 283/383/336 73/381/336
f 73/388/337 284/386/337 72/390/337
f 295/290/338 361/357/338 293/284/338
f 296/288/339 362/359/339 310/340/339
f 309/338/340 367/362/340 361/357/340
f 368/364/341 310/340/341 362/359/341
f 311/391/342 369/366/342 367/362/342
f 370/368/343 312/392/343 368/364/343
f 375/370/344 381/393/344 313/375/344
f 376/372/345 382/394/345 370/368/345
f 349/395/346 383/396/346 347/333/346
f 350/332/347 384/397/347 386/398/347
f 383/396/348 319/399/348 317/337/348
f 384/397/349 320/400/349 386/398/349
f 297/289/350 383/396/350 317/337/350
f 384/397/351 298/291/351 318/339/351
f 299/292/352 341/317/352 383/396/352
f 342/318/353 300/293/353 384/397/353
f 341/317/354 347/333/354 383/396/354
f 384/397/355 348/335/355 342/318/355
f 299/292/356 345/320/356 343/401/356
f 344/319/357 346/321/357 300/293/357
f 321/402/358 377/374/358 313/375/358
f 322/403/359 378/376/359 380/404/359
f 377/374/360 323/323/360 315/341/360
f 378/376/361 324/326/361 380/404/361
f 385/405/362 321/402/362 319/399/362
f 386/398/363 322/403/363 380/404/363
f 351/329/364 385/405/364 349/395/364
f 352/328/365 386/398/365 380/404/365
f 323/323/366 379/406/366 351/329/366
f 352/328/367 380/404/367 324/326/367
f 387/407/368 401/408/368 399/409/368
f 388/410/369 402/411/369 414/412/369
f 399/409/370 403/413/370 397/414/370
f 404/415/371 400/416/371 398/417/371
f 403/413/372 395/418/372 397/414/372
f 404/415/373 396/419/373 406/420/373
f 405/421/374 393/422/374 395/418/374
f 406/420/375 394/423/375 408/424/375
f 407/425/376 391/426/376 393/422/376
f 408/424/377 392/427/377 410/428/377
f 391/426/378 411/429/378 389/430/378
f 412/431/379 392/427/379 390/432/379
f 409/433/380 417/434/380 411/429/380
f 418/435/381 410/428/381 412/431/381
f 407/425/382 419/436/382 409/433/382
f 420/437/383 408/424/383 410/428/383
f 423/438/384 407/425/384 405/421/384
f 424/439/385 408/424/385 422/440/385
f 425/441/386 405/421/386 403/413/386
f 426/442/387 406/420/387 424/439/387
f 427/443/388 403/413/388 401/408/388
f 428/444/389 404/415/389 426/442/389
f 401/408/390 415/445/390 427/443/390
f 416/446/391 402/411/391 428/444/391
f 319/399/392 441/447/392 317/337/392
f 320/400/393 442/448/393 444/449/393
f 389/430/394 443/450/394 319/451/394
f 390/432/395 444/452/395 412/431/395
f 309/338/396 441/447/396 311/391/396
f 442/448/397 310/340/397 312/392/397
f 381/453/398 413/454/398 387/407/398
f 414/412/399 382/455/399 388/410/399
f 411/429/400 439/456/400 443/450/400
f 440/457/401 412/431/401 444/452/401
f 445/458/402 439/456/402 437/459/402
f 446/460/403 440/457/403 444/452/403
f 433/461/134 437/459/134 435/462/134
f 438/463/134 434/464/134 436/465/134
f 447/466/404 433/461/404 431/467/404
f 448/468/405 434/464/405 446/460/405
f 447/466/406 449/469/406 429/470/406
f 448/468/407 450/471/407 432/472/407
f 429/470/408 415/445/408 413/454/408
f 430/473/409 416/446/409 450/471/409
f 311/391/410 429/474/410 381/393/410
f 430/475/411 312/392/411 382/394/411
f 441/447/412 447/476/412 311/391/412
f 442/448/413 448/477/413 446/478/413
f 441/447/414 443/479/414 445/480/414
f 446/478/415 444/449/415 442/448/415
f 415/445/416 451/481/416 475/482/416
f 452/483/417 416/446/417 476/484/417
f 431/467/418 451/481/418 449/469/418
f 432/472/419 452/483/419 462/485/419
f 431/467/420 459/486/420 461/487/420
f 460/488/421 432/472/421 462/485/421
f 435/462/422 459/486/422 433/461/422
f 436/465/423 460/488/423 458/489/423
f 437/459/424 457/490/424 435/462/424
f 438/463/425 458/489/425 456/491/425
f 437/459/426 453/492/426 455/493/426
f 454/494/427 438/463/427 456/491/427
f 439/456/428 473/495/428 453/492/428
f 474/496/428 440/457/428 454/494/428
f 427/443/429 475/482/429 463/497/429
f 476/484/430 428/444/430 464/498/430
f 425/441/431 463/497/431 465/499/431
f 464/498/432 426/442/432 466/500/432
f 423/438/433 465/499/433 467/501/433
f 466/500/434 424/439/434 468/502/434
f 423/438/435 469/503/435 421/504/435
f 424/439/436 470/505/436 468/502/436
f 421/504/437 471/506/437 419/436/437
f 422/440/438 472/507/438 470/505/438
f 419/436/439 473/495/439 417/434/439
f 420/437/440 474/496/440 472/507/440
f 455/493/441 477/508/441 457/490/441
f 456/491/442 478/509/442 480/510/442
f 479/511/443 483/512/443 477/508/443
f 480/510/444 484/513/444 482/514/444
f 483/512/445 487/515/445 485/516/445
f 488/517/446 484/513/446 486/518/446
f 487/515/447 491/519/447 485/516/447
f 488/517/448 492/520/448 490/521/448
f 463/497/449 485/516/449 491/519/449
f 486/518/450 464/498/450 492/520/450
f 483/512/451 475/482/451 451/481/451
f 484/513/452 476/484/452 486/518/452
f 461/487/453 483/512/453 451/481/453
f 462/485/454 484/513/454 478/509/454
f 457/490/134 461/487/134 459/486/134
f 462/485/134 458/489/134 460/488/134
f 473/495/455 455/493/455 453/492/455
f 474/496/456 456/491/456 480/510/456
f 471/506/457 479/511/457 473/495/457
f 480/510/458 472/507/458 474/496/458
f 487/515/459 471/506/459 469/503/459
f 488/517/460 472/507/460 482/514/460
f 489/522/461 469/503/461 467/501/461
f 490/521/462 470/505/462 488/517/462
f 465/499/463 489/522/463 467/501/463
f 490/521/464 466/500/464 468/502/464
f 463/497/465 491/519/465 465/499/465
f 466/500/466 492/520/466 464/498/466
f 391/426/467 503/523/467 501/524/467
f 504/525/468 392/427/468 502/526/468
f 393/422/469 501/524/469 499/527/469
f 502/526/470 394/423/470 500/528/470
f 393/422/471 497/529/471 395/418/471
f 394/423/472 498/530/472 500/528/472
f 395/418/473 495/531/473 397/532/473
f 396/419/474 496/533/474 498/530/474
f 397/532/475 493/534/475 399/535/475
f 398/536/476 494/537/476 496/533/476
f 399/535/477 505/538/477 387/539/477
f 400/540/478 506/541/478 494/537/478
f 501/524/479 505/538/479 493/534/479
f 502/526/480 506/541/480 504/525/480
f 493/534/481 499/527/481 501/524/481
f 500/528/482 494/537/482 502/526/482
f 495/531/483 497/529/483 499/527/483
f 500/528/484 498/530/484 496/533/484
f 381/542/485 505/538/485 313/543/485
f 382/544/486 506/541/486 388/545/486
f 313/543/487 503/523/487 321/546/487
f 504/525/488 314/547/488 322/548/488
f 319/451/489 503/523/489 389/430/489
f 504/525/490 320/549/490 390/432/490
f 46/0/491 0/12/491 2/1/491
f 3/3/492 1/15/492 47/4/492
f 44/2/493 2/1/493 4/6/493
f 5/8/494 3/3/494 45/5/494
f 2/1/495 8/13/495 6/10/495
f 7/11/496 9/14/496 3/3/496
f 0/12/497 10/16/497 8/13/497
f 9/14/498 11/19/498 1/15/498
f 10/16/499 12/25/499 14/17/499
f 15/18/500 13/26/500 11/19/500
f 8/13/501 14/17/501 16/20/501
f 17/21/502 15/18/502 9/14/502
f 20/22/503 18/31/503 16/20/503
f 21/23/504 15/18/504 17/21/504
f 12/25/505 22/27/505 20/22/505
f 21/23/506 23/30/506 13/26/506
f 22/27/507 24/38/507 26/28/507
f 27/29/508 25/53/508 23/30/508
f 26/28/509 28/34/509 18/31/509
f 27/29/510 21/23/510 19/24/510
f 32/33/511 30/44/511 28/34/511
f 33/35/512 27/29/512 29/32/512
f 34/37/513 32/33/513 26/28/513
f 35/39/514 25/53/514 27/29/514
f 36/40/515 38/43/515 32/33/515
f 37/41/516 35/39/516 33/35/516
f 38/43/517 40/46/517 30/44/517
f 39/42/518 33/35/518 31/36/518
f 44/2/519 42/7/519 40/46/519
f 45/5/520 39/42/520 41/45/520
f 46/0/521 44/2/521 38/43/521
f 47/4/522 37/41/522 39/42/522
f 36/40/523 50/50/523 48/47/523
f 37/41/524 47/4/524 49/48/524
f 34/37/525 52/52/525 50/50/525
f 35/39/526 37/41/526 51/49/526
f 24/38/527 54/55/527 52/52/527
f 25/53/528 35/39/528 53/51/528
f 22/27/529 56/58/529 54/55/529
f 23/30/530 25/53/530 55/54/530
f 22/27/531 12/25/531 58/57/531
f 59/59/532 13/26/532 23/30/532
f 12/25/533 10/16/533 62/60/533
f 63/61/534 11/19/534 13/26/534
f 10/16/535 0/12/535 64/62/535
f 65/63/536 1/15/536 11/19/536
f 0/12/537 46/0/537 48/47/537
f 49/48/538 47/4/538 1/15/538
f 173/66/539 175/70/539 90/67/539
f 174/69/540 89/74/540 90/67/540
f 171/71/541 173/66/541 88/68/541
f 172/73/542 87/77/542 89/74/542
f 84/75/543 169/79/543 171/71/543
f 172/73/544 170/80/544 85/76/544
f 82/78/545 167/83/545 169/79/545
f 170/80/546 168/84/546 83/81/546
f 80/82/547 165/157/547 167/83/547
f 168/84/548 166/160/548 81/85/548
f 78/86/549 91/93/549 145/87/549
f 146/89/550 92/322/550 79/90/550
f 93/92/551 147/97/551 145/87/551
f 94/94/552 92/322/552 146/89/552
f 93/92/553 95/100/553 149/96/553
f 150/98/554 96/287/554 94/94/554
f 97/99/555 151/104/555 149/96/555
f 98/101/556 96/287/556 150/98/556
f 99/103/557 153/108/557 151/104/557
f 100/105/558 98/101/558 152/102/558
f 101/107/559 155/112/559 153/108/559
f 102/109/560 100/105/560 154/106/560
f 101/107/561 103/115/561 157/111/561
f 158/113/562 104/278/562 102/109/562
f 105/114/563 159/119/563 157/111/563
f 106/116/564 104/278/564 158/113/564
f 107/118/565 161/123/565 159/119/565
f 108/120/566 106/116/566 160/117/566
f 66/122/567 67/124/567 161/123/567
f 66/122/568 108/120/568 162/121/568
f 127/125/569 159/119/569 161/123/569
f 128/127/570 110/550/570 162/121/570
f 127/125/571 178/128/571 157/111/571
f 158/113/572 179/130/572 128/127/572
f 155/112/573 157/111/573 178/128/573
f 156/110/574 126/132/574 179/130/574
f 153/108/575 155/112/575 125/129/575
f 154/106/576 124/134/576 126/132/576
f 151/104/577 153/108/577 123/131/577
f 152/102/578 122/136/578 124/134/578
f 149/96/579 151/104/579 121/133/579
f 150/98/580 120/138/580 122/136/580
f 147/97/581 149/96/581 119/135/581
f 148/95/582 118/140/582 120/138/582
f 145/87/583 147/97/583 117/137/583
f 146/89/584 116/142/584 118/140/584
f 163/88/585 145/87/585 115/139/585
f 164/91/586 114/144/586 116/142/586
f 113/141/587 180/150/587 176/143/587
f 176/143/588 181/151/588 114/144/588
f 161/123/589 67/124/589 111/145/589
f 162/121/590 110/550/590 112/146/590
f 111/145/591 67/124/591 177/147/591
f 177/147/592 67/124/592 112/146/592
f 180/150/593 182/148/593 177/147/593
f 181/151/594 176/143/594 177/147/594
f 134/152/595 136/211/595 175/70/595
f 175/70/596 136/211/596 135/153/596
f 132/154/597 134/152/597 173/66/597
f 174/69/598 135/153/598 133/155/598
f 132/154/599 171/71/599 169/79/599
f 133/155/600 131/161/600 170/80/600
f 165/157/601 186/163/601 184/158/601
f 185/159/602 187/165/602 166/160/602
f 130/156/603 169/79/603 167/83/603
f 168/84/604 170/80/604 131/161/604
f 189/162/131 188/166/131 186/163/131
f 189/162/605 144/173/605 187/165/605
f 186/163/133 188/166/133 68/167/133
f 187/165/606 185/159/606 68/167/606
f 130/156/134 184/158/134 68/167/134
f 131/161/134 129/168/134 68/167/134
f 141/169/607 192/175/607 190/170/607
f 191/171/608 193/176/608 142/172/608
f 139/174/609 194/190/609 192/175/609
f 193/176/610 195/181/610 140/177/610
f 196/178/611 194/190/611 139/174/611
f 197/180/612 138/179/612 140/177/612
f 70/182/613 196/178/613 138/179/613
f 143/164/614 190/170/614 69/184/614
f 144/173/615 189/162/615 69/184/615
f 190/170/145 205/193/145 207/185/145
f 191/171/146 69/184/146 207/185/146
f 70/182/616 198/195/616 199/187/616
f 200/188/617 198/195/617 70/182/617
f 196/178/618 199/187/618 201/189/618
f 202/191/619 200/188/619 197/180/619
f 201/189/620 203/194/620 192/175/620
f 202/191/621 195/181/621 193/176/621
f 192/175/622 203/194/622 205/193/622
f 206/186/623 204/192/623 193/176/623
f 203/194/624 201/189/624 199/187/624
f 204/192/625 198/195/625 200/188/625
f 198/195/626 207/185/626 205/193/626
f 206/186/627 207/185/627 198/195/627
f 138/179/628 139/174/628 163/88/628
f 164/91/629 140/177/629 138/179/629
f 139/174/630 141/169/630 210/196/630
f 211/197/631 142/172/631 140/177/631
f 143/164/632 212/199/632 210/196/632
f 144/173/633 142/172/633 211/197/633
f 186/163/634 165/157/634 212/199/634
f 187/165/635 144/173/635 213/198/635
f 208/200/636 212/199/636 165/157/636
f 209/201/637 81/85/637 166/160/637
f 214/202/638 210/196/638 212/199/638
f 215/203/639 209/201/639 213/198/639
f 78/86/640 163/88/640 210/196/640
f 211/197/641 164/91/641 79/90/641
f 129/168/642 71/206/642 221/204/642
f 129/168/643 131/161/643 222/205/643
f 132/154/644 130/156/644 221/204/644
f 222/205/645 131/161/645 133/155/645
f 134/152/646 132/154/646 219/207/646
f 220/208/647 133/155/647 135/153/647
f 136/211/648 134/152/648 217/209/648
f 218/210/649 135/153/649 136/211/649
f 217/209/179 228/216/179 230/213/179
f 218/210/180 216/212/180 230/213/180
f 217/209/650 219/207/650 226/215/650
f 227/217/651 220/208/651 218/210/651
f 219/207/141 221/204/141 224/218/141
f 225/219/183 222/205/183 220/208/183
f 71/206/184 223/220/184 224/218/184
f 71/206/185 222/205/185 225/219/185
f 223/220/652 230/213/652 228/216/652
f 229/214/653 230/213/653 223/220/653
f 182/148/654 180/150/654 233/221/654
f 234/223/655 181/151/655 183/149/655
f 111/145/656 182/148/656 231/222/656
f 232/224/657 183/149/657 112/146/657
f 111/145/658 253/225/658 255/227/658
f 112/146/659 110/550/659 256/228/659
f 113/141/660 251/231/660 233/221/660
f 114/144/661 181/151/661 234/223/661
f 113/141/662 115/139/662 249/230/662
f 250/232/663 116/142/663 114/144/663
f 115/139/664 117/137/664 247/233/664
f 248/234/665 118/140/665 116/142/665
f 117/137/666 119/135/666 245/235/666
f 246/236/667 120/138/667 118/140/667
f 119/135/668 121/133/668 243/237/668
f 244/238/669 122/136/669 120/138/669
f 123/131/670 241/240/670 243/237/670
f 124/134/671 122/136/671 244/238/671
f 125/129/672 239/243/672 241/240/672
f 126/132/673 124/134/673 242/239/673
f 125/129/674 178/128/674 235/242/674
f 236/244/675 179/130/675 126/132/675
f 178/128/676 127/125/676 237/245/676
f 238/246/677 128/127/677 179/130/677
f 127/125/678 109/126/678 255/227/678
f 256/228/679 110/550/679 128/127/679
f 255/227/680 257/269/680 275/247/680
f 256/228/681 238/246/681 276/248/681
f 235/242/682 237/245/682 275/247/682
f 276/248/683 238/246/683 236/244/683
f 235/242/684 277/250/684 273/252/684
f 236/244/685 240/241/685 274/253/685
f 239/243/686 273/252/686 271/254/686
f 240/241/687 242/239/687 272/255/687
f 243/237/688 241/240/688 271/254/688
f 272/255/689 242/239/689 244/238/689
f 243/237/690 269/256/690 267/258/690
f 244/238/691 246/236/691 268/259/691
f 247/233/692 245/235/692 267/258/692
f 268/259/693 246/236/693 248/234/693
f 247/233/694 265/260/694 263/262/694
f 248/234/695 250/232/695 264/263/695
f 249/230/696 263/262/696 261/264/696
f 250/232/697 252/229/697 262/265/697
f 233/221/234 251/231/234 261/264/234
f 262/265/235 252/229/235 234/223/235
f 255/227/698 253/225/698 259/268/698
f 260/270/699 254/226/699 256/228/699
f 253/225/700 231/222/700 281/271/700
f 282/272/701 232/224/701 254/226/701
f 231/222/702 233/221/702 279/266/702
f 280/267/703 234/223/703 232/224/703
f 66/122/704 107/118/704 283/273/704
f 284/275/705 108/120/705 66/122/705
f 107/118/706 105/114/706 285/276/706
f 286/277/707 106/116/707 108/120/707
f 103/115/708 287/280/708 285/276/708
f 104/278/709 106/116/709 286/277/709
f 101/107/710 289/282/710 287/280/710
f 102/109/711 104/278/711 288/279/711
f 99/103/712 291/285/712 289/282/712
f 100/105/713 102/109/713 290/281/713
f 99/103/714 97/99/714 293/284/714
f 294/286/715 98/101/715 100/105/715
f 95/100/716 295/290/716 293/284/716
f 96/287/717 98/101/717 294/286/717
f 95/100/718 93/92/718 297/289/718
f 298/291/719 94/94/719 96/287/719
f 93/92/720 91/93/720 299/292/720
f 300/293/721 92/322/721 94/94/721
f 308/294/722 327/314/722 337/295/722
f 308/297/723 307/302/723 338/298/723
f 307/296/724 337/295/724 335/300/724
f 307/302/725 306/306/725 336/303/725
f 306/301/726 335/300/726 339/304/726
f 306/306/727 305/305/727 340/307/727
f 88/68/728 90/67/728 305/305/728
f 305/305/729 90/67/729 89/74/729
f 86/72/730 88/68/730 339/304/730
f 340/307/731 89/74/731 87/77/731
f 84/75/732 86/72/732 333/308/732
f 334/309/733 87/77/733 85/76/733
f 82/78/734 84/75/734 329/310/734
f 330/311/735 85/76/735 83/81/735
f 329/310/736 335/300/736 337/295/736
f 338/298/737 336/303/737 330/311/737
f 333/308/738 339/304/738 335/300/738
f 334/309/739 330/311/739 336/303/739
f 331/312/740 337/295/740 327/314/740
f 332/313/741 326/316/741 328/299/741
f 80/82/742 82/78/742 331/312/742
f 332/313/743 83/81/743 81/85/743
f 341/317/744 343/401/744 214/202/744
f 342/318/745 209/201/745 215/203/745
f 325/315/746 341/317/746 208/200/746
f 326/316/747 81/85/747 209/201/747
f 214/202/748 343/401/748 345/320/748
f 215/203/749 79/90/749 346/321/749
f 345/320/750 299/292/750 91/93/750
f 346/321/751 79/90/751 92/322/751
f 323/323/752 351/329/752 303/324/752
f 324/326/753 76/344/753 303/327/753
f 351/329/754 349/395/754 77/330/754
f 352/328/755 303/327/755 77/331/755
f 77/330/756 349/395/756 347/333/756
f 348/335/757 350/332/757 77/331/757
f 304/334/758 347/333/758 327/314/758
f 328/299/759 348/335/759 304/336/759
f 327/314/760 347/333/760 341/317/760
f 328/299/761 326/316/761 342/318/761
f 295/290/762 297/289/762 317/337/762
f 318/339/763 298/291/763 296/288/763
f 315/341/764 323/323/764 76/325/764
f 316/343/765 75/355/765 76/344/765
f 357/345/766 355/377/766 302/346/766
f 358/348/767 301/382/767 302/349/767
f 302/346/768 355/377/768 353/351/768
f 354/353/769 356/350/769 302/349/769
f 74/352/770 353/351/770 315/341/770
f 316/343/771 354/353/771 74/354/771
f 291/356/772 293/284/772 361/357/772
f 362/359/773 294/286/773 292/360/773
f 363/358/774 361/357/774 367/362/774
f 368/364/775 362/359/775 364/361/775
f 365/363/776 367/362/776 369/366/776
f 370/368/777 368/364/777 366/365/777
f 371/367/778 369/366/778 375/370/778
f 376/372/779 370/368/779 372/369/779
f 377/374/780 373/371/780 375/370/780
f 378/376/781 314/551/781 376/372/781
f 315/341/782 353/351/782 373/371/782
f 374/373/783 354/353/783 316/343/783
f 353/351/784 355/377/784 371/367/784
f 372/369/785 356/350/785 354/353/785
f 355/377/786 357/345/786 365/363/786
f 366/365/787 358/348/787 356/350/787
f 357/345/788 359/378/788 363/358/788
f 364/361/789 360/380/789 358/348/789
f 291/356/790 363/358/790 359/378/790
f 292/360/791 290/387/791 360/380/791
f 359/378/792 357/345/792 301/347/792
f 360/380/793 73/388/793 301/382/793
f 283/383/794 285/552/794 287/384/794
f 288/385/795 286/553/795 284/386/795
f 283/383/796 289/379/796 359/378/796
f 360/380/797 290/387/797 284/386/797
f 295/290/798 309/338/798 361/357/798
f 296/288/799 294/286/799 362/359/799
f 309/338/800 311/391/800 367/362/800
f 368/364/801 312/392/801 310/340/801
f 311/391/802 381/393/802 369/366/802
f 370/368/803 382/394/803 312/392/803
f 375/370/804 369/366/804 381/393/804
f 376/372/805 314/551/805 382/394/805
f 349/395/806 385/405/806 383/396/806
f 350/332/807 348/335/807 384/397/807
f 383/396/808 385/405/808 319/399/808
f 384/397/809 318/339/809 320/400/809
f 297/289/810 299/292/810 383/396/810
f 384/397/811 300/293/811 298/291/811
f 299/292/812 343/401/812 341/317/812
f 342/318/813 344/319/813 300/293/813
f 321/402/814 379/406/814 377/374/814
f 322/403/815 314/551/815 378/376/815
f 377/374/816 379/406/816 323/323/816
f 378/376/817 316/343/817 324/326/817
f 385/405/818 379/406/818 321/402/818
f 386/398/819 320/400/819 322/403/819
f 351/329/820 379/406/820 385/405/820
f 352/328/821 350/332/821 386/398/821
f 387/407/822 413/454/822 401/408/822
f 388/410/823 400/416/823 402/411/823
f 399/409/824 401/408/824 403/413/824
f 404/415/825 402/411/825 400/416/825
f 403/413/826 405/421/826 395/418/826
f 404/415/827 398/417/827 396/419/827
f 405/421/828 407/425/828 393/422/828
f 406/420/829 396/419/829 394/423/829
f 407/425/830 409/433/830 391/426/830
f 408/424/831 394/423/831 392/427/831
f 391/426/832 409/433/832 411/429/832
f 412/431/833 410/428/833 392/427/833
f 409/433/834 419/436/834 417/434/834
f 418/435/835 420/437/835 410/428/835
f 407/425/836 421/504/836 419/436/836
f 420/437/837 422/440/837 408/424/837
f 423/438/838 421/504/838 407/425/838
f 424/439/839 406/420/839 408/424/839
f 425/441/840 423/438/840 405/421/840
f 426/442/841 404/415/841 406/420/841
f 427/443/842 425/441/842 403/413/842
f 428/444/843 402/411/843 404/415/843
f 401/408/844 413/454/844 415/445/844
f 416/446/845 414/412/845 402/411/845
f 319/399/846 443/479/846 441/447/846
f 320/400/847 318/339/847 442/448/847
f 389/430/848 411/429/848 443/450/848
f 390/432/849 320/549/849 444/452/849
f 309/338/850 317/337/850 441/447/850
f 442/448/851 318/339/851 310/340/851
f 381/453/852 429/470/852 413/454/852
f 414/412/853 430/473/853 382/455/853
f 411/429/854 417/434/854 439/456/854
f 440/457/855 418/435/855 412/431/855
f 445/458/856 443/450/856 439/456/856
f 446/460/857 438/463/857 440/457/857
f 433/461/858 445/458/858 437/459/858
f 438/463/859 446/460/859 434/464/859
f 447/466/860 445/458/860 433/461/860
f 448/468/861 432/472/861 434/464/861
f 447/466/862 431/467/862 449/469/862
f 448/468/863 430/473/863 450/471/863
f 429/470/864 449/469/864 415/445/864
f 430/473/865 414/412/865 416/446/865
f 311/391/866 447/476/866 429/474/866
f 430/475/867 448/477/867 312/392/867
f 441/447/868 445/480/868 447/476/868
f 442/448/869 312/392/869 448/477/869
f 415/445/870 449/469/870 451/481/870
f 452/483/871 450/471/871 416/446/871
f 431/467/872 461/487/872 451/481/872
f 432/472/873 450/471/873 452/483/873
f 431/467/420 433/461/420 459/486/420
f 460/488/421 434/464/421 432/472/421
f 435/462/874 457/490/874 459/486/874
f 436/465/875 434/464/875 460/488/875
f 437/459/876 455/493/876 457/490/876
f 438/463/877 436/465/877 458/489/877
f 437/459/878 439/456/878 453/492/878
f 454/494/879 440/457/879 438/463/879
f 439/456/880 417/434/880 473/495/880
f 474/496/881 418/435/881 440/457/881
f 427/443/882 415/445/882 475/482/882
f 476/484/883 416/446/883 428/444/883
f 425/441/884 427/443/884 463/497/884
f 464/498/885 428/444/885 426/442/885
f 423/438/886 425/441/886 465/499/886
f 466/500/887 426/442/887 424/439/887
f 423/438/888 467/501/888 469/503/888
f 424/439/889 422/440/889 470/505/889
f 421/504/890 469/503/890 471/506/890
f 422/440/891 420/437/891 472/507/891
f 419/436/892 471/506/892 473/495/892
f 420/437/893 418/435/893 474/496/893
f 455/493/894 479/511/894 477/508/894
f 456/491/895 458/489/895 478/509/895
f 479/511/896 481/554/896 483/512/896
f 480/510/897 478/509/897 484/513/897
f 483/512/898 481/554/898 487/515/898
f 488/517/899 482/514/899 484/513/899
f 487/515/900 489/522/900 491/519/900
f 488/517/901 486/518/901 492/520/901
f 463/497/902 475/482/902 485/516/902
f 486/518/903 476/484/903 464/498/903
f 483/512/904 485/516/904 475/482/904
f 484/513/905 452/483/905 476/484/905
f 461/487/906 477/508/906 483/512/906
f 462/485/907 452/483/907 484/513/907
f 457/490/908 477/508/908 461/487/908
f 462/485/909 478/509/909 458/489/909
f 473/495/910 479/511/910 455/493/910
f 474/496/911 454/494/911 456/491/911
f 471/506/912 481/554/912 479/511/912
f 480/510/913 482/514/913 472/507/913
f 487/515/914 481/554/914 471/506/914
f 488/517/915 470/505/915 472/507/915
f 489/522/916 487/515/916 469/503/916
f 490/521/917 468/502/917 470/505/917
f 465/499/918 491/519/918 489/522/918
f 490/521/919 492/520/919 466/500/919
f 391/426/920 389/430/920 503/523/920
f 504/525/921 390/432/921 392/427/921
f 393/422/922 391/426/922 501/524/922
f 502/526/923 392/427/923 394/423/923
f 393/422/924 499/527/924 497/529/924
f 394/423/925 396/419/925 498/530/925
f 395/418/926 497/529/926 495/531/926
f 396/419/927 398/536/927 496/533/927
f 397/532/928 495/531/928 493/534/928
f 398/536/929 400/540/929 494/537/929
f 399/535/930 493/534/930 505/538/930
f 400/540/931 388/545/931 506/541/931
f 501/524/932 503/523/932 505/538/932
f 502/526/933 494/537/933 506/541/933
f 493/534/934 495/531/934 499/527/934
f 500/528/935 496/533/935 494/537/935
f 381/542/936 387/539/936 505/538/936
f 382/544/937 314/547/937 506/541/937
f 313/543/938 505/538/938 503/523/938
f 504/525/939 506/541/939 314/547/939
f 319/451/940 321/546/940 503/523/940
f 504/525/941 322/548/941 320/549/941

