# Blender 4.4.3
# www.blender.org
mtllib suzanne2.mtl
o Suzanne
v -0.437500 0.164062 -0.765625
v 0.437500 0.164062 -0.765625
v -0.500000 0.093750 -0.687500
v 0.500000 0.093750 -0.687500
v -0.546875 0.054688 -0.578125
v 0.546875 0.054688 -0.578125
v -0.351562 -0.023438 -0.617188
v 0.351562 -0.023438 -0.617188
v -0.351562 0.031250 -0.718750
v 0.351562 0.031250 -0.718750
v -0.351562 0.132812 -0.781250
v 0.351562 0.132812 -0.781250
v -0.273438 0.164062 -0.796875
v 0.273438 0.164062 -0.796875
v -0.203125 0.093750 -0.742188
v 0.203125 0.093750 -0.742188
v -0.156250 0.054688 -0.648438
v 0.156250 0.054688 -0.648438
v -0.140625 0.242188 -0.742188
v 0.140625 0.242188 -0.742188
v -0.242188 0.242188 -0.796875
v 0.242188 0.242188 -0.796875
v -0.273438 0.328125 -0.796875
v 0.273438 0.328125 -0.796875
v -0.203125 0.390625 -0.742188
v 0.203125 0.390625 -0.742188
v -0.351562 0.453125 -0.718750
v 0.351562 0.453125 -0.718750
v -0.351562 0.359375 -0.781250
v 0.351562 0.359375 -0.781250
v -0.437500 0.328125 -0.765625
v 0.437500 0.328125 -0.765625
v -0.500000 0.390625 -0.687500
v 0.500000 0.390625 -0.687500
v -0.546875 0.437500 -0.578125
v 0.546875 0.437500 -0.578125
v -0.625000 0.242188 -0.562500
v 0.625000 0.242188 -0.562500
v -0.562500 0.242188 -0.671875
v 0.562500 0.242188 -0.671875
v -0.468750 0.242188 -0.757812
v 0.468750 0.242188 -0.757812
v -0.476562 0.242188 -0.773438
v 0.476562 0.242188 -0.773438
v -0.445312 0.335938 -0.781250
v 0.445312 0.335938 -0.781250
v -0.351562 0.375000 -0.804688
v 0.351562 0.375000 -0.804688
v -0.265625 0.335938 -0.820312
v 0.265625 0.335938 -0.820312
v -0.226562 0.242188 -0.820312
v 0.226562 0.242188 -0.820312
v -0.265625 0.156250 -0.820312
v 0.265625 0.156250 -0.820312
v -0.351562 0.242188 -0.828125
v 0.351562 0.242188 -0.828125
v -0.351562 0.117188 -0.804688
v 0.351562 0.117188 -0.804688
v -0.445312 0.156250 -0.781250
v 0.445312 0.156250 -0.781250
v 0.000000 0.429688 -0.742188
v 0.000000 0.351562 -0.820312
v 0.000000 -0.679688 -0.734375
v 0.000000 -0.320312 -0.781250
v 0.000000 -0.187500 -0.796875
v 0.000000 -0.773438 -0.718750
v 0.000000 0.406250 -0.601562
v 0.000000 0.570312 -0.570312
v -0.203125 -0.187500 -0.562500
v 0.203125 -0.187500 -0.562500
v -0.312500 -0.437500 -0.570312
v 0.312500 -0.437500 -0.570312
v -0.351562 -0.695312 -0.570312
v 0.351562 -0.695312 -0.570312
v -0.367188 -0.890625 -0.531250
v 0.367188 -0.890625 -0.531250
v -0.328125 -0.945312 -0.523438
v 0.328125 -0.945312 -0.523438
v -0.179688 -0.968750 -0.554688
v 0.179688 -0.968750 -0.554688
v 0.000000 -0.984375 -0.578125
v -0.437500 -0.140625 -0.531250
v 0.437500 -0.140625 -0.531250
v -0.632812 -0.039062 -0.539062
v 0.632812 -0.039062 -0.539062
v -0.828125 0.148438 -0.445312
v 0.828125 0.148438 -0.445312
v -0.859375 0.429688 -0.593750
v 0.859375 0.429688 -0.593750
v -0.710938 0.484375 -0.625000
v 0.710938 0.484375 -0.625000
v -0.492188 0.601562 -0.687500
v 0.492188 0.601562 -0.687500
v -0.320312 0.757812 -0.734375
v 0.320312 0.757812 -0.734375
v -0.156250 0.718750 -0.757812
v 0.156250 0.718750 -0.757812
v -0.062500 0.492188 -0.750000
v 0.062500 0.492188 -0.750000
v -0.164062 0.414062 -0.773438
v 0.164062 0.414062 -0.773438
v -0.125000 0.304688 -0.765625
v 0.125000 0.304688 -0.765625
v -0.203125 0.093750 -0.742188
v 0.203125 0.093750 -0.742188
v -0.375000 0.015625 -0.703125
v 0.375000 0.015625 -0.703125
v -0.492188 0.062500 -0.671875
v 0.492188 0.062500 -0.671875
v -0.625000 0.187500 -0.648438
v 0.625000 0.187500 -0.648438
v -0.640625 0.296875 -0.648438
v 0.640625 0.296875 -0.648438
v -0.601562 0.375000 -0.664062
v 0.601562 0.375000 -0.664062
v -0.429688 0.437500 -0.718750
v 0.429688 0.437500 -0.718750
v -0.250000 0.468750 -0.757812
v 0.250000 0.468750 -0.757812
v 0.000000 -0.765625 -0.734375
v -0.109375 -0.718750 -0.734375
v 0.109375 -0.718750 -0.734375
v -0.117188 -0.835938 -0.710938
v 0.117188 -0.835938 -0.710938
v -0.062500 -0.882812 -0.695312
v 0.062500 -0.882812 -0.695312
v 0.000000 -0.890625 -0.687500
v 0.000000 -0.195312 -0.750000
v 0.000000 -0.140625 -0.742188
v -0.101562 -0.148438 -0.742188
v 0.101562 -0.148438 -0.742188
v -0.125000 -0.226562 -0.750000
v 0.125000 -0.226562 -0.750000
v -0.085938 -0.289062 -0.742188
v 0.085938 -0.289062 -0.742188
v -0.398438 -0.046875 -0.671875
v 0.398438 -0.046875 -0.671875
v -0.617188 0.054688 -0.625000
v 0.617188 0.054688 -0.625000
v -0.726562 0.203125 -0.601562
v 0.726562 0.203125 -0.601562
v -0.742188 0.375000 -0.656250
v 0.742188 0.375000 -0.656250
v -0.687500 0.414062 -0.726562
v 0.687500 0.414062 -0.726562
v -0.437500 0.546875 -0.796875
v 0.437500 0.546875 -0.796875
v -0.312500 0.640625 -0.835938
v 0.312500 0.640625 -0.835938
v -0.203125 0.617188 -0.851562
v 0.203125 0.617188 -0.851562
v -0.101562 0.429688 -0.843750
v 0.101562 0.429688 -0.843750
v -0.125000 -0.101562 -0.812500
v 0.125000 -0.101562 -0.812500
v -0.210938 -0.445312 -0.710938
v 0.210938 -0.445312 -0.710938
v -0.250000 -0.703125 -0.687500
v 0.250000 -0.703125 -0.687500
v -0.265625 -0.820312 -0.664062
v 0.265625 -0.820312 -0.664062
v -0.234375 -0.914062 -0.632812
v 0.234375 -0.914062 -0.632812
v -0.164062 -0.929688 -0.632812
v 0.164062 -0.929688 -0.632812
v 0.000000 -0.945312 -0.640625
v 0.000000 0.046875 -0.726562
v 0.000000 0.210938 -0.765625
v -0.328125 0.476562 -0.742188
v 0.328125 0.476562 -0.742188
v -0.164062 0.140625 -0.750000
v 0.164062 0.140625 -0.750000
v -0.132812 0.210938 -0.757812
v 0.132812 0.210938 -0.757812
v -0.117188 -0.687500 -0.734375
v 0.117188 -0.687500 -0.734375
v -0.078125 -0.445312 -0.750000
v 0.078125 -0.445312 -0.750000
v 0.000000 -0.445312 -0.750000
v 0.000000 -0.328125 -0.742188
v -0.093750 -0.273438 -0.781250
v 0.093750 -0.273438 -0.781250
v -0.132812 -0.226562 -0.796875
v 0.132812 -0.226562 -0.796875
v -0.109375 -0.132812 -0.781250
v 0.109375 -0.132812 -0.781250
v -0.039062 -0.125000 -0.781250
v 0.039062 -0.125000 -0.781250
v 0.000000 -0.203125 -0.828125
v -0.046875 -0.148438 -0.812500
v 0.046875 -0.148438 -0.812500
v -0.093750 -0.156250 -0.812500
v 0.093750 -0.156250 -0.812500
v -0.109375 -0.226562 -0.828125
v 0.109375 -0.226562 -0.828125
v -0.078125 -0.250000 -0.804688
v 0.078125 -0.250000 -0.804688
v 0.000000 -0.289062 -0.804688
v -0.257812 -0.312500 -0.554688
v 0.257812 -0.312500 -0.554688
v -0.164062 -0.242188 -0.710938
v 0.164062 -0.242188 -0.710938
v -0.179688 -0.312500 -0.710938
v 0.179688 -0.312500 -0.710938
v -0.234375 -0.250000 -0.554688
v 0.234375 -0.250000 -0.554688
v 0.000000 -0.875000 -0.687500
v -0.046875 -0.867188 -0.687500
v 0.046875 -0.867188 -0.687500
v -0.093750 -0.820312 -0.710938
v 0.093750 -0.820312 -0.710938
v -0.093750 -0.742188 -0.726562
v 0.093750 -0.742188 -0.726562
v 0.000000 -0.781250 -0.656250
v -0.093750 -0.750000 -0.664062
v 0.093750 -0.750000 -0.664062
v -0.093750 -0.812500 -0.640625
v 0.093750 -0.812500 -0.640625
v -0.046875 -0.851562 -0.632812
v 0.046875 -0.851562 -0.632812
v 0.000000 -0.859375 -0.632812
v -0.171875 0.218750 -0.781250
v 0.171875 0.218750 -0.781250
v -0.187500 0.156250 -0.773438
v 0.187500 0.156250 -0.773438
v -0.335938 0.429688 -0.757812
v 0.335938 0.429688 -0.757812
v -0.273438 0.421875 -0.773438
v 0.273438 0.421875 -0.773438
v -0.421875 0.398438 -0.773438
v 0.421875 0.398438 -0.773438
v -0.562500 0.351562 -0.695312
v 0.562500 0.351562 -0.695312
v -0.585938 0.289062 -0.687500
v 0.585938 0.289062 -0.687500
v -0.578125 0.195312 -0.679688
v 0.578125 0.195312 -0.679688
v -0.476562 0.101562 -0.718750
v 0.476562 0.101562 -0.718750
v -0.375000 0.062500 -0.742188
v 0.375000 0.062500 -0.742188
v -0.226562 0.109375 -0.781250
v 0.226562 0.109375 -0.781250
v -0.179688 0.296875 -0.781250
v 0.179688 0.296875 -0.781250
v -0.210938 0.375000 -0.781250
v 0.210938 0.375000 -0.781250
v -0.234375 0.359375 -0.757812
v 0.234375 0.359375 -0.757812
v -0.195312 0.296875 -0.757812
v 0.195312 0.296875 -0.757812
v -0.242188 0.125000 -0.757812
v 0.242188 0.125000 -0.757812
v -0.375000 0.085938 -0.726562
v 0.375000 0.085938 -0.726562
v -0.460938 0.117188 -0.703125
v 0.460938 0.117188 -0.703125
v -0.546875 0.210938 -0.671875
v 0.546875 0.210938 -0.671875
v -0.554688 0.281250 -0.671875
v 0.554688 0.281250 -0.671875
v -0.531250 0.335938 -0.679688
v 0.531250 0.335938 -0.679688
v -0.414062 0.390625 -0.750000
v 0.414062 0.390625 -0.750000
v -0.281250 0.398438 -0.765625
v 0.281250 0.398438 -0.765625
v -0.335938 0.406250 -0.750000
v 0.335938 0.406250 -0.750000
v -0.203125 0.171875 -0.750000
v 0.203125 0.171875 -0.750000
v -0.195312 0.226562 -0.750000
v 0.195312 0.226562 -0.750000
v -0.109375 0.460938 -0.609375
v 0.109375 0.460938 -0.609375
v -0.484375 0.554688 -0.554688
v 0.484375 0.554688 -0.554688
v -0.796875 0.406250 -0.460938
v 0.796875 0.406250 -0.460938
v -0.773438 0.164062 -0.375000
v 0.773438 0.164062 -0.375000
v -0.601562 0.000000 -0.414062
v 0.601562 0.000000 -0.414062
v -0.437500 -0.093750 -0.468750
v 0.437500 -0.093750 -0.468750
v 0.000000 0.898438 -0.289062
v 0.000000 0.984375 0.078125
v -0.851562 0.234375 -0.054688
v 0.851562 0.234375 -0.054688
v -0.859375 0.320312 0.046875
v 0.859375 0.320312 0.046875
v -0.773438 0.265625 0.437500
v 0.773438 0.265625 0.437500
v -0.734375 -0.046875 -0.070312
v 0.734375 -0.046875 -0.070312
v -0.593750 -0.125000 0.164062
v 0.593750 -0.125000 0.164062
v -0.328125 -0.914062 -0.398438
v 0.328125 -0.914062 -0.398438
v -0.164062 -0.945312 -0.437500
v 0.164062 -0.945312 -0.437500
v -0.218750 -0.281250 -0.429688
v 0.218750 -0.281250 -0.429688
v -0.210938 -0.226562 -0.468750
v 0.210938 -0.226562 -0.468750
v -0.203125 -0.171875 -0.500000
v 0.203125 -0.171875 -0.500000
v -0.210938 -0.390625 -0.164062
v 0.210938 -0.390625 -0.164062
v -0.296875 -0.312500 0.265625
v 0.296875 -0.312500 0.265625
v -0.453125 0.929688 0.070312
v 0.453125 0.929688 0.070312
v -0.453125 0.851562 -0.234375
v 0.453125 0.851562 -0.234375
v -0.460938 0.523438 -0.429688
v 0.460938 0.523438 -0.429688
v -0.726562 0.406250 -0.335938
v 0.726562 0.406250 -0.335938
v -0.632812 0.453125 -0.281250
v 0.632812 0.453125 -0.281250
v -0.640625 0.703125 -0.054688
v 0.640625 0.703125 -0.054688
v -0.796875 0.562500 -0.125000
v 0.796875 0.562500 -0.125000
v -0.796875 0.617188 0.117188
v 0.796875 0.617188 0.117188
v -0.640625 0.750000 0.195312
v 0.640625 0.750000 0.195312
v -0.820312 0.328125 0.203125
v 0.820312 0.328125 0.203125
v -0.406250 -0.171875 -0.148438
v 0.406250 -0.171875 -0.148438
v -0.429688 -0.195312 0.210938
v 0.429688 -0.195312 0.210938
v -0.890625 0.406250 0.234375
v 0.890625 0.406250 0.234375
v -0.773438 -0.140625 0.125000
v 0.773438 -0.140625 0.125000
v -1.039062 -0.101562 0.328125
v 1.039062 -0.101562 0.328125
v -1.281250 0.054688 0.429688
v 1.281250 0.054688 0.429688
v -1.351562 0.320312 0.421875
v 1.351562 0.320312 0.421875
v -1.234375 0.507812 0.421875
v 1.234375 0.507812 0.421875
v -1.023438 0.476562 0.312500
v 1.023438 0.476562 0.312500
v -1.015625 0.414062 0.289062
v 1.015625 0.414062 0.289062
v -1.187500 0.437500 0.390625
v 1.187500 0.437500 0.390625
v -1.265625 0.289062 0.406250
v 1.265625 0.289062 0.406250
v -1.210938 0.078125 0.406250
v 1.210938 0.078125 0.406250
v -1.031250 -0.039062 0.304688
v 1.031250 -0.039062 0.304688
v -0.828125 -0.070312 0.132812
v 0.828125 -0.070312 0.132812
v -0.921875 0.359375 0.218750
v 0.921875 0.359375 0.218750
v -0.945312 0.304688 0.289062
v 0.945312 0.304688 0.289062
v -0.882812 -0.023438 0.210938
v 0.882812 -0.023438 0.210938
v -1.039062 0.000000 0.367188
v 1.039062 0.000000 0.367188
v -1.187500 0.093750 0.445312
v 1.187500 0.093750 0.445312
v -1.234375 0.250000 0.445312
v 1.234375 0.250000 0.445312
v -1.171875 0.359375 0.437500
v 1.171875 0.359375 0.437500
v -1.023438 0.343750 0.359375
v 1.023438 0.343750 0.359375
v -0.843750 0.289062 0.210938
v 0.843750 0.289062 0.210938
v -0.835938 0.171875 0.273438
v 0.835938 0.171875 0.273438
v -0.757812 0.093750 0.273438
v 0.757812 0.093750 0.273438
v -0.820312 0.085938 0.273438
v 0.820312 0.085938 0.273438
v -0.843750 0.015625 0.273438
v 0.843750 0.015625 0.273438
v -0.812500 -0.015625 0.273438
v 0.812500 -0.015625 0.273438
v 0.726562 0.000000 0.070312
v -0.718750 -0.023438 0.171875
v 0.718750 -0.023438 0.171875
v -0.718750 0.039062 0.187500
v 0.718750 0.039062 0.187500
v -0.796875 0.203125 0.210938
v 0.796875 0.203125 0.210938
v -0.890625 0.242188 0.265625
v 0.890625 0.242188 0.265625
v -0.890625 0.234375 0.320312
v 0.890625 0.234375 0.320312
v -0.812500 -0.015625 0.320312
v 0.812500 -0.015625 0.320312
v -0.851562 0.015625 0.320312
v 0.851562 0.015625 0.320312
v -0.828125 0.078125 0.320312
v 0.828125 0.078125 0.320312
v -0.765625 0.093750 0.320312
v 0.765625 0.093750 0.320312
v -0.843750 0.171875 0.320312
v 0.843750 0.171875 0.320312
v -1.039062 0.328125 0.414062
v 1.039062 0.328125 0.414062
v -1.187500 0.343750 0.484375
v 1.187500 0.343750 0.484375
v -1.257812 0.242188 0.492188
v 1.257812 0.242188 0.492188
v -1.210938 0.085938 0.484375
v 1.210938 0.085938 0.484375
v -1.046875 0.000000 0.421875
v 1.046875 0.000000 0.421875
v -0.882812 -0.015625 0.265625
v 0.882812 -0.015625 0.265625
v -0.953125 0.289062 0.343750
v 0.953125 0.289062 0.343750
v -0.890625 0.109375 0.328125
v 0.890625 0.109375 0.328125
v -0.937500 0.062500 0.335938
v 0.937500 0.062500 0.335938
v -1.000000 0.125000 0.367188
v 1.000000 0.125000 0.367188
v -0.960938 0.171875 0.351562
v 0.960938 0.171875 0.351562
v -1.015625 0.234375 0.375000
v 1.015625 0.234375 0.375000
v -1.054688 0.187500 0.382812
v 1.054688 0.187500 0.382812
v -1.109375 0.210938 0.390625
v 1.109375 0.210938 0.390625
v -1.085938 0.273438 0.390625
v 1.085938 0.273438 0.390625
v -1.250000 0.468750 0.546875
v 1.250000 0.468750 0.546875
v -1.367188 0.296875 0.500000
v 1.367188 0.296875 0.500000
v -1.312500 0.054688 0.531250
v 1.312500 0.054688 0.531250
v -1.039062 -0.085938 0.492188
v 1.039062 -0.085938 0.492188
v -0.859375 0.382812 0.382812
v 0.859375 0.382812 0.382812
vn -0.6617 -0.2026 -0.7219
vn 0.6617 -0.2026 -0.7219
vn -0.8268 -0.3051 -0.4725
vn 0.8268 -0.3051 -0.4725
vn -0.4076 -0.7905 -0.4570
vn 0.4076 -0.7905 -0.4570
vn -0.3791 -0.5163 -0.7679
vn 0.3791 -0.5163 -0.7679
vn 0.0859 -0.5222 -0.8485
vn -0.0859 -0.5222 -0.8485
vn 0.2664 -0.8487 -0.4570
vn -0.2664 -0.8487 -0.4570
vn 0.4706 -0.1981 -0.8598
vn -0.4706 -0.1981 -0.8598
vn 0.4649 0.1958 -0.8634
vn -0.4649 0.1958 -0.8634
vn 0.0821 0.6023 -0.7940
vn -0.1017 0.5518 -0.8277
vn -0.3329 0.5231 -0.7846
vn 0.3861 0.5446 -0.7445
vn -0.8251 0.2968 -0.4808
vn 0.8299 0.2940 -0.4742
vn -0.6888 0.1868 -0.7005
vn 0.6617 0.2026 -0.7219
vn -0.4000 -0.0623 -0.9144
vn 0.4000 -0.0623 -0.9144
vn -0.3069 -0.1754 -0.9354
vn 0.3069 -0.1754 -0.9354
vn -0.0945 -0.1835 -0.9785
vn 0.0945 -0.1835 -0.9785
vn 0.0624 -0.0283 -0.9977
vn -0.0624 -0.0283 -0.9977
vn 0.0624 0.0260 -0.9977
vn -0.0624 0.0260 -0.9977
vn -0.0996 0.1729 -0.9799
vn 0.0996 0.1729 -0.9799
vn -0.3036 0.1656 -0.9383
vn 0.3036 0.1656 -0.9383
vn -0.4002 0.0572 -0.9147
vn 0.4002 0.0572 -0.9147
vn -0.1367 -0.8748 -0.4648
vn 0.1054 -0.8433 -0.5270
vn -0.2303 -0.8656 -0.4447
vn 0.1916 -0.8620 -0.4693
vn -0.5788 -0.5049 -0.6404
vn 0.5788 -0.5049 -0.6404
vn -0.7763 -0.0633 -0.6272
vn 0.7763 -0.0633 -0.6272
vn -0.7471 0.1132 -0.6550
vn 0.7471 0.1132 -0.6550
vn -0.3747 -0.8345 -0.4040
vn 0.3747 -0.8345 -0.4040
vn -0.3557 -0.7290 -0.5848
vn 0.4177 -0.5751 -0.7034
vn -0.6947 -0.4197 -0.5841
vn 0.6947 -0.4197 -0.5841
vn -0.7028 -0.3915 -0.5939
vn 0.5537 -0.2978 -0.7777
vn -0.3127 0.3425 -0.8860
vn 0.8227 0.3606 -0.4395
vn -0.5091 0.6482 -0.5663
vn 0.5041 0.6448 -0.5745
vn -0.5977 0.5565 -0.5771
vn 0.5977 0.5565 -0.5771
vn 0.0486 0.6560 -0.7532
vn -0.0371 0.6685 -0.7428
vn 0.7104 0.2715 -0.6494
vn -0.7386 0.3768 -0.5590
vn 0.6013 0.5262 -0.6013
vn -0.5774 0.5774 -0.5774
vn -0.5070 -0.6281 -0.5903
vn 0.5364 -0.3230 -0.7797
vn -0.2226 -0.4694 -0.8545
vn 0.2226 -0.4694 -0.8545
vn 0.0348 -0.5792 -0.8144
vn -0.1073 -0.5010 -0.8588
vn 0.0899 -0.7843 -0.6138
vn -0.0770 -0.5759 -0.8139
vn -0.0547 -0.1695 -0.9840
vn 0.0279 -0.8645 -0.5019
vn -0.4260 -0.0609 -0.9027
vn 0.1687 -0.3128 -0.9347
vn -0.3352 -0.1828 -0.9243
vn 0.4350 -0.1812 -0.8820
vn -0.3579 -0.3068 -0.8819
vn 0.3223 -0.2762 -0.9054
vn -0.3069 0.2113 -0.9280
vn 0.4815 -0.2408 -0.8427
vn 0.1598 0.3903 -0.9067
vn -0.1598 0.3903 -0.9067
vn -0.6819 -0.2915 -0.6709
vn 0.1854 -0.4956 -0.8485
vn -0.0585 -0.0781 -0.9952
vn 0.0585 -0.0781 -0.9952
vn 0.0066 -0.2316 -0.9728
vn 0.0585 -0.0845 -0.9947
vn -0.1008 -0.7103 -0.6966
vn 0.1008 -0.7103 -0.6966
vn -0.1322 -0.5947 -0.7930
vn 0.1322 -0.5947 -0.7930
vn -0.3128 -0.1662 -0.9352
vn 0.3143 -0.3928 -0.8642
vn -0.3288 -0.0360 -0.9437
vn 0.3288 -0.0360 -0.9437
vn -0.3233 -0.0808 -0.9429
vn 0.3233 -0.0808 -0.9429
vn 0.0232 0.0511 -0.9984
vn -0.0000 0.0665 -0.9978
vn 0.0043 -0.0651 -0.9979
vn -0.0000 -0.0665 -0.9978
vn -0.0000 -0.0000 -1.0000
vn -0.8447 -0.5335 -0.0445
vn 0.8447 -0.5335 -0.0445
vn 1.0000 -0.0000 -0.0000
vn -0.6905 0.5492 -0.4708
vn -0.4071 -0.8956 -0.1791
vn 0.4319 -0.8639 -0.2592
vn -0.2873 -0.5747 -0.7663
vn 0.2873 -0.5747 -0.7663
vn 0.6326 0.5353 -0.5596
vn -0.6326 0.5353 -0.5596
vn -0.0862 0.7759 -0.6250
vn 0.0862 0.7759 -0.6250
vn -0.7532 0.2870 -0.5918
vn 0.7639 0.2971 -0.5729
vn -0.3416 -0.5409 -0.7686
vn 0.3416 -0.5409 -0.7686
vn -0.0502 0.2343 -0.9709
vn 0.0375 0.2247 -0.9737
vn 0.1304 -0.6087 -0.7826
vn -0.1304 -0.6087 -0.7826
vn 0.5059 0.0716 -0.8596
vn -0.5059 0.0716 -0.8596
vn 0.5774 -0.5774 -0.5774
vn -0.5774 -0.5774 -0.5774
vn -0.5460 -0.4310 -0.7184
vn 0.3319 0.0738 -0.9404
vn -0.3231 0.0311 -0.9459
vn 0.2815 0.0662 -0.9573
vn -0.7357 0.3910 -0.5531
vn 0.8753 0.2059 -0.4376
vn -0.8480 0.3180 -0.4240
vn 0.8973 0.1994 -0.3938
vn -0.8505 0.3798 -0.3638
vn 0.8505 0.3798 -0.3638
vn -0.1783 -0.4161 -0.8917
vn 0.2524 -0.8655 -0.4327
vn 0.1296 -0.1945 -0.9723
vn -0.1296 -0.1945 -0.9723
vn 0.4472 -0.0000 -0.8944
vn -0.4472 -0.0000 -0.8944
vn 0.1582 0.9494 -0.2713
vn -0.1582 0.9494 -0.2713
vn 0.6463 0.7337 -0.2096
vn -0.6463 0.7337 -0.2096
vn -0.3051 -0.9450 -0.1181
vn 0.3051 -0.9450 -0.1181
vn -0.0217 -0.3031 -0.9527
vn 0.0217 -0.3031 -0.9527
vn -0.1353 -0.3479 -0.9277
vn 0.1353 -0.3479 -0.9277
vn 0.4681 -0.2239 -0.8548
vn -0.4681 -0.2239 -0.8548
vn 0.2710 0.0271 -0.9622
vn -0.2710 0.0271 -0.9622
vn 0.1717 -0.0090 -0.9851
vn -0.2595 0.1038 -0.9601
vn 0.4332 -0.4874 -0.7581
vn -0.6684 -0.4595 -0.5849
vn 0.1599 -0.8797 -0.4478
vn -0.1599 -0.8797 -0.4478
vn -0.3900 -0.5895 -0.7074
vn 0.3900 -0.5895 -0.7074
vn -0.6547 -0.4589 -0.6007
vn 0.6547 -0.4589 -0.6007
vn -0.5378 -0.1144 -0.8353
vn 0.5378 -0.1144 -0.8353
vn -0.5657 0.1197 -0.8159
vn 0.5774 0.1155 -0.8083
vn -0.4082 0.4082 -0.8165
vn 0.5214 0.6574 -0.5441
vn -0.1796 0.7882 -0.5886
vn 0.1796 0.7882 -0.5886
vn -0.1881 0.3387 -0.9219
vn 0.1881 0.3387 -0.9219
vn 0.0870 0.2756 -0.9573
vn -0.0870 0.2756 -0.9573
vn -0.2804 -0.2181 -0.9348
vn 0.3553 -0.5739 -0.7379
vn -0.3015 -0.3015 -0.9045
vn 0.3015 -0.3015 -0.9045
vn 0.3766 -0.8339 -0.4035
vn -0.0631 -0.3156 -0.9468
vn -0.0823 -0.7822 -0.6175
vn -0.2016 -0.9071 -0.3696
vn 0.3707 -0.2851 -0.8839
vn -0.3707 -0.2851 -0.8839
vn 0.2692 -0.0577 -0.9614
vn -0.4568 0.0508 -0.8881
vn 0.2797 0.5245 -0.8042
vn -0.2797 0.5245 -0.8042
vn 0.0213 0.5546 -0.8319
vn -0.0487 0.6815 -0.7302
vn -0.3778 0.6342 -0.6746
vn 0.3378 0.5221 -0.7831
vn -0.4988 0.5300 -0.6858
vn 0.4988 0.5300 -0.6858
vn -0.5425 -0.3391 -0.7686
vn 0.5425 -0.3391 -0.7686
vn -0.8305 -0.0615 -0.5536
vn 0.8305 -0.0615 -0.5536
vn -0.7814 0.1116 -0.6140
vn 0.7814 0.1116 -0.6140
vn -0.1260 -0.9624 0.2406
vn 0.1260 -0.9624 0.2406
vn -0.8945 0.4337 -0.1084
vn 0.9501 0.2455 0.1922
vn -0.9166 -0.3740 -0.1414
vn 0.9166 -0.3740 -0.1414
vn -0.1272 0.9658 -0.2260
vn 0.1119 0.9626 -0.2468
vn -0.2561 0.6447 -0.7202
vn 0.2561 0.6447 -0.7202
vn -0.5966 0.7888 -0.1479
vn 0.5966 0.7888 -0.1479
vn -0.7289 0.6729 -0.1262
vn 0.7289 0.6729 -0.1262
vn -0.7791 0.4074 -0.4764
vn 0.7791 0.4074 -0.4764
vn -0.2854 0.6237 -0.7277
vn 0.1548 0.5080 -0.8473
vn -0.2925 0.5674 -0.7697
vn 0.2925 0.5674 -0.7697
vn 0.1616 0.1847 -0.9694
vn -0.1616 0.1847 -0.9694
vn -0.8681 0.0893 0.4883
vn 0.9340 0.2255 -0.2773
vn -0.9276 0.0762 -0.3657
vn 0.9276 0.0762 -0.3657
vn -0.9750 0.2169 -0.0490
vn 0.9750 0.2169 -0.0490
vn -0.7466 -0.6646 -0.0285
vn 0.6374 -0.7651 -0.0915
vn -0.3723 -0.9243 -0.0847
vn 0.3720 -0.9244 -0.0845
vn -0.3986 -0.8754 -0.2734
vn 0.3986 -0.8754 -0.2734
vn -0.6328 -0.7642 -0.1247
vn 0.6328 -0.7642 -0.1247
vn -0.7325 -0.6368 -0.2407
vn 0.7325 -0.6368 -0.2407
vn -0.2637 -0.4499 -0.8533
vn 0.2637 -0.4499 -0.8533
vn -0.3691 0.2855 -0.8844
vn 0.3244 0.4867 -0.8111
vn -0.4467 0.0975 -0.8894
vn 0.4467 0.0975 -0.8894
vn -0.3188 0.1993 -0.9266
vn 0.1817 -0.0079 -0.9833
vn -0.2076 -0.0836 -0.9746
vn 0.2925 -0.0758 -0.9533
vn -0.3398 0.0824 -0.9369
vn 0.5847 -0.2198 -0.7809
vn -0.5957 -0.3850 -0.7049
vn 0.5957 -0.3850 -0.7049
vn -0.4843 0.5580 -0.6738
vn 0.4843 0.5580 -0.6738
vn 0.2675 0.8318 -0.4864
vn -0.2675 0.8318 -0.4864
vn 0.8576 0.2223 -0.4637
vn -0.7885 0.2366 -0.5677
vn 0.5257 -0.3579 -0.7717
vn -0.5242 -0.3548 -0.7742
vn -0.4663 -0.5991 -0.6509
vn 0.4390 -0.5252 -0.7290
vn -0.7104 -0.4567 -0.5356
vn 0.7104 -0.4567 -0.5356
vn 0.1788 0.2923 -0.9395
vn -0.2175 0.2733 -0.9370
vn 0.9042 -0.3578 0.2332
vn -0.0400 0.3399 -0.9396
vn 0.0400 0.3399 -0.9396
vn -0.2734 0.9064 -0.3221
vn 0.2734 0.9064 -0.3221
vn -0.4480 -0.4480 -0.7737
vn 0.7177 0.1689 -0.6755
vn -0.5534 -0.5534 -0.6225
vn 0.9008 -0.4075 -0.1501
vn -0.5724 -0.3122 -0.7582
vn 0.5815 -0.5217 -0.6243
vn -0.5597 -0.5533 -0.6169
vn 0.6138 -0.2571 -0.7465
vn -0.6895 -0.6644 -0.2883
vn 0.6895 -0.6644 -0.2883
vn -0.7815 -0.6176 -0.0882
vn 0.7930 -0.5947 -0.1322
vn -0.7022 -0.7022 -0.1170
vn 0.7022 -0.7022 -0.1170
vn -0.9435 0.3145 -0.1048
vn 0.9251 0.3469 -0.1542
vn -0.6213 -0.7767 -0.1036
vn 0.6213 -0.7767 -0.1036
vn -0.0000 1.0000 -0.0000
vn -0.6197 -0.6899 -0.3742
vn 0.6197 -0.6899 -0.3742
vn -0.2752 -0.8808 -0.3853
vn 0.2752 -0.8808 -0.3853
vn 0.0071 0.9899 -0.1414
vn -0.1096 0.9939 0.0157
vn -0.1046 0.0392 -0.9937
vn 0.1738 0.0097 -0.9847
vn -0.2461 0.0852 -0.9655
vn 0.4134 0.0413 -0.9096
vn -0.3009 0.0926 -0.9491
vn 0.3009 0.0926 -0.9491
vn -0.2104 0.0124 -0.9775
vn 0.1220 0.0458 -0.9915
vn 0.0099 0.3867 -0.9221
vn -0.0099 0.3867 -0.9221
vn -0.3787 -0.0364 -0.9248
vn 0.4244 -0.0320 -0.9049
vn -0.2530 -0.1897 -0.9487
vn 0.2570 0.0723 -0.9637
vn 0.4870 0.6088 -0.6262
vn -0.2981 0.7454 -0.5963
vn -0.6693 0.1802 -0.7208
vn 0.6693 0.1802 -0.7208
vn -0.4388 -0.2008 -0.8759
vn 0.4723 -0.1986 -0.8588
vn -0.5786 -0.1334 -0.8046
vn 0.2975 -0.4062 -0.8640
vn -0.5002 0.2833 -0.8182
vn 0.5002 0.2833 -0.8182
vn -0.2980 0.5802 -0.7580
vn 0.2980 0.5802 -0.7580
vn -0.4688 -0.8715 -0.1442
vn 0.4688 -0.8715 -0.1442
vn -0.9309 -0.2541 -0.2624
vn 0.9264 -0.2460 -0.2851
vn -0.8465 0.5291 0.0595
vn 0.8267 0.5627 0.0035
vn -0.4046 0.0266 0.9141
vn 0.8073 0.5901 -0.0041
vn -0.7330 0.6786 -0.0472
vn -0.6713 -0.1971 -0.7145
vn 0.6713 -0.1971 -0.7145
vn -0.8326 -0.3017 -0.4646
vn 0.8326 -0.3017 -0.4646
vn -0.4258 -0.7967 -0.4290
vn 0.4258 -0.7967 -0.4290
vn -0.3265 -0.4954 -0.8050
vn 0.3265 -0.4954 -0.8050
vn 0.0649 -0.5714 -0.8181
vn -0.0649 -0.5714 -0.8181
vn 0.2738 -0.8315 -0.4834
vn -0.2738 -0.8315 -0.4834
vn 0.4658 -0.1863 -0.8651
vn -0.4658 -0.1863 -0.8651
vn 0.4983 0.1812 -0.8478
vn -0.4983 0.1812 -0.8478
vn 0.1017 0.5518 -0.8277
vn -0.0821 0.6023 -0.7940
vn -0.3861 0.5446 -0.7445
vn 0.3329 0.5231 -0.7846
vn -0.8299 0.2940 -0.4742
vn 0.8251 0.2968 -0.4808
vn -0.6617 0.2026 -0.7219
vn 0.6888 0.1868 -0.7005
vn -0.1054 -0.8433 -0.5270
vn 0.1367 -0.8748 -0.4648
vn -0.1916 -0.8620 -0.4693
vn 0.2303 -0.8656 -0.4447
vn -0.5959 -0.4256 -0.6810
vn 0.5959 -0.4256 -0.6810
vn -0.7563 -0.0299 -0.6535
vn 0.7563 -0.0299 -0.6535
vn -0.8069 0.0689 -0.5866
vn 0.8069 0.0689 -0.5866
vn -0.2334 -0.7779 -0.5834
vn 0.2334 -0.7779 -0.5834
vn -0.4177 -0.5751 -0.7034
vn 0.3557 -0.7290 -0.5848
vn -0.6872 -0.4191 -0.5934
vn 0.6872 -0.4191 -0.5934
vn -0.5537 -0.2978 -0.7777
vn 0.7028 -0.3915 -0.5939
vn -0.8227 0.3606 -0.4395
vn 0.3127 0.3425 -0.8860
vn -0.5041 0.6448 -0.5745
vn 0.5091 0.6482 -0.5663
vn -0.6155 0.4924 -0.6155
vn 0.6155 0.4924 -0.6155
vn 0.0371 0.6685 -0.7428
vn -0.0486 0.6560 -0.7532
vn 0.7386 0.3768 -0.5590
vn -0.7104 0.2715 -0.6494
vn 0.5774 0.5774 -0.5774
vn -0.6013 0.5262 -0.6013
vn -0.5364 -0.3230 -0.7797
vn 0.5070 -0.6281 -0.5903
vn -0.2181 -0.4685 -0.8561
vn 0.2181 -0.4685 -0.8561
vn 0.1073 -0.5010 -0.8588
vn -0.0348 -0.5792 -0.8144
vn 0.0770 -0.5759 -0.8139
vn -0.0899 -0.7843 -0.6138
vn -0.0279 -0.8645 -0.5019
vn 0.0547 -0.1695 -0.9840
vn -0.1687 -0.3128 -0.9347
vn 0.4260 -0.0609 -0.9027
vn -0.4350 -0.1812 -0.8820
vn 0.3352 -0.1828 -0.9243
vn -0.3223 -0.2762 -0.9054
vn 0.3579 -0.3068 -0.8819
vn -0.4815 -0.2408 -0.8427
vn 0.3069 0.2113 -0.9280
vn 0.0317 -0.1899 -0.9813
vn -0.0317 -0.1899 -0.9813
vn -0.1854 -0.4956 -0.8485
vn 0.6819 -0.2915 -0.6709
vn -0.2623 -0.3498 -0.8994
vn 0.2623 -0.3498 -0.8994
vn -0.0585 -0.0845 -0.9947
vn -0.0066 -0.2316 -0.9728
vn 0.0136 -0.6507 -0.7592
vn -0.0136 -0.6507 -0.7592
vn -0.2404 -0.5476 -0.8014
vn 0.2404 -0.5476 -0.8014
vn -0.3143 -0.3928 -0.8642
vn 0.3128 -0.1662 -0.9352
vn -0.2821 -0.0164 -0.9592
vn 0.2821 -0.0164 -0.9592
vn -0.3273 -0.1432 -0.9340
vn 0.3273 -0.1432 -0.9340
vn -0.0232 0.0511 -0.9984
vn -0.0043 -0.0651 -0.9979
vn -0.7826 -0.6087 0.1304
vn 0.7826 -0.6087 0.1304
vn 0.6905 0.5492 -0.4708
vn -0.4319 -0.8639 -0.2592
vn 0.4071 -0.8956 -0.1791
vn 0.6667 0.6667 -0.3333
vn -0.6667 0.6667 -0.3333
vn -0.1348 0.8086 -0.5727
vn 0.1348 0.8086 -0.5727
vn -0.7639 0.2971 -0.5729
vn 0.7532 0.2870 -0.5918
vn -0.4116 -0.8575 -0.3087
vn 0.4116 -0.8575 -0.3087
vn -0.0375 0.2247 -0.9737
vn 0.0502 0.2343 -0.9709
vn -0.1304 -0.2609 -0.9565
vn 0.1304 -0.2609 -0.9565
vn 0.0631 -0.8206 -0.5681
vn -0.0631 -0.8206 -0.5681
vn -0.7325 0.2817 -0.6198
vn 0.7325 0.2817 -0.6198
vn -0.3319 0.0738 -0.9404
vn 0.5460 -0.4310 -0.7184
vn -0.2815 0.0662 -0.9573
vn 0.3231 0.0311 -0.9459
vn -0.8753 0.2059 -0.4376
vn 0.7357 0.3910 -0.5531
vn -0.8973 0.1994 -0.3938
vn 0.8480 0.3180 -0.4240
vn -0.9586 0.0664 -0.2767
vn 0.9586 0.0664 -0.2767
vn -0.2524 -0.8655 -0.4327
vn 0.1783 -0.4161 -0.8917
vn 0.1751 -0.2043 -0.9631
vn -0.1751 -0.2043 -0.9631
vn 0.1219 -0.1829 -0.9755
vn -0.1219 -0.1829 -0.9755
vn 0.1562 0.3123 -0.9370
vn -0.1562 0.3123 -0.9370
vn 0.7238 0.6857 -0.0762
vn -0.7238 0.6857 -0.0762
vn -0.0478 -0.2870 -0.9567
vn 0.0478 -0.2870 -0.9567
vn 0.5488 -0.3293 -0.7683
vn -0.5488 -0.3293 -0.7683
vn 0.4945 -0.1130 -0.8618
vn -0.4945 -0.1130 -0.8618
vn 0.2595 0.1038 -0.9601
vn -0.1717 -0.0090 -0.9851
vn 0.6684 -0.4595 -0.5849
vn -0.4332 -0.4874 -0.7581
vn 0.1156 -0.6359 -0.7631
vn -0.1156 -0.6359 -0.7631
vn -0.4242 -0.6211 -0.6590
vn 0.4242 -0.6211 -0.6590
vn -0.4767 -0.3557 -0.8039
vn 0.4767 -0.3557 -0.8039
vn -0.5871 -0.0839 -0.8052
vn 0.5871 -0.0839 -0.8052
vn -0.5774 0.1155 -0.8083
vn 0.5657 0.1197 -0.8159
vn -0.5214 0.6574 -0.5441
vn 0.4082 0.4082 -0.8165
vn -0.3358 0.3478 -0.8754
vn 0.3358 0.3478 -0.8754
vn -0.1452 0.3774 -0.9146
vn 0.1452 0.3774 -0.9146
vn -0.0301 0.2306 -0.9726
vn 0.0301 0.2306 -0.9726
vn -0.3553 -0.5739 -0.7379
vn 0.2804 -0.2181 -0.9348
vn -0.2627 -0.2252 -0.9382
vn 0.2627 -0.2252 -0.9382
vn 0.0631 -0.3156 -0.9468
vn -0.3766 -0.8339 -0.4035
vn 0.2016 -0.9071 -0.3696
vn 0.0823 -0.7822 -0.6175
vn 0.3356 -0.2397 -0.9110
vn -0.3356 -0.2397 -0.9110
vn 0.4568 0.0508 -0.8881
vn -0.2692 -0.0577 -0.9614
vn 0.0247 0.4072 -0.9130
vn -0.0247 0.4072 -0.9130
vn 0.0487 0.6815 -0.7302
vn -0.0213 0.5546 -0.8319
vn -0.3378 0.5221 -0.7831
vn 0.3778 0.6342 -0.6746
vn -0.7895 -0.3158 -0.5263
vn 0.7895 -0.3158 -0.5263
vn -0.8070 -0.0807 -0.5851
vn 0.8070 -0.0807 -0.5851
vn -0.7868 0.1210 -0.6052
vn 0.7868 0.1210 -0.6052
vn -0.1094 -0.9718 0.2089
vn 0.1094 -0.9718 0.2089
vn -0.9501 0.2455 0.1922
vn 0.8945 0.4337 -0.1084
vn -0.6869 -0.6358 -0.3521
vn 0.6869 -0.6358 -0.3521
vn -0.1119 0.9626 -0.2468
vn 0.1272 0.9658 -0.2260
vn -0.0452 0.7955 -0.6043
vn 0.0452 0.7955 -0.6043
vn -0.6144 0.7696 -0.1738
vn 0.6144 0.7696 -0.1738
vn -0.7088 0.6833 -0.1752
vn 0.7088 0.6833 -0.1752
vn -0.6885 0.3830 -0.6158
vn 0.6885 0.3830 -0.6158
vn -0.1548 0.5080 -0.8473
vn 0.2854 0.6237 -0.7277
vn 0.2638 0.9462 0.1871
vn -0.2638 0.9462 0.1871
vn -0.9340 0.2255 -0.2773
vn 0.8681 0.0893 0.4883
vn -0.9758 0.1241 -0.1800
vn 0.9758 0.1241 -0.1800
vn -0.9613 0.1472 0.2330
vn 0.9613 0.1472 0.2330
vn -0.6374 -0.7651 -0.0915
vn 0.7466 -0.6646 -0.0285
vn -0.3720 -0.9244 -0.0845
vn 0.3723 -0.9243 -0.0847
vn -0.5281 -0.8354 -0.1522
vn 0.5281 -0.8354 -0.1522
vn -0.3070 -0.5237 -0.7946
vn 0.3070 -0.5237 -0.7946
vn -0.3244 0.4867 -0.8111
vn 0.3691 0.2855 -0.8844
vn -0.4649 0.2593 -0.8465
vn 0.4649 0.2593 -0.8465
vn -0.1817 -0.0079 -0.9833
vn 0.3188 0.1993 -0.9266
vn -0.2925 -0.0758 -0.9533
vn 0.2076 -0.0836 -0.9746
vn -0.5847 -0.2198 -0.7809
vn 0.3398 0.0824 -0.9369
vn -0.6509 -0.1939 -0.7340
vn 0.6509 -0.1939 -0.7340
vn -0.4075 0.7506 -0.5201
vn 0.4075 0.7506 -0.5201
vn 0.2655 0.8296 -0.4911
vn -0.2655 0.8296 -0.4911
vn 0.7885 0.2366 -0.5677
vn -0.8576 0.2223 -0.4637
vn 0.5242 -0.3548 -0.7742
vn -0.5257 -0.3579 -0.7717
vn -0.4390 -0.5252 -0.7290
vn 0.4663 -0.5991 -0.6509
vn -0.6888 -0.4428 -0.5740
vn 0.6888 -0.4428 -0.5740
vn 0.2175 0.2733 -0.9370
vn -0.1788 0.2923 -0.9395
vn 0.9046 -0.3869 0.1792
vn -0.1782 -0.0891 -0.9800
vn 0.1782 -0.0891 -0.9800
vn 0.2335 0.8972 -0.3749
vn -0.2335 0.8972 -0.3749
vn -0.7177 0.1689 -0.6755
vn 0.4480 -0.4480 -0.7737
vn -0.5313 0.5844 -0.6134
vn 0.5313 0.5844 -0.6134
vn -0.9008 -0.4075 -0.1501
vn 0.5534 -0.5534 -0.6225
vn -0.5815 -0.5217 -0.6243
vn 0.5724 -0.3122 -0.7582
vn -0.6138 -0.2571 -0.7465
vn 0.5597 -0.5533 -0.6169
vn -0.7661 -0.6363 -0.0909
vn 0.7661 -0.6363 -0.0909
vn -0.7930 -0.5947 -0.1322
vn 0.7815 -0.6176 -0.0882
vn -0.9251 0.3469 -0.1542
vn 0.9435 0.3145 -0.1048
vn -0.7071 -0.7071 -0.0000
vn 0.7071 -0.7071 -0.0000
vn 0.0157 0.9898 -0.1414
vn -0.0157 0.9898 -0.1414
vn -0.6266 -0.7211 -0.2956
vn 0.6266 -0.7211 -0.2956
vn -0.2714 -0.9022 -0.3353
vn 0.2714 -0.9022 -0.3353
vn 0.1096 0.9939 0.0157
vn -0.0071 0.9899 -0.1414
vn -0.1738 0.0097 -0.9847
vn 0.1046 0.0392 -0.9937
vn -0.4134 0.0413 -0.9096
vn 0.2461 0.0852 -0.9655
vn -0.3228 -0.0461 -0.9453
vn 0.3228 -0.0461 -0.9453
vn -0.1220 0.0458 -0.9915
vn 0.2104 0.0124 -0.9775
vn -0.5679 0.1916 -0.8005
vn 0.5679 0.1916 -0.8005
vn -0.4244 -0.0320 -0.9049
vn 0.3787 -0.0364 -0.9248
vn -0.2570 0.0723 -0.9637
vn 0.2530 -0.1897 -0.9487
vn -0.1351 -0.0225 -0.9906
vn 0.1351 -0.0225 -0.9906
vn 0.2981 0.7454 -0.5963
vn -0.4870 0.6088 -0.6262
vn -0.5571 -0.1486 -0.8171
vn 0.5571 -0.1486 -0.8171
vn -0.4723 -0.1986 -0.8588
vn 0.4388 -0.2008 -0.8759
vn -0.2975 -0.4062 -0.8640
vn 0.5786 -0.1334 -0.8046
vn -0.5771 0.2164 -0.7875
vn 0.5771 0.2164 -0.7875
vn -0.5161 -0.8527 0.0812
vn 0.5161 -0.8527 0.0812
vn -0.9264 -0.2460 -0.2851
vn 0.9309 -0.2541 -0.2624
vn -0.8267 0.5627 0.0035
vn 0.8465 0.5291 0.0595
vn 0.7330 0.6786 -0.0472
vn -0.8073 0.5901 -0.0041
vt 0.843250 0.588863
vt 0.794218 0.611927
vt 0.815334 0.560948
vt 0.866314 0.937441
vt 0.889378 0.888409
vt 0.917293 0.916324
vt 0.746541 0.611927
vt 0.781622 0.527235
vt 0.866314 0.985118
vt 0.951006 0.950037
vt 0.781622 0.696619
vt 0.781622 0.950037
vt 0.833697 0.611927
vt 0.815334 0.662907
vt 0.815334 0.916325
vt 0.866314 0.897962
vt 0.843250 0.634991
vt 0.866314 0.684023
vt 0.794218 0.865345
vt 0.843250 0.888409
vt 0.866314 0.731700
vt 0.746541 0.865345
vt 0.866314 0.644544
vt 0.917293 0.662907
vt 0.815334 0.814366
vt 0.833697 0.865345
vt 0.889378 0.634991
vt 0.938410 0.611927
vt 0.866314 0.793249
vt 0.843250 0.842281
vt 0.889378 0.588863
vt 0.898931 0.611927
vt 0.889378 0.842281
vt 0.917294 0.814365
vt 0.866314 0.579310
vt 0.917294 0.560947
vt 0.898931 0.865345
vt 0.938410 0.865345
vt 0.866314 0.492154
vt 0.866314 0.539831
vt 0.986087 0.865345
vt 0.866314 0.611927
vt 0.839848 0.611927
vt 0.847600 0.593213
vt 0.885028 0.884059
vt 0.866314 0.891811
vt 0.866314 0.865345
vt 0.847600 0.630641
vt 0.847600 0.884059
vt 0.866314 0.638393
vt 0.839848 0.865345
vt 0.885028 0.630641
vt 0.847600 0.846631
vt 0.892780 0.611927
vt 0.866314 0.838879
vt 0.885028 0.593213
vt 0.885028 0.846631
vt 0.866314 0.585461
vt 0.892780 0.865345
vt 0.517028 0.068490
vt 0.500000 0.054411
vt 0.520711 0.060503
vt 0.482972 0.068490
vt 0.500000 0.064527
vt 0.522612 0.070678
vt 0.530457 0.065062
vt 0.477388 0.070678
vt 0.479289 0.060503
vt 0.532878 0.067822
vt 0.467122 0.067822
vt 0.469543 0.065062
vt 0.544695 0.083023
vt 0.526301 0.079422
vt 0.473699 0.079422
vt 0.455305 0.083023
vt 0.565647 0.115495
vt 0.529228 0.091098
vt 0.470772 0.091098
vt 0.434353 0.115495
vt 0.586916 0.172042
vt 0.600470 0.238288
vt 0.535885 0.215568
vt 0.399530 0.238288
vt 0.413084 0.172042
vt 0.464115 0.215568
vt 0.650908 0.240294
vt 0.626605 0.208159
vt 0.349092 0.240294
vt 0.363038 0.261221
vt 0.655896 0.284413
vt 0.636962 0.261221
vt 0.344104 0.284413
vt 0.684517 0.317795
vt 0.689501 0.268805
vt 0.315483 0.317795
vt 0.340493 0.313152
vt 0.671357 0.334694
vt 0.659507 0.313152
vt 0.328643 0.334694
vt 0.350893 0.322437
vt 0.636775 0.370732
vt 0.649107 0.322437
vt 0.363225 0.370732
vt 0.386364 0.353108
vt 0.594178 0.371277
vt 0.613636 0.353108
vt 0.405822 0.371277
vt 0.581044 0.398468
vt 0.602261 0.395588
vt 0.418956 0.398468
vt 0.422649 0.373341
vt 0.532016 0.387365
vt 0.577351 0.373341
vt 0.467984 0.387365
vt 0.460183 0.354339
vt 0.500000 0.382860
vt 0.539817 0.354339
vt 0.500000 0.340417
vt 0.579057 0.335646
vt 0.559135 0.334326
vt 0.420943 0.335646
vt 0.592090 0.332885
vt 0.606163 0.325516
vt 0.407910 0.332885
vt 0.628251 0.311636
vt 0.393837 0.325516
vt 0.635551 0.300507
vt 0.371749 0.311636
vt 0.631484 0.283889
vt 0.364449 0.300507
vt 0.611331 0.264411
vt 0.368516 0.283889
vt 0.592372 0.254897
vt 0.388669 0.264411
vt 0.559669 0.267717
vt 0.407628 0.254897
vt 0.500000 0.252445
vt 0.440331 0.267717
vt 0.544001 0.314523
vt 0.455999 0.314523
vt 0.500000 0.295691
vt 0.543637 0.293371
vt 0.456363 0.293371
vt 0.550878 0.277832
vt 0.449122 0.277832
vt 0.506819 0.075382
vt 0.493181 0.075382
vt 0.511782 0.080633
vt 0.488218 0.080633
vt 0.512172 0.093457
vt 0.537536 0.127779
vt 0.513874 0.097191
vt 0.486126 0.097191
vt 0.462464 0.127779
vt 0.487828 0.093457
vt 0.500000 0.157864
vt 0.514257 0.133422
vt 0.520226 0.164615
vt 0.485743 0.133422
vt 0.500000 0.134352
vt 0.500000 0.100063
vt 0.500000 0.091346
vt 0.530258 0.180239
vt 0.517666 0.172353
vt 0.482334 0.172353
vt 0.469742 0.180239
vt 0.479774 0.164615
vt 0.500000 0.192167
vt 0.500000 0.203867
vt 0.500000 0.197278
vt 0.491789 0.197295
vt 0.500000 0.165170
vt 0.500000 0.171718
vt 0.486462 0.176949
vt 0.508818 0.192407
vt 0.508211 0.197295
vt 0.491182 0.192407
vt 0.515232 0.190709
vt 0.518957 0.194728
vt 0.484768 0.190709
vt 0.481043 0.194728
vt 0.521901 0.181560
vt 0.478099 0.181560
vt 0.483092 0.181873
vt 0.513538 0.176949
vt 0.516908 0.181873
vt 0.500000 0.186182
vt 0.523673 0.198817
vt 0.544209 0.172814
vt 0.455791 0.172814
vt 0.476327 0.198817
vt 0.458673 0.154899
vt 0.541327 0.154899
vt 0.578661 0.139176
vt 0.421339 0.139176
vt 0.583245 0.154155
vt 0.416755 0.154155
vt 0.509911 0.090724
vt 0.490089 0.090724
vt 0.500000 0.089977
vt 0.509713 0.082236
vt 0.490287 0.082236
vt 0.505196 0.077083
vt 0.494804 0.077083
vt 0.500000 0.073497
vt 0.500000 0.075473
vt 0.500000 0.080320
vt 0.496555 0.080840
vt 0.506660 0.083289
vt 0.503445 0.080840
vt 0.493340 0.083289
vt 0.506822 0.086791
vt 0.493178 0.086791
vt 0.500000 0.085637
vt 0.562361 0.284338
vt 0.559190 0.294882
vt 0.437639 0.284338
vt 0.440810 0.294882
vt 0.563180 0.307151
vt 0.436820 0.307151
vt 0.570458 0.318697
vt 0.429542 0.318697
vt 0.430757 0.278245
vt 0.589914 0.271772
vt 0.569243 0.278245
vt 0.410086 0.271772
vt 0.602190 0.277180
vt 0.397810 0.277180
vt 0.617110 0.287175
vt 0.382890 0.287175
vt 0.618074 0.299197
vt 0.381926 0.299197
vt 0.384129 0.307438
vt 0.615871 0.307438
vt 0.401576 0.313725
vt 0.590828 0.319797
vt 0.598424 0.313725
vt 0.409172 0.319797
vt 0.582130 0.320991
vt 0.417870 0.320991
vt 0.583998 0.312892
vt 0.416002 0.312892
vt 0.421385 0.309394
vt 0.589656 0.312336
vt 0.410344 0.312336
vt 0.596347 0.309249
vt 0.403653 0.309249
vt 0.606014 0.302517
vt 0.393986 0.302517
vt 0.607735 0.297520
vt 0.392265 0.297520
vt 0.606985 0.291216
vt 0.393015 0.291216
vt 0.598275 0.283083
vt 0.401725 0.283083
vt 0.589866 0.280167
vt 0.410134 0.280167
vt 0.576352 0.284624
vt 0.423648 0.284624
vt 0.572831 0.289915
vt 0.427169 0.289915
vt 0.573307 0.303342
vt 0.578615 0.309394
vt 0.426693 0.303342
vt 0.572447 0.295716
vt 0.427553 0.295716
vt 0.527159 0.049514
vt 0.537222 0.060794
vt 0.472841 0.049514
vt 0.462778 0.060794
vt 0.600708 0.162985
vt 0.399292 0.162985
vt 0.394533 0.151503
vt 0.704305 0.260225
vt 0.743592 0.198572
vt 0.766410 0.233065
vt 0.256408 0.198572
vt 0.295695 0.260225
vt 0.233590 0.233065
vt 0.844317 0.347370
vt 0.958963 0.357385
vt 0.899807 0.420886
vt 0.155683 0.347370
vt 0.041037 0.357385
vt 0.118831 0.309153
vt 0.766113 0.319494
vt 0.793427 0.280495
vt 0.826663 0.297810
vt 0.206573 0.280495
vt 0.233887 0.319494
vt 0.173337 0.297810
vt 0.823620 0.254612
vt 0.855331 0.267956
vt 0.176380 0.254612
vt 0.144669 0.267956
vt 0.881169 0.309153
vt 0.772263 0.374010
vt 0.824765 0.470987
vt 0.227737 0.374010
vt 0.100193 0.420886
vt 0.792141 0.464714
vt 0.207859 0.464714
vt 0.175235 0.470987
vt 0.795638 0.489991
vt 0.204362 0.489991
vt 0.744725 0.304629
vt 0.712163 0.315527
vt 0.255275 0.304629
vt 0.786137 0.227788
vt 0.213863 0.227788
vt 0.765863 0.087001
vt 0.691484 0.146686
vt 0.661952 0.087561
vt 0.234137 0.087001
vt 0.308516 0.146686
vt 0.230666 0.128771
vt 0.780113 0.169386
vt 0.219887 0.169386
vt 0.672947 0.224880
vt 0.327053 0.224880
vt 0.640497 0.198841
vt 0.612663 0.133675
vt 0.387337 0.133675
vt 0.359503 0.198841
vt 0.338048 0.087561
vt 0.605467 0.151503
vt 0.464516 0.959188
vt 0.545439 0.884582
vt 0.574628 0.959188
vt 0.285710 0.959188
vt 0.204787 0.884582
vt 0.272900 0.891852
vt 0.605134 0.846978
vt 0.715894 0.897069
vt 0.145092 0.846978
vt 0.175598 0.959188
vt 0.034332 0.897069
vt 0.683874 0.757011
vt 0.066352 0.757011
vt 0.144866 0.784410
vt 0.605360 0.784410
vt 0.617867 0.719156
vt 0.132359 0.719156
vt 0.175391 0.744212
vt 0.574835 0.744212
vt 0.568728 0.682132
vt 0.181498 0.682132
vt 0.215230 0.712528
vt 0.483006 0.686791
vt 0.508539 0.641024
vt 0.267220 0.686791
vt 0.241687 0.641024
vt 0.534996 0.712528
vt 0.478880 0.719593
vt 0.271346 0.719593
vt 0.513415 0.736977
vt 0.236811 0.736977
vt 0.557599 0.789442
vt 0.192627 0.789442
vt 0.209109 0.760754
vt 0.553841 0.821849
vt 0.196385 0.821849
vt 0.524671 0.842380
vt 0.225555 0.842380
vt 0.485193 0.845321
vt 0.265033 0.845321
vt 0.409610 0.674022
vt 0.408153 0.587507
vt 0.340616 0.674022
vt 0.229792 0.191225
vt 0.400301 0.910556
vt 0.477326 0.891852
vt 0.349925 0.910556
vt 0.443630 0.713731
vt 0.306596 0.713731
vt 0.392812 0.710774
vt 0.429725 0.728622
vt 0.357414 0.710774
vt 0.422979 0.754609
vt 0.432640 0.746527
vt 0.320501 0.728622
vt 0.327247 0.754609
vt 0.317586 0.746527
vt 0.391578 0.815187
vt 0.427719 0.796173
vt 0.358648 0.815187
vt 0.448277 0.830976
vt 0.414155 0.878318
vt 0.301949 0.830976
vt 0.322507 0.796173
vt 0.336071 0.878318
vt 0.466042 0.804091
vt 0.490498 0.816075
vt 0.284184 0.804091
vt 0.259728 0.816075
vt 0.302184 0.783921
vt 0.438745 0.764960
vt 0.448042 0.783921
vt 0.311481 0.764960
vt 0.445216 0.756351
vt 0.305010 0.756351
vt 0.300407 0.743458
vt 0.456307 0.732687
vt 0.449819 0.743458
vt 0.293919 0.732687
vt 0.475471 0.740871
vt 0.274755 0.740871
vt 0.514211 0.817769
vt 0.236015 0.817769
vt 0.527961 0.808598
vt 0.222265 0.808598
vt 0.251558 0.755033
vt 0.459660 0.770459
vt 0.290566 0.770459
vt 0.282197 0.756171
vt 0.468029 0.756171
vt 0.477354 0.785393
vt 0.272872 0.785393
vt 0.263059 0.769899
vt 0.504617 0.782999
vt 0.496545 0.797122
vt 0.245609 0.782999
vt 0.253681 0.797122
vt 0.513713 0.804019
vt 0.236513 0.804019
vt 0.234089 0.792591
vt 0.498668 0.755033
vt 0.518620 0.772385
vt 0.516137 0.792591
vt 0.530079 0.790754
vt 0.231606 0.772385
vt 0.220147 0.790754
vt 0.613510 0.655816
vt 0.644031 0.693270
vt 0.136716 0.655816
vt 0.106195 0.693270
vt 0.668163 0.712097
vt 0.082063 0.712097
vt 0.676584 0.686010
vt 0.727131 0.698475
vt 0.073642 0.686010
vt 0.717709 0.538143
vt 0.648152 0.594596
vt 0.630034 0.557583
vt 0.032517 0.538143
vt 0.102074 0.594596
vt 0.028934 0.572934
vt 0.866314 0.832728
vt 0.373395 0.208159
vt 0.310499 0.268805
vt 0.397739 0.395588
vt 0.440865 0.334326
vt 0.744519 0.390057
vt 0.255481 0.390057
vt 0.287837 0.315527
vt 0.802950 0.203415
vt 0.197050 0.203415
vt 0.769334 0.128771
vt 0.541117 0.760754
vt 0.342073 0.587507
vt 0.487167 0.769899
vt 0.023095 0.698475
vt 0.721292 0.572934
vt 0.120192 0.557583
s 0
f 41/1/1 3/2/1 39/3/1
f 4/4/2 42/5/2 40/6/2
f 39/3/3 5/7/3 37/8/3
f 6/9/4 40/6/4 38/10/4
f 3/2/5 7/11/5 5/7/5
f 8/12/6 4/4/6 6/9/6
f 1/13/7 9/14/7 3/2/7
f 10/15/8 2/16/8 4/4/8
f 11/17/9 15/18/9 9/14/9
f 16/19/10 12/20/10 10/15/10
f 9/14/11 17/21/11 7/11/11
f 18/22/12 10/15/12 8/12/12
f 13/23/13 19/24/13 15/18/13
f 20/25/14 14/26/14 16/19/14
f 21/27/15 25/28/15 19/24/15
f 26/29/16 22/30/16 20/25/16
f 29/31/17 25/28/17 23/32/17
f 30/33/18 26/29/18 28/34/18
f 31/35/19 27/36/19 29/31/19
f 32/37/20 28/34/20 34/38/20
f 39/3/21 35/39/21 33/40/21
f 40/6/22 36/41/22 38/10/22
f 41/1/23 33/40/23 31/35/23
f 42/5/24 34/38/24 40/6/24
f 55/42/25 59/43/25 43/44/25
f 44/45/26 60/46/26 56/47/26
f 57/48/27 59/43/27 55/42/27
f 56/47/28 60/46/28 58/49/28
f 55/42/29 53/50/29 57/48/29
f 58/49/30 54/51/30 56/47/30
f 55/42/31 51/52/31 53/50/31
f 54/51/32 52/53/32 56/47/32
f 55/42/33 49/54/33 51/52/33
f 52/53/34 50/55/34 56/47/34
f 55/42/35 47/56/35 49/54/35
f 50/55/36 48/57/36 56/47/36
f 55/42/37 45/58/37 47/56/37
f 48/57/38 46/59/38 56/47/38
f 55/42/39 43/44/39 45/58/39
f 46/59/40 44/45/40 56/47/40
f 164/60/41 81/61/41 79/62/41
f 165/63/42 81/61/42 166/64/42
f 162/65/43 79/62/43 77/66/43
f 163/67/44 80/68/44 165/63/44
f 75/69/45 162/65/45 77/66/45
f 163/67/46 76/70/46 78/71/46
f 73/72/47 160/73/47 75/69/47
f 161/74/48 74/75/48 76/70/48
f 71/76/49 158/77/49 73/72/49
f 159/78/50 72/79/50 74/75/50
f 69/80/51 136/81/51 154/82/51
f 137/83/52 70/84/52 155/85/52
f 84/86/53 136/81/53 82/87/53
f 85/88/54 137/83/54 139/89/54
f 84/86/55 140/90/55 138/91/55
f 141/92/56 85/88/56 139/89/56
f 88/93/57 140/90/57 86/94/57
f 89/95/58 141/92/58 143/96/58
f 90/97/59 142/98/59 88/93/59
f 91/99/60 143/96/60 145/100/60
f 92/101/61 144/102/61 90/97/61
f 93/103/62 145/100/62 147/104/62
f 92/101/63 148/105/63 146/106/63
f 149/107/64 93/103/64 147/104/64
f 96/108/65 148/105/65 94/109/65
f 97/110/66 149/107/66 151/111/66
f 98/112/67 150/113/67 96/108/67
f 99/114/68 151/111/68 153/115/68
f 61/116/69 152/117/69 98/112/69
f 61/116/70 153/115/70 62/118/70
f 118/119/71 152/117/71 100/120/71
f 119/121/72 153/115/72 151/111/72
f 118/119/73 148/105/73 150/113/73
f 149/107/74 119/121/74 151/111/74
f 146/106/75 169/122/75 116/123/75
f 147/104/76 170/124/76 149/107/76
f 144/102/77 116/123/77 114/125/77
f 145/100/78 117/126/78 147/104/78
f 142/98/79 114/125/79 112/127/79
f 143/96/80 115/128/80 145/100/80
f 140/90/81 112/127/81 110/129/81
f 141/92/82 113/130/82 143/96/82
f 138/91/83 110/129/83 108/131/83
f 139/89/84 111/132/84 141/92/84
f 136/81/85 108/131/85 106/133/85
f 137/83/86 109/134/86 139/89/86
f 154/82/87 106/133/87 104/135/87
f 155/85/88 107/136/88 137/83/88
f 104/135/89 167/137/89 154/82/89
f 167/137/90 105/138/90 155/85/90
f 152/117/91 102/139/91 100/120/91
f 153/115/92 103/140/92 62/118/92
f 102/139/93 168/141/93 173/142/93
f 168/141/94 103/140/94 174/143/94
f 171/144/95 168/141/95 167/137/95
f 172/145/96 168/141/96 174/143/96
f 125/146/97 166/64/97 164/60/97
f 166/64/98 126/147/98 165/63/98
f 123/148/99 164/60/99 162/65/99
f 165/63/100 124/149/100 163/67/100
f 123/148/101 160/73/101 121/150/101
f 124/149/102 161/74/102 163/67/102
f 156/151/103 175/152/103 158/77/103
f 176/153/104 157/154/104 159/78/104
f 121/150/105 158/77/105 175/152/105
f 159/78/106 122/155/106 176/153/106
f 180/156/107 177/157/107 134/158/107
f 180/156/108 178/159/108 179/160/108
f 177/157/109 63/161/109 175/152/109
f 178/159/110 63/161/110 179/160/110
f 121/150/111 63/161/111 120/162/111
f 122/155/111 63/161/111 176/153/111
f 132/163/112 181/164/112 134/158/112
f 182/165/113 133/166/113 135/167/113
f 65/168/114 129/169/114 128/170/114
f 65/168/115 129/169/115 188/171/115
f 134/158/116 64/172/116 180/156/116
f 135/167/117 64/172/117 182/165/117
f 181/164/118 198/173/118 64/172/118
f 182/165/119 198/173/119 197/174/119
f 65/168/120 190/175/120 187/176/120
f 191/177/121 65/168/121 188/171/121
f 187/176/122 192/178/122 185/179/122
f 193/180/123 188/171/123 186/181/123
f 192/178/124 183/182/124 185/179/124
f 193/180/125 184/183/125 195/184/125
f 183/182/126 196/185/126 181/164/126
f 197/174/127 184/183/127 182/165/127
f 194/186/128 190/175/128 189/187/128
f 195/184/129 191/177/129 193/180/129
f 189/187/130 196/185/130 194/186/130
f 197/174/131 189/187/131 195/184/131
f 129/169/132 154/82/132 167/137/132
f 155/85/133 129/169/133 167/137/133
f 130/188/134 201/189/134 154/82/134
f 202/190/135 131/191/135 155/85/135
f 134/158/136 201/189/136 132/163/136
f 135/167/137 202/190/137 204/192/137
f 177/157/138 203/193/138 134/158/138
f 178/159/139 204/192/139 157/154/139
f 199/194/140 156/151/140 71/76/140
f 200/195/141 157/154/141 204/192/141
f 205/196/142 203/193/142 199/194/142
f 206/197/143 204/192/143 202/190/143
f 69/80/144 201/189/144 205/196/144
f 202/190/145 70/84/145 206/197/145
f 120/162/146 212/198/146 121/150/146
f 120/162/147 213/199/147 66/200/147
f 123/148/148 212/198/148 210/201/148
f 213/199/149 124/149/149 211/202/149
f 125/146/150 210/201/150 208/203/150
f 211/202/151 126/147/151 209/204/151
f 127/205/111 208/203/111 207/206/111
f 209/204/111 127/205/111 207/206/111
f 208/203/152 221/207/152 207/206/152
f 209/204/153 221/207/153 220/208/153
f 208/203/154 217/209/154 219/210/154
f 218/211/155 209/204/155 220/208/155
f 66/200/156 215/212/156 212/198/156
f 66/200/157 216/213/157 214/214/157
f 214/214/158 219/210/158 215/212/158
f 220/208/159 214/214/159 216/213/159
f 215/212/160 219/210/160 217/209/160
f 218/211/161 220/208/161 216/213/161
f 173/142/162 224/215/162 222/216/162
f 225/217/163 174/143/163 223/218/163
f 102/139/164 222/216/164 244/219/164
f 223/218/165 103/140/165 245/220/165
f 102/139/166 246/221/166 100/120/166
f 103/140/167 247/222/167 245/220/167
f 104/135/168 224/215/168 171/144/168
f 105/138/169 225/217/169 243/223/169
f 104/135/170 240/224/170 242/225/170
f 241/226/171 105/138/171 243/223/171
f 106/133/172 238/227/172 240/224/172
f 239/228/173 107/136/173 241/226/173
f 108/131/174 236/229/174 238/227/174
f 237/230/175 109/134/175 239/228/175
f 110/129/176 234/231/176 236/229/176
f 235/232/177 111/132/177 237/230/177
f 114/125/178 234/231/178 112/127/178
f 115/128/179 235/232/179 233/233/179
f 116/123/180 232/234/180 114/125/180
f 117/126/181 233/233/181 231/235/181
f 116/123/182 226/236/182 230/237/182
f 227/238/183 117/126/183 231/235/183
f 169/122/184 228/239/184 226/236/184
f 229/240/185 170/124/185 227/238/185
f 118/119/186 246/221/186 228/239/186
f 247/222/187 119/121/187 229/240/187
f 246/221/188 266/241/188 228/239/188
f 247/222/189 267/242/189 249/243/189
f 226/236/190 266/241/190 268/244/190
f 267/242/191 227/238/191 269/245/191
f 226/236/192 264/246/192 230/237/192
f 227/238/193 265/247/193 269/245/193
f 230/237/194 262/248/194 232/234/194
f 231/235/195 263/249/195 265/247/195
f 234/231/196 262/248/196 260/250/196
f 263/249/197 235/232/197 261/251/197
f 234/231/198 258/252/198 236/229/198
f 235/232/199 259/253/199 261/251/199
f 238/227/200 258/252/200 256/254/200
f 259/253/201 239/228/201 257/255/201
f 238/227/202 254/256/202 240/224/202
f 239/228/203 255/257/203 257/255/203
f 240/224/204 252/258/204 242/225/204
f 241/226/205 253/259/205 255/257/205
f 224/215/206 252/258/206 270/260/206
f 253/259/207 225/217/207 271/261/207
f 246/221/208 250/262/208 248/263/208
f 251/264/209 247/222/209 249/243/209
f 244/219/210 272/265/210 250/262/210
f 273/266/211 245/220/211 251/264/211
f 222/216/212 270/260/212 272/265/212
f 271/261/213 223/218/213 273/266/213
f 77/66/214 300/267/214 298/268/214
f 301/269/215 78/71/215 299/270/215
f 205/196/216 306/271/216 69/80/216
f 206/197/217 307/272/217 305/273/217
f 280/274/218 294/275/218 288/276/218
f 295/277/219 281/278/219 289/279/219
f 314/280/220 287/281/220 286/282/220
f 315/283/221 287/284/221 313/285/221
f 320/286/222 324/287/222 322/288/222
f 325/289/223 321/290/223 323/291/223
f 322/288/224 326/292/224 328/293/224
f 327/294/225 323/291/225 329/295/225
f 312/296/226 322/288/226 328/293/226
f 323/291/227 313/285/227 329/295/227
f 314/280/228 320/286/228 322/288/228
f 321/290/229 315/283/229 323/291/229
f 316/297/230 286/282/230 68/298/230
f 317/299/231 286/300/231 315/283/231
f 274/301/232 316/297/232 68/298/232
f 317/299/233 275/302/233 68/303/233
f 67/304/234 274/301/234 68/298/234
f 68/303/235 275/302/235 67/305/235
f 280/274/236 318/306/236 278/307/236
f 281/278/237 319/308/237 289/279/237
f 288/276/238 324/287/238 318/306/238
f 325/289/239 289/279/239 319/308/239
f 290/309/240 326/292/240 324/287/240
f 327/294/241 291/310/241 325/289/241
f 310/311/242 332/312/242 308/313/242
f 311/314/243 333/315/243 335/316/243
f 332/312/244 296/317/244 294/275/244
f 333/315/245 297/318/245 335/316/245
f 282/319/246 332/312/246 294/275/246
f 333/315/247 283/320/247 295/277/247
f 284/321/248 302/322/248 332/312/248
f 303/323/249 285/324/249 333/315/249
f 302/322/250 308/313/250 332/312/250
f 333/315/251 309/325/251 303/323/251
f 284/321/252 306/271/252 304/326/252
f 305/273/253 307/272/253 285/324/253
f 336/327/254 350/328/254 348/329/254
f 337/330/255 351/331/255 363/332/255
f 348/329/256 352/333/256 346/334/256
f 353/335/257 349/336/257 347/337/257
f 352/333/258 344/338/258 346/334/258
f 353/335/259 345/339/259 355/340/259
f 354/341/260 342/342/260 344/338/260
f 355/340/261 343/343/261 357/344/261
f 356/345/262 340/346/262 342/342/262
f 357/344/263 341/347/263 359/348/263
f 340/346/264 360/349/264 338/350/264
f 361/351/265 341/347/265 339/352/265
f 358/353/266 366/354/266 360/349/266
f 367/355/267 359/348/267 361/351/267
f 356/345/268 368/356/268 358/353/268
f 369/357/269 357/344/269 359/348/269
f 372/358/270 356/345/270 354/341/270
f 373/359/271 357/344/271 371/360/271
f 374/361/272 354/341/272 352/333/272
f 375/362/273 355/340/273 373/359/273
f 376/363/274 352/333/274 350/328/274
f 377/364/275 353/335/275 375/362/275
f 350/328/276 364/365/276 376/363/276
f 365/366/277 351/331/277 377/364/277
f 338/350/278 391/367/278 296/368/278
f 339/352/279 392/369/279 361/351/279
f 390/370/280 289/279/280 291/310/280
f 330/371/281 362/372/281 336/327/281
f 363/332/282 331/373/282 337/330/282
f 360/349/283 388/374/283 391/367/283
f 389/375/284 361/351/284 392/369/284
f 393/376/285 388/374/285 386/377/285
f 394/378/286 389/375/286 392/369/286
f 382/379/111 386/377/111 384/380/111
f 387/381/111 383/382/111 385/383/111
f 395/384/287 382/379/287 380/385/287
f 396/386/288 383/382/288 394/378/288
f 395/384/289 397/387/289 378/388/289
f 396/386/290 398/389/290 381/390/290
f 378/388/291 364/365/291 362/372/291
f 379/391/292 365/366/292 398/389/292
f 364/365/293 399/392/293 423/393/293
f 400/394/294 365/366/294 424/395/294
f 380/385/295 399/392/295 397/387/295
f 381/390/296 400/394/296 410/396/296
f 380/385/297 407/397/297 409/398/297
f 408/399/298 381/390/298 410/396/298
f 386/377/299 405/400/299 384/380/299
f 387/381/300 406/401/300 404/402/300
f 386/377/301 401/403/301 403/404/301
f 402/405/302 387/381/302 404/402/302
f 388/374/303 421/406/303 401/403/303
f 422/407/303 389/375/303 402/405/303
f 376/363/304 423/393/304 411/408/304
f 424/395/305 377/364/305 412/409/305
f 374/361/306 411/408/306 413/410/306
f 412/409/307 375/362/307 414/411/307
f 368/356/308 421/406/308 366/354/308
f 369/357/309 422/407/309 420/412/309
f 403/404/310 425/413/310 405/400/310
f 404/402/311 426/414/311 428/415/311
f 427/416/312 431/417/312 425/413/312
f 428/415/313 432/418/313 430/419/313
f 431/417/314 435/420/314 433/421/314
f 436/422/315 432/418/315 434/423/315
f 435/420/316 439/424/316 433/421/316
f 436/422/317 440/425/317 438/426/317
f 411/408/318 433/421/318 439/424/318
f 434/423/319 412/409/319 440/425/319
f 431/417/320 423/393/320 399/392/320
f 432/418/321 424/395/321 434/423/321
f 409/398/322 431/417/322 399/392/322
f 410/396/323 432/418/323 426/414/323
f 405/400/111 409/398/111 407/397/111
f 410/396/111 406/401/111 408/399/111
f 421/406/324 403/404/324 401/403/324
f 422/407/325 404/402/325 428/415/325
f 419/427/326 427/416/326 421/406/326
f 428/415/327 420/412/327 422/407/327
f 435/420/328 419/427/328 417/428/328
f 436/422/329 420/412/329 430/419/329
f 437/429/330 417/428/330 415/430/330
f 438/426/331 418/431/331 436/422/331
f 413/410/332 437/429/332 415/430/332
f 438/426/333 414/411/333 416/432/333
f 411/408/334 439/424/334 413/410/334
f 414/411/335 440/425/335 412/409/335
f 342/342/336 447/433/336 445/434/336
f 448/435/337 343/343/337 446/436/337
f 342/342/338 443/437/338 344/338/338
f 343/343/339 444/438/339 446/436/339
f 344/338/340 441/439/340 346/440/340
f 345/339/341 442/441/341 444/438/341
f 441/439/342 443/437/342 445/434/342
f 330/442/343 449/443/343 292/444/343
f 331/445/344 450/446/344 337/447/344
f 41/1/345 1/13/345 3/2/345
f 4/4/346 2/16/346 42/5/346
f 39/3/347 3/2/347 5/7/347
f 6/9/348 4/4/348 40/6/348
f 3/2/349 9/14/349 7/11/349
f 8/12/350 10/15/350 4/4/350
f 1/13/351 11/17/351 9/14/351
f 10/15/352 12/20/352 2/16/352
f 11/17/353 13/23/353 15/18/353
f 16/19/354 14/26/354 12/20/354
f 9/14/355 15/18/355 17/21/355
f 18/22/356 16/19/356 10/15/356
f 13/23/357 21/27/357 19/24/357
f 20/25/358 22/30/358 14/26/358
f 21/27/359 23/32/359 25/28/359
f 26/29/360 24/448/360 22/30/360
f 29/31/361 27/36/361 25/28/361
f 30/33/362 24/448/362 26/29/362
f 31/35/363 33/40/363 27/36/363
f 32/37/364 30/33/364 28/34/364
f 39/3/365 37/8/365 35/39/365
f 40/6/366 34/38/366 36/41/366
f 41/1/367 39/3/367 33/40/367
f 42/5/368 32/37/368 34/38/368
f 164/60/369 166/64/369 81/61/369
f 165/63/370 80/68/370 81/61/370
f 162/65/371 164/60/371 79/62/371
f 163/67/372 78/71/372 80/68/372
f 75/69/373 160/73/373 162/65/373
f 163/67/374 161/74/374 76/70/374
f 73/72/375 158/77/375 160/73/375
f 161/74/376 159/78/376 74/75/376
f 71/76/377 156/151/377 158/77/377
f 159/78/378 157/154/378 72/79/378
f 69/80/379 82/87/379 136/81/379
f 137/83/380 83/449/380 70/84/380
f 84/86/381 138/91/381 136/81/381
f 85/88/382 83/449/382 137/83/382
f 84/86/383 86/94/383 140/90/383
f 141/92/384 87/450/384 85/88/384
f 88/93/385 142/98/385 140/90/385
f 89/95/386 87/450/386 141/92/386
f 90/97/387 144/102/387 142/98/387
f 91/99/388 89/95/388 143/96/388
f 92/101/389 146/106/389 144/102/389
f 93/103/390 91/99/390 145/100/390
f 92/101/391 94/109/391 148/105/391
f 149/107/392 95/451/392 93/103/392
f 96/108/393 150/113/393 148/105/393
f 97/110/394 95/451/394 149/107/394
f 98/112/395 152/117/395 150/113/395
f 99/114/396 97/110/396 151/111/396
f 61/116/397 62/118/397 152/117/397
f 61/116/398 99/114/398 153/115/398
f 118/119/399 150/113/399 152/117/399
f 119/121/400 101/452/400 153/115/400
f 118/119/401 169/122/401 148/105/401
f 149/107/402 170/124/402 119/121/402
f 146/106/403 148/105/403 169/122/403
f 147/104/404 117/126/404 170/124/404
f 144/102/405 146/106/405 116/123/405
f 145/100/406 115/128/406 117/126/406
f 142/98/407 144/102/407 114/125/407
f 143/96/408 113/130/408 115/128/408
f 140/90/409 142/98/409 112/127/409
f 141/92/410 111/132/410 113/130/410
f 138/91/411 140/90/411 110/129/411
f 139/89/412 109/134/412 111/132/412
f 136/81/413 138/91/413 108/131/413
f 137/83/414 107/136/414 109/134/414
f 154/82/415 136/81/415 106/133/415
f 155/85/416 105/138/416 107/136/416
f 104/135/417 171/144/417 167/137/417
f 167/137/418 172/145/418 105/138/418
f 152/117/419 62/118/419 102/139/419
f 153/115/420 101/452/420 103/140/420
f 102/139/421 62/118/421 168/141/421
f 168/141/422 62/118/422 103/140/422
f 171/144/423 173/142/423 168/141/423
f 172/145/424 167/137/424 168/141/424
f 125/146/425 127/205/425 166/64/425
f 166/64/426 127/205/426 126/147/426
f 123/148/427 125/146/427 164/60/427
f 165/63/428 126/147/428 124/149/428
f 123/148/429 162/65/429 160/73/429
f 124/149/430 122/155/430 161/74/430
f 156/151/431 177/157/431 175/152/431
f 176/153/432 178/159/432 157/154/432
f 121/150/433 160/73/433 158/77/433
f 159/78/434 161/74/434 122/155/434
f 180/156/108 179/160/108 177/157/108
f 180/156/435 135/167/435 178/159/435
f 177/157/110 179/160/110 63/161/110
f 178/159/436 176/153/436 63/161/436
f 121/150/111 175/152/111 63/161/111
f 122/155/111 120/162/111 63/161/111
f 132/163/437 183/182/437 181/164/437
f 182/165/438 184/183/438 133/166/438
f 65/168/439 187/176/439 129/169/439
f 134/158/440 181/164/440 64/172/440
f 135/167/441 180/156/441 64/172/441
f 181/164/118 196/185/118 198/173/118
f 182/165/119 64/172/119 198/173/119
f 65/168/442 189/187/442 190/175/442
f 191/177/443 189/187/443 65/168/443
f 187/176/444 190/175/444 192/178/444
f 193/180/445 191/177/445 188/171/445
f 192/178/446 194/186/446 183/182/446
f 193/180/447 186/181/447 184/183/447
f 183/182/448 194/186/448 196/185/448
f 197/174/449 195/184/449 184/183/449
f 194/186/450 192/178/450 190/175/450
f 195/184/451 189/187/451 191/177/451
f 189/187/452 198/173/452 196/185/452
f 197/174/453 198/173/453 189/187/453
f 129/169/454 130/188/454 154/82/454
f 155/85/455 131/191/455 129/169/455
f 130/188/456 132/163/456 201/189/456
f 202/190/457 133/166/457 131/191/457
f 134/158/458 203/193/458 201/189/458
f 135/167/459 133/166/459 202/190/459
f 177/157/460 156/151/460 203/193/460
f 178/159/461 135/167/461 204/192/461
f 199/194/462 203/193/462 156/151/462
f 200/195/463 72/79/463 157/154/463
f 205/196/464 201/189/464 203/193/464
f 206/197/465 200/195/465 204/192/465
f 69/80/466 154/82/466 201/189/466
f 202/190/467 155/85/467 70/84/467
f 120/162/468 66/200/468 212/198/468
f 120/162/469 122/155/469 213/199/469
f 123/148/470 121/150/470 212/198/470
f 213/199/471 122/155/471 124/149/471
f 125/146/472 123/148/472 210/201/472
f 211/202/473 124/149/473 126/147/473
f 127/205/474 125/146/474 208/203/474
f 209/204/475 126/147/475 127/205/475
f 208/203/152 219/210/152 221/207/152
f 209/204/153 207/206/153 221/207/153
f 208/203/476 210/201/476 217/209/476
f 218/211/477 211/202/477 209/204/477
f 66/200/156 214/214/156 215/212/156
f 66/200/157 213/199/157 216/213/157
f 214/214/478 221/207/478 219/210/478
f 220/208/479 221/207/479 214/214/479
f 173/142/480 171/144/480 224/215/480
f 225/217/481 172/145/481 174/143/481
f 102/139/482 173/142/482 222/216/482
f 223/218/483 174/143/483 103/140/483
f 102/139/484 244/219/484 246/221/484
f 103/140/485 101/452/485 247/222/485
f 104/135/486 242/225/486 224/215/486
f 105/138/487 172/145/487 225/217/487
f 104/135/488 106/133/488 240/224/488
f 241/226/489 107/136/489 105/138/489
f 106/133/490 108/131/490 238/227/490
f 239/228/491 109/134/491 107/136/491
f 108/131/492 110/129/492 236/229/492
f 237/230/493 111/132/493 109/134/493
f 110/129/494 112/127/494 234/231/494
f 235/232/495 113/130/495 111/132/495
f 114/125/496 232/234/496 234/231/496
f 115/128/497 113/130/497 235/232/497
f 116/123/498 230/237/498 232/234/498
f 117/126/499 115/128/499 233/233/499
f 116/123/500 169/122/500 226/236/500
f 227/238/501 170/124/501 117/126/501
f 169/122/502 118/119/502 228/239/502
f 229/240/503 119/121/503 170/124/503
f 118/119/504 100/120/504 246/221/504
f 247/222/505 101/452/505 119/121/505
f 246/221/506 248/263/506 266/241/506
f 247/222/507 229/240/507 267/242/507
f 226/236/508 228/239/508 266/241/508
f 267/242/509 229/240/509 227/238/509
f 226/236/510 268/244/510 264/246/510
f 227/238/511 231/235/511 265/247/511
f 230/237/512 264/246/512 262/248/512
f 231/235/513 233/233/513 263/249/513
f 234/231/514 232/234/514 262/248/514
f 263/249/515 233/233/515 235/232/515
f 234/231/516 260/250/516 258/252/516
f 235/232/517 237/230/517 259/253/517
f 238/227/518 236/229/518 258/252/518
f 259/253/519 237/230/519 239/228/519
f 238/227/520 256/254/520 254/256/520
f 239/228/521 241/226/521 255/257/521
f 240/224/522 254/256/522 252/258/522
f 241/226/523 243/223/523 253/259/523
f 224/215/206 242/225/206 252/258/206
f 253/259/207 243/223/207 225/217/207
f 246/221/524 244/219/524 250/262/524
f 251/264/525 245/220/525 247/222/525
f 244/219/526 222/216/526 272/265/526
f 273/266/527 223/218/527 245/220/527
f 222/216/528 224/215/528 270/260/528
f 271/261/529 225/217/529 223/218/529
f 77/66/530 79/62/530 300/267/530
f 301/269/531 80/68/531 78/71/531
f 205/196/532 304/326/532 306/271/532
f 206/197/533 70/84/533 307/272/533
f 280/274/534 282/319/534 294/275/534
f 295/277/535 283/320/535 281/278/535
f 314/280/536 312/296/536 287/281/536
f 315/283/537 286/300/537 287/284/537
f 320/286/538 318/306/538 324/287/538
f 325/289/539 319/308/539 321/290/539
f 322/288/540 324/287/540 326/292/540
f 327/294/541 325/289/541 323/291/541
f 312/296/542 314/280/542 322/288/542
f 323/291/543 315/283/543 313/285/543
f 314/280/544 316/297/544 320/286/544
f 321/290/545 317/299/545 315/283/545
f 316/297/546 314/280/546 286/282/546
f 317/299/547 68/303/547 286/300/547
f 274/301/548 276/453/548 316/297/548
f 317/299/549 277/454/549 275/302/549
f 280/274/550 288/276/550 318/306/550
f 281/278/551 279/455/551 319/308/551
f 288/276/552 290/309/552 324/287/552
f 325/289/553 291/310/553 289/279/553
f 290/309/554 330/456/554 326/292/554
f 327/294/555 331/457/555 291/310/555
f 310/311/556 334/458/556 332/312/556
f 311/314/557 309/325/557 333/315/557
f 332/312/558 334/458/558 296/317/558
f 333/315/559 295/277/559 297/318/559
f 282/319/560 284/321/560 332/312/560
f 333/315/561 285/324/561 283/320/561
f 284/321/562 304/326/562 302/322/562
f 303/323/563 305/273/563 285/324/563
f 336/327/564 362/372/564 350/328/564
f 337/330/565 349/336/565 351/331/565
f 348/329/566 350/328/566 352/333/566
f 353/335/567 351/331/567 349/336/567
f 352/333/568 354/341/568 344/338/568
f 353/335/569 347/337/569 345/339/569
f 354/341/570 356/345/570 342/342/570
f 355/340/571 345/339/571 343/343/571
f 356/345/572 358/353/572 340/346/572
f 357/344/573 343/343/573 341/347/573
f 340/346/574 358/353/574 360/349/574
f 361/351/575 359/348/575 341/347/575
f 358/353/576 368/356/576 366/354/576
f 367/355/577 369/357/577 359/348/577
f 356/345/578 370/459/578 368/356/578
f 369/357/579 371/360/579 357/344/579
f 372/358/580 370/459/580 356/345/580
f 373/359/581 355/340/581 357/344/581
f 374/361/582 372/358/582 354/341/582
f 375/362/583 353/335/583 355/340/583
f 376/363/584 374/361/584 352/333/584
f 377/364/585 351/331/585 353/335/585
f 350/328/586 362/372/586 364/365/586
f 365/366/587 363/332/587 351/331/587
f 338/350/588 360/349/588 391/367/588
f 339/352/589 297/460/589 392/369/589
f 390/370/590 295/277/590 289/279/590
f 330/371/591 378/388/591 362/372/591
f 363/332/592 379/391/592 331/373/592
f 360/349/593 366/354/593 388/374/593
f 389/375/594 367/355/594 361/351/594
f 393/376/595 391/367/595 388/374/595
f 394/378/596 387/381/596 389/375/596
f 382/379/597 393/376/597 386/377/597
f 387/381/598 394/378/598 383/382/598
f 395/384/599 393/376/599 382/379/599
f 396/386/600 381/390/600 383/382/600
f 395/384/601 380/385/601 397/387/601
f 396/386/602 379/391/602 398/389/602
f 378/388/603 397/387/603 364/365/603
f 379/391/604 363/332/604 365/366/604
f 364/365/605 397/387/605 399/392/605
f 400/394/606 398/389/606 365/366/606
f 380/385/607 409/398/607 399/392/607
f 381/390/608 398/389/608 400/394/608
f 380/385/297 382/379/297 407/397/297
f 408/399/298 383/382/298 381/390/298
f 386/377/609 403/404/609 405/400/609
f 387/381/610 385/383/610 406/401/610
f 386/377/611 388/374/611 401/403/611
f 402/405/612 389/375/612 387/381/612
f 388/374/613 366/354/613 421/406/613
f 422/407/614 367/355/614 389/375/614
f 376/363/615 364/365/615 423/393/615
f 424/395/616 365/366/616 377/364/616
f 374/361/617 376/363/617 411/408/617
f 412/409/618 377/364/618 375/362/618
f 368/356/619 419/427/619 421/406/619
f 369/357/620 367/355/620 422/407/620
f 403/404/621 427/416/621 425/413/621
f 404/402/622 406/401/622 426/414/622
f 427/416/623 429/461/623 431/417/623
f 428/415/624 426/414/624 432/418/624
f 431/417/625 429/461/625 435/420/625
f 436/422/626 430/419/626 432/418/626
f 435/420/627 437/429/627 439/424/627
f 436/422/628 434/423/628 440/425/628
f 411/408/629 423/393/629 433/421/629
f 434/423/630 424/395/630 412/409/630
f 431/417/631 433/421/631 423/393/631
f 432/418/632 400/394/632 424/395/632
f 409/398/633 425/413/633 431/417/633
f 410/396/634 400/394/634 432/418/634
f 405/400/635 425/413/635 409/398/635
f 410/396/636 426/414/636 406/401/636
f 421/406/637 427/416/637 403/404/637
f 422/407/638 402/405/638 404/402/638
f 419/427/639 429/461/639 427/416/639
f 428/415/640 430/419/640 420/412/640
f 435/420/641 429/461/641 419/427/641
f 436/422/642 418/431/642 420/412/642
f 437/429/643 435/420/643 417/428/643
f 438/426/644 416/432/644 418/431/644
f 413/410/645 439/424/645 437/429/645
f 438/426/646 440/425/646 414/411/646
f 342/342/647 340/346/647 447/433/647
f 448/435/648 341/347/648 343/343/648
f 342/342/649 445/434/649 443/437/649
f 343/343/650 345/339/650 444/438/650
f 344/338/651 443/437/651 441/439/651
f 345/339/652 347/462/652 442/441/652
f 330/442/653 336/463/653 449/443/653
f 331/445/654 293/464/654 450/446/654
